<svg width="888" height="1028" viewBox="0 0 888 1028" fill="none" xmlns="http://www.w3.org/2000/svg">
<g clip-path="url(#clip0_109_183)">
<path d="M483.98 558.514L480.883 556.66C481.223 557.186 481.679 557.626 482.215 557.948C482.752 558.269 483.356 558.463 483.98 558.514Z" fill="white"/>
<path d="M491.601 563.075C491.027 562.292 490.294 561.638 489.451 561.155C488.607 560.673 487.672 560.373 486.706 560.275C487.964 561.747 489.694 562.737 491.601 563.075Z" fill="white"/>
<path d="M490.247 565.486C489.357 563.39 487.744 563.038 486.298 562.463C486.703 563.219 487.265 563.88 487.946 564.401C488.627 564.922 489.412 565.292 490.247 565.486Z" fill="white"/>
<path d="M169.705 613.043C170.725 613.655 171.763 614.249 172.802 614.898C172.461 614.373 172.005 613.933 171.469 613.611C170.932 613.29 170.329 613.096 169.705 613.043Z" fill="white"/>
<path d="M163.438 606.09C163.817 606.86 164.369 607.532 165.051 608.053C165.733 608.574 166.526 608.93 167.369 609.094C166.963 608.344 166.403 607.688 165.726 607.17C165.048 606.652 164.268 606.284 163.438 606.09Z" fill="white"/>
<path d="M162.084 608.501C162.661 609.282 163.394 609.934 164.237 610.416C165.08 610.898 166.014 611.2 166.979 611.301C165.721 609.829 163.991 608.839 162.084 608.501Z" fill="white"/>
<path d="M-57.1609 1159.78C-38.2663 1122.85 -22.4681 1088.05 -8.95075 1053.38C-6.20647 1046.39 -3.10988 1039.38 -0.124557 1032.61C1.72968 1028.35 3.58392 1024.06 5.43816 1019.74C8.62745 1012.21 11.7055 1004.63 14.8021 997.048L17.398 990.67C18.7145 987.407 20.0495 984.144 21.2363 980.825C23.4253 974.618 27.6545 969.337 33.2332 965.844C44.827 958.254 56.9757 951.548 69.5763 945.782C98.6078 932.818 128.969 923.063 160.119 916.691C177.307 912.983 194.552 908.422 211.222 903.953L221.105 901.302C241.353 895.907 261.898 890.177 283.833 883.836C293.865 880.925 303.711 877.662 313.056 874.102C325.202 869.504 337.402 864.554 349.214 859.751L357.577 856.358C390.635 842.674 422.571 826.419 453.088 807.744C463.528 801.458 474.394 795.432 484.889 789.592C489.895 786.811 494.883 784.017 499.852 781.211L500.983 780.581C502.465 779.826 503.88 778.945 505.211 777.948C506.741 776.971 507.86 775.468 508.355 773.721C508.851 771.975 508.689 770.108 507.9 768.474L507.622 767.732L505.971 766.916C504.88 766.339 503.76 765.82 502.615 765.359C501.671 765.04 500.682 764.871 499.685 764.858H499.092L476.563 763.004C459.263 761.576 441.333 760.093 423.754 759.036C400.354 757.627 375.674 759.611 343.707 765.47C316.284 770.255 289.522 778.258 263.975 789.314L245.191 797.565C226.185 805.889 206.53 814.492 187.376 823.337C170.691 830.982 154.788 840.228 139.889 850.944C133.993 855.19 128.04 859.362 122.107 863.515C105.827 874.918 89.0087 886.692 73.7669 900.115C70.6888 902.822 67.6479 905.548 64.6069 908.273C61.158 911.37 57.7277 914.448 54.2417 917.544C56.8006 912.204 59.4336 906.698 62.3447 901.487C68.5564 890.363 74.082 878.682 79.4037 867.39L83.9466 857.823C100.635 822.947 121.031 789.332 138.61 761.039C148.002 745.843 158.41 731.299 169.761 717.504C187.376 696.237 209.608 677.196 237.682 659.285C257.633 646.547 279.439 638.167 296.201 632.289C320.733 623.704 348.268 617.92 380.402 614.601C425.497 609.966 466.161 605.553 507.362 598.489C554.181 590.46 591.73 579.002 625.551 562.445C635.267 557.698 644.928 552.47 654.255 547.426L658.278 545.257C660.93 543.811 665.38 541.401 664.027 535.986L663.767 535.375C661.653 532.037 658.482 531.945 655.961 531.87L552.828 528.551C520.972 527.513 489.061 531.778 461.655 535.838C441.328 538.593 421.162 542.431 401.244 547.334C376.014 553.972 351.533 563.186 328.187 574.83L320.177 578.761C314.187 581.672 308.013 584.675 302.042 587.92C280.086 599.469 259.075 612.73 239.202 627.58C242.558 622.703 245.896 617.827 249.326 612.988L250.179 611.764C251.347 610.04 274.711 580.893 279.179 576.795C295.497 561.833 310.182 548.298 324.571 534.41C344.1 515.299 365.41 498.095 388.209 483.033C398.797 475.876 408.985 468.145 418.729 459.875C439.441 442.91 461.525 428.114 486.149 411.909L489.71 409.647C492.083 408.146 494.549 406.588 496.867 404.882C508.196 396.539 522.029 390.55 540.404 386.026C548.345 384.311 556.402 383.189 564.51 382.67C577.23 381.558 588.707 380.612 600.167 380.445C618.19 380.186 631.948 380.445 644.835 381.298C679.363 383.6 714.043 381.607 748.079 375.365C763.506 372.528 778.062 367.244 794.12 361.144C815.944 352.856 837.769 344.216 858.24 336.095C864.618 333.555 870.941 330.662 877.06 327.844L878.914 327.01C880.661 326.165 882.363 325.231 884.013 324.21C884.755 323.746 885.515 323.301 886.276 322.856L887.444 322.189L886.776 315.384L885.793 314.865C885.513 314.727 885.24 314.572 884.978 314.402C884.293 313.895 883.487 313.575 882.641 313.475C862.362 311.934 842.247 308.697 822.508 303.796C797.495 297.956 770.071 296.009 738.66 297.844C729.891 298.635 721.207 300.174 712.7 302.443C701.76 305.02 690.245 308.005 676.45 312.047C660.431 316.831 644.747 322.671 629.501 329.531L638.976 323.765C653.439 315.014 668.402 305.965 682.476 295.675C700.707 282.361 717.56 267.255 732.782 250.583C756.015 225.089 778.73 195.701 804.281 158.137C835.611 111.706 862.953 62.706 886.016 11.6623L886.461 10.7538C887.196 9.34313 887.738 7.84028 888.074 6.28543C888.19 5.03038 888.031 3.76521 887.611 2.5772C886.213 1.40002 884.592 0.517121 882.845 -0.0185547C881.639 0.233762 880.489 0.705077 879.452 1.37203C867.807 9.90094 854.791 16.7055 842.2 23.3062L841.088 23.8995C834.171 27.6077 827.07 31.0193 820.191 34.4123C815.332 36.8041 810.493 39.1959 805.672 41.6433L801.648 43.6828C795.492 46.7792 789.113 49.9868 783.106 53.6394C768.719 62.3712 755.153 72.3871 742.572 83.5648C729.113 95.5911 716.301 108.322 704.189 121.704C686.573 140.852 670.256 161.157 655.349 182.482C630.799 218.006 608.066 255.107 589.06 286.72C574.849 310.634 558.727 333.359 540.849 354.673C530.015 367.717 516.657 378.438 501.577 386.193C450.151 412.583 402.016 444.944 358.17 482.607C347.768 491.562 337.458 500.61 327.149 509.64L323.551 512.792C335.363 500.128 347.452 487.168 359.542 474.56C395.811 436.643 424.978 401.322 448.694 366.558C470.648 334.389 490.488 297.492 509.346 253.717C526.961 212.926 540.238 168.168 551.141 113.027C552.142 107.928 552.772 102.699 553.366 97.6375C553.644 95.3198 553.922 93.0022 554.237 90.7031C554.552 88.404 555.034 84.7885 550.658 82.5636L549.435 81.9332L548.396 82.8231C548.137 83.0456 547.821 83.2496 547.525 83.4721C546.475 84.1138 545.582 84.9816 544.91 86.0122C522.289 125.616 493.511 160.937 465.753 193.18C441.648 221.27 417.543 250.231 394.346 278.228C386.299 287.919 378.264 297.61 370.241 307.3C361.017 318.624 352.89 330.799 345.969 343.659C329.948 372.435 312.296 406.977 302.951 445.098C300.522 454.925 298.519 465.011 296.591 474.764C295.8 478.806 294.99 482.841 294.162 486.871L293.735 488.929C292.103 496.791 290.472 504.671 288.988 512.569C286.244 527.291 280.385 541.197 275.1 553.063C273.794 555.784 272.074 558.286 270.001 560.479C261.156 570.473 252.015 580.485 244.042 589.329C214.232 622.028 186.876 656.881 162.195 693.604C159.165 697.972 156.397 702.517 153.907 707.214C148.363 717.686 142.272 727.861 135.661 737.695L132.75 742.219C128.3 749.117 123.943 756.199 119.771 763.06L117.119 767.361L137.942 713.87C154.092 672.356 164.866 638.055 171.837 605.905C186.356 538.897 188.192 472.91 177.252 409.74C173.618 388.727 170.064 367.714 166.59 346.7C164.934 336.812 163.271 326.886 161.602 316.923L161.435 315.737C161.445 314.414 161.139 313.108 160.542 311.928C159.946 310.748 159.076 309.727 158.005 308.951L157.597 308.691H157.133C152.943 308.19 151.775 311.546 151.218 313.141L151.014 313.66C149.679 317.276 148.326 320.854 146.954 324.432C143.746 332.85 140.427 341.546 137.682 350.26L135.828 355.73C127.744 380.797 119.381 406.718 112.057 432.471C101.043 471.717 92.8941 511.71 87.6736 552.136C85.348 568.814 84.5536 585.67 85.3002 602.493C85.8936 614.953 86.7836 627.58 87.6365 639.817L88.2113 648.049C88.7305 655.762 89.3795 663.457 90.0656 671.151C91.4563 687.504 92.884 704.414 93.0324 721.008V724.624C93.2363 748.356 93.4589 772.831 89.9358 796.804C89.361 800.754 88.5636 804.758 87.8034 808.634L87.5624 809.95C86.0894 817.33 83.4345 824.423 79.7004 830.957C51.8868 880.555 29.877 922.476 10.4631 962.877C-6.874 998.902 -20.5026 1029.05 -32.4254 1057.71C-44.96 1087.84 -58.1622 1118.31 -70.9379 1147.77L-75.759 1158.89L-62.1674 1170.13L-57.1609 1159.78ZM601.409 559.052C586.964 564.818 572.093 569.843 560.745 573.569C540.946 580.043 520.682 585.002 500.13 588.402C468.256 593.649 434.027 598.118 389.136 602.864C353.33 606.573 323.162 612.691 295.997 621.591C305.536 617.552 315.322 614.121 325.294 611.319C339.09 607.351 351.569 604.107 363.454 601.437H363.696L374.914 599.063C383.369 597.376 391.101 596.041 398.555 595.003C405.101 594.094 462.842 586.047 464.381 585.936C488.09 584.103 511.611 580.345 534.712 574.7C564.547 567.636 591.173 560.368 615.965 552.451C611.255 554.806 606.397 557.086 601.409 559.052ZM319.769 606.109C322.198 604.793 324.645 603.532 327.186 602.401C337.588 597.562 348.398 593.13 358.837 588.792L364.233 586.567C367.573 585.19 371.029 584.116 374.561 583.359C378.159 582.58 381.774 581.931 385.39 581.282C389.303 580.578 393.345 579.836 397.294 578.965C405.249 577.111 413.167 575.368 421.084 573.514C427.722 571.975 434.361 570.417 440.999 568.916C457.687 565.207 474.857 563.817 491.545 562.463L497.108 562.018C505.471 561.351 513.796 560.572 522.159 559.793L535.138 558.607C537.401 558.403 539.644 558.162 541.888 557.921C546.968 557.383 552.197 556.827 557.334 556.734C566.234 556.549 575.487 556.233 584.925 555.325C573.799 558.347 562.544 561.388 551.344 564.188C520.305 571.975 445.467 580.633 441.351 581.412C432.414 582.135 424.459 583.025 417.042 584.101C398.593 586.764 380.292 590.372 362.212 594.91C361.378 595.058 332.062 602.419 319.769 606.109ZM285.131 615.546L287.116 614.323C301.82 605.238 331.135 579.299 406.677 554.991C421.64 550.152 437.995 548.131 455.629 545.072L460.301 544.256C480.438 540.733 501.261 537.08 522.01 536.153C543.501 535.189 622.659 541.716 625.514 541.567C624.137 541.951 622.738 542.248 621.323 542.457C614.426 543.477 607.027 544.608 599.851 546.054C589.452 548.049 578.912 549.227 568.329 549.577C556.592 550.096 544.706 551.023 533.229 551.932C526.646 552.451 520.063 553.044 513.499 553.638C506.936 554.231 500.835 554.769 494.494 555.269L493.288 555.362C475.043 556.808 456.204 558.31 437.884 562.408C426.758 564.874 415.781 567.284 404.73 569.713L378.047 575.572C361.563 579.28 346.655 585.881 334.25 591.888C326.388 595.707 318.563 599.842 310.98 603.847C305.899 606.517 300.818 609.205 295.719 611.82C288.512 615.528 281.293 619.156 274.062 622.703C277.733 620.243 281.423 617.858 285.131 615.546ZM690.375 323.579C756.256 307.078 796.809 313.252 811.439 313.438C817.205 313.438 822.972 313.567 828.738 313.586C832.677 313.704 836.592 314.232 840.42 315.162C820.024 317.832 802.353 319.742 783.922 319.667C770.311 319.667 756.46 320.316 743.518 321.095C733.635 321.688 723.121 322.69 711.421 324.154C700.833 325.471 690.449 327.306 682.606 328.752C673.965 330.328 665.232 332.108 656.647 333.851L657.574 333.555L662.729 331.886C671.796 328.919 681.086 325.86 690.375 323.579ZM812.069 122.668C794.695 146.512 781.122 164.515 768.049 181.054C759.223 192.179 750.045 203.452 740.792 214.317L735.229 220.769L728.332 228.927L727.979 229.242C724.085 233.099 720.21 236.98 716.353 240.886C710.401 246.875 704.449 252.864 698.386 258.76C675.408 280.966 650.493 301.077 623.938 318.852C623.938 318.852 766.529 198.705 848.56 62.4835C836.823 83.4906 824.233 103.608 812.069 122.612V122.668ZM665.121 185.207L666.752 182.815C674.676 170.786 683.237 159.187 692.396 148.069C715.591 120.856 741.43 96.0131 769.533 73.9049C775.817 69.0057 782.353 64.4384 789.113 60.2215C783.871 64.5949 778.875 69.2559 774.15 74.183C764.749 83.9912 756.164 92.7241 747.875 100.641C731.855 116.142 696.142 158.934 695.79 159.416L686.518 172.507C680.189 181.443 673.866 190.374 667.55 199.298C662.951 205.806 658.408 212.277 653.865 218.915C642.184 235.75 630.113 253.16 617.392 269.551C609.734 279.396 601.576 289.037 593.287 298.438C617.374 257.592 640.886 220.528 665.121 185.152V185.207ZM608.418 298.308C631.874 269.514 673.316 204.342 667.624 211.832C678.972 195.59 690.283 179.336 701.556 163.069C701.686 162.885 701.792 162.686 701.872 162.476C715.878 144.448 730.955 127.279 747.022 111.061C751.398 106.611 755.885 102.236 760.354 97.86C766.622 91.7414 793.731 79.0407 821.841 52.6938C814.547 60.2339 807.266 67.7987 799.998 75.3881L790.374 85.4003C788.52 87.3472 786.833 89.2013 785.275 91.0554C758.994 122.538 732.738 154.058 706.507 185.615C705.895 186.338 704.078 188.934 704.078 188.934C702.465 190.899 700.87 192.846 699.109 194.886C698.879 195.094 698.662 195.317 698.46 195.553C687.705 208.149 676.994 220.775 666.326 233.433C655.658 246.09 644.792 258.525 633.728 270.737C624.952 280.75 616.193 290.768 607.454 300.792C606.786 301.46 600.574 307.857 608.418 298.197V298.308ZM572.983 346.218C576.692 342.658 580.252 339.08 583.96 335.576L592.175 327.788C626.497 295.286 693.398 211.758 714.555 186.079L718.931 180.757C719.339 180.257 724.048 173.526 726.347 170.838C747.684 145.572 769.088 120.344 790.56 95.153C793.397 91.8156 796.53 88.5894 799.534 85.456L801.685 83.231C806.21 78.5092 810.759 73.7874 815.332 69.0656C821.303 62.8853 827.274 56.7049 833.244 50.5245C840.995 42.164 849.41 34.4443 858.406 27.4408C853.993 33.4111 849.895 38.8992 845.668 44.3874C831.501 62.7617 762.394 166.165 727.219 205.473C700.221 235.361 672.667 263.951 645.354 290.205C639.031 295.657 631.856 301.849 624.624 307.504C610.532 318.481 595.976 329.383 581.884 339.914L573.707 346.051L572.538 346.57L572.983 346.218ZM571.648 368.894L576.822 367.429C578.398 366.984 579.992 366.558 581.569 366.094C601.594 360.272 641.943 343.122 652.03 341.75C661.47 340.459 670.835 338.664 680.084 336.373C691.342 333.589 702.808 331.729 714.369 330.811C717.484 330.551 720.618 330.236 723.64 329.921C728.35 329.457 733.245 328.993 738.048 328.678L745.798 328.159C755.682 327.473 765.898 326.769 775.93 326.75C794.24 326.821 812.536 325.712 830.704 323.431C837.787 322.411 841.551 321.855 838.751 322.282C835.952 322.708 833.411 323.079 830.704 323.431C822.675 324.599 799.683 335.446 791.765 337.374C775.926 341.495 759.816 344.494 743.555 346.348C736.805 347.015 730 347.943 723.399 348.832C718.986 349.426 714.573 350.019 710.16 350.557L705.728 351.076C695.029 352.355 683.978 353.69 673.094 354.654C647.202 356.725 621.436 360.148 595.902 364.908C592.916 365.501 589.931 366.187 586.964 366.854C582.292 367.911 577.489 369.005 572.687 369.728C572.411 369.344 572.057 369.022 571.648 368.783V368.894ZM664.805 372.825C658.241 372.621 651.696 372.324 645.132 372.009C639.365 371.749 633.524 371.471 627.665 371.267C638.79 370.21 695.474 359.939 704.857 358.808L711.143 358.047C716.242 357.454 721.322 356.75 726.403 356.045C732.559 355.192 738.919 354.321 745.168 353.635C758.393 352.273 771.501 349.943 784.385 346.663C789.589 345.328 794.8 344.092 800.016 342.955C788.502 346.181 774.057 357.398 767.363 359.512C734.16 369.633 699.49 374.095 664.805 372.713V372.825ZM514.723 165.164C511.145 172.395 507.492 179.608 503.857 186.802C499.463 195.46 494.939 204.416 490.618 213.278C480.816 233.328 469.236 252.458 456.018 270.441C448.601 280.515 441.271 290.601 434.027 300.7L421.659 317.795C404.823 340.953 387.43 364.908 371.724 389.493L358.745 409.888C352.997 418.924 347.242 427.947 341.482 436.958C346.24 425.893 351.569 415.081 357.447 404.567L361.508 397.54C381.904 362.126 403.191 325.508 428.594 292.486C429.688 291.077 430.689 289.575 431.69 288.073L432.933 286.219C437.482 279.581 442.012 272.931 446.524 266.269C456.537 251.436 466.921 236.306 477.342 221.492C493.622 198.39 506.583 178.254 517.579 158.879C516.633 160.992 515.706 163.051 514.723 165.053V165.164ZM315.374 440.537C324.645 406.681 340.777 375.198 355.444 348.888C360.657 339.389 366.466 330.23 372.837 321.466C372.058 322.912 413.055 271.127 416.838 266.566C437.68 241.461 458.577 216.393 479.53 191.363C476.044 196.443 472.521 201.542 468.961 206.529C464.362 212.982 459.523 219.508 454.831 225.682C451.382 230.256 447.958 234.866 444.559 239.514C441.444 243.76 438.421 248.062 435.288 252.345C432.154 256.628 429.02 261.244 425.813 265.62C418.655 275.391 411.665 285.607 405.082 295.898L404.878 296.157C396.349 308.654 388.672 320.261 381.441 331.775C365.995 356.286 311.258 457.854 310.757 459.393C312.222 453.089 313.705 446.73 315.374 440.537ZM373.523 405.16C377.843 397.744 382.164 390.327 386.391 382.911C388.476 379.33 390.779 375.881 393.289 372.584L400.706 362.627C412.926 345.94 425.553 328.864 439.2 312.937C442.056 309.581 444.652 305.965 447.136 302.443C448.805 300.125 450.455 297.789 452.198 295.527C457.143 289.161 462.088 282.826 467.032 276.522C447.73 308.839 428.891 338.375 409.662 366.465C392.974 390.791 375.637 415.228 358.837 438.868C353.337 446.606 347.848 454.338 342.372 462.063C351.754 442.632 362.824 423.702 373.523 405.16ZM162.01 386.211C166.46 410.574 172.69 468.2 172.839 464.492C174.736 486.572 175.114 508.756 173.97 530.888C172.116 571.548 133.826 692.696 132.249 699.612C129.336 711.785 125.582 723.742 121.013 735.396C128.912 707.306 134.679 682.628 138.832 659.192C142.67 637.666 146.49 613.97 150.903 584.601L151.867 578.149C154.241 562.5 156.688 546.351 157.801 530.313C160.211 495.53 162.455 459.059 162.455 421.829C162.455 409.276 162.195 396.613 161.602 383.912C161.732 384.617 161.88 385.414 162.01 386.211ZM103.027 712.943C100.468 684.89 98.0574 651.757 99.5593 617.753C101.265 579.317 103.713 547.093 110.128 514.85C111.29 508.954 112.44 503.057 113.577 497.161C115.543 487.094 117.545 476.766 119.696 466.494C121.161 459.523 122.774 452.496 124.425 445.561C123.052 456.019 121.606 466.606 120.03 477.081C115.839 504.893 111.501 533.558 110.629 562.686C110.221 576.425 109.554 590.386 108.905 603.884V604.459C108.497 613.062 108.033 621.665 107.588 630.268C107.155 638.327 106.748 646.362 106.364 654.372C105.919 663.383 105.499 672.393 105.103 681.404C104.547 693.543 103.972 705.693 103.379 717.856C103.286 716.28 103.175 714.649 103.027 712.943ZM115.765 603.773C115.932 600.454 116.136 597.135 116.359 593.816C116.748 587.531 117.156 581.041 117.212 574.608C117.453 539.787 122.533 505.357 128.003 473.355C131.193 454.591 133.158 440.166 134.326 426.594C136.644 400.228 142.281 374.679 147.807 352.726L147.158 361.422C146.045 376.496 152.312 450.642 149.976 475.394L148.771 484.776C147.399 495.307 146.045 505.857 144.617 516.296L143.264 526.067C142.04 534.466 140.779 543.57 139.425 553.879C132.62 602.605 126.056 645.991 119.418 686.318C119.205 687.049 119.074 687.801 119.029 688.561L116.396 704.692C115.617 709.439 114.838 714.185 114.004 718.895C113.985 719.141 113.985 719.389 114.004 719.636L112.891 725.588C111.334 733.765 109.795 741.923 108.2 750.099C108.126 750.025 114.671 626.523 115.765 603.828V603.773ZM101.747 893.904C105.289 891.475 108.849 889.046 112.316 886.488C131.593 872.481 151.746 859.724 172.653 848.293C176.214 846.439 179.792 844.436 183.389 842.527C186.171 841.043 188.946 839.554 191.715 838.058L199.132 834.053C211.073 827.527 223.422 820.778 236.217 815.383C238.386 814.455 240.463 813.362 242.465 812.305C243.745 811.637 245.024 810.951 246.322 810.321C249.437 808.838 252.534 807.299 255.593 805.778C263.307 802.07 271.262 798.065 279.254 794.654C287.69 790.945 296.554 787.923 305.213 784.919L309.329 783.473C315.133 781.434 320.844 779.765 326.296 778.356C351.996 771.781 378.329 767.989 404.841 767.046C393.215 768.993 381.663 771.718 369.963 774.573L363.232 776.187C350.345 779.264 337.032 782.435 324.515 787.812C316.171 791.409 307.827 794.932 299.446 798.454C269.259 811.155 238.052 824.412 208.589 840.061C199.317 845.067 189.601 849.906 180.293 854.597C175.546 856.995 170.805 859.393 166.071 861.791C154.76 867.551 143.455 873.336 132.157 879.145L118.231 886.265C108.283 891.283 98.6034 896.816 89.2312 902.841C93.1807 899.782 97.5196 896.797 101.747 893.904ZM79.1998 921.289C96.4442 910.498 147.899 877.569 162.399 870.375L174.044 864.572C181.461 860.864 188.878 857.119 196.295 853.336C203.564 849.628 210.814 845.92 218.101 842.211L225.61 838.503C234.882 833.794 244.579 828.918 254.277 824.635C271.447 817.07 289.044 809.672 306.066 802.534L323.31 795.265C327.246 793.506 331.283 791.983 335.4 790.704C361.804 783.14 390.193 775.705 419.026 772.571C422.734 772.163 443.279 768.696 451.642 769.957C453.904 770.291 456.166 770.55 458.558 770.81C448.323 772.849 413.389 796.304 389.599 804.184C385.761 805.463 381.96 806.798 378.159 808.114C374.357 809.431 370.241 810.877 366.273 812.212L356.075 815.568C337.532 821.649 318.304 827.953 299.947 835.759C295.456 837.755 290.864 839.512 286.188 841.025C265.124 847.44 243.967 854.912 223.311 863.274L222.755 863.515C218.88 865.073 214.874 866.704 210.869 867.984C191.641 874.158 171.189 881.76 148.363 891.179L141.539 894.052C136.57 896.166 131.434 898.354 126.297 900.227C107.963 907.004 90.2249 915.296 73.2662 925.016L79.1998 921.289ZM72.0053 933.767C86.5079 925.199 101.617 917.701 117.212 911.333C127.262 907.309 137.423 903.045 147.232 898.91L161.454 892.792C163.493 891.957 165.552 891.141 167.628 890.363L172.616 888.509C197.636 879.325 222.65 870.159 247.657 861.012C252.794 859.158 257.967 857.304 263.14 855.598L273.394 852.187C279.569 850.147 285.966 848.033 292.215 845.771C302.914 841.933 313.575 838.003 324.219 834.072L351.198 824.19C356.334 822.335 361.489 820.574 366.662 818.813C370.686 817.441 374.71 816.068 378.733 814.641C382.164 813.417 385.613 812.231 389.062 811.025C398.648 807.688 408.568 804.239 418.173 800.401C432.061 794.839 445.987 788.906 459.578 783.177L477.564 775.575L478.102 775.352C479.493 774.777 480.865 774.184 482.293 773.721C483.875 773.198 485.553 773.034 487.206 773.239C483.498 774.777 480.234 776.112 477.027 777.614L473.67 779.172C463.658 783.863 453.274 788.683 443.261 793.782C436.919 796.99 430.541 800.401 424.385 803.683C417.376 807.391 410.126 811.303 402.913 814.808C381.978 825.246 359.023 835.481 332.693 846.087C328.057 847.941 323.255 849.572 318.749 851.074C314.243 852.576 310.127 853.837 305.769 855.19C296.869 857.934 287.672 860.753 278.901 864.461C261.508 871.636 243.782 876.272 225.648 880.777L223.663 881.278C203.267 886.339 182.184 891.568 162.474 899.967C147.64 906.308 131.971 911.574 116.896 916.654C111.018 918.656 105.141 920.64 99.2811 922.698C88.8787 926.324 78.7158 930.603 68.8531 935.51L72.0053 933.767Z" fill="#F5F5F5"/>
</g>
<defs>
<clipPath id="clip0_109_183">
<rect width="964" height="1170" fill="white" transform="translate(-76)"/>
</clipPath>
</defs>
</svg>
