<svg width="192" height="44" viewBox="0 0 192 44" fill="none" xmlns="http://www.w3.org/2000/svg">
<g clip-path="url(#clip0_50_139)">
<path d="M27.1634 36.707C24.0915 38.3959 17.8721 39.2413 15.1841 39.2413H10.5765V4.99151C10.6527 4.45392 10.8839 3.91633 11.2678 3.45581L13.0343 1.22932C13.1111 1.00531 13.1111 0.762085 13.0343 0.538067H1.13111C1.0543 0.762085 1.0543 1.00531 1.13111 1.22932L2.89756 3.45581C3.28148 3.83974 3.51127 4.37733 3.58882 4.99151V38.6267C3.58882 39.1642 2.9751 40.0092 2.66729 40.3156L1.04977 41.7747C0.973646 42.082 0.973646 42.3123 1.04977 42.6196H26.7019L28.161 36.7061C27.8327 36.6294 27.4912 36.6294 27.1629 36.7061L27.1634 36.707Z" fill="white"/>
<path d="M70.2444 20.6568C69.9371 9.59862 61.4131 0 49.7407 0C46.5923 0 43.4438 0.691257 40.6065 2.07329C33.153 5.75936 27.7009 13.9764 27.7009 22.2648C27.7009 33.9372 37.3 43.1524 48.2046 43.1524C51.0457 43.1524 53.8103 42.7685 56.3398 41.6933C64.3261 38.3146 70.086 30.9424 70.2392 20.6521L70.2444 20.6568ZM41.8305 4.91444C54.9621 2.30356 63.4094 11.6724 63.4094 22.8843C63.4094 28.8786 60.7985 35.0942 55.6533 38.934C43.2897 40.7004 34.8423 32.2531 34.8423 20.4275C34.8423 14.3608 36.839 8.60146 41.8358 4.91539L41.8305 4.91444ZM100.04 37.3935C97.5055 38.6224 90.1334 39.2366 87.4459 39.2366H83.4525V24.2668H90.748L93.0516 25.6493C93.3589 25.7254 93.5892 25.7254 93.8965 25.6493V18.5845C93.5892 18.5084 93.3589 18.5084 93.0516 18.5845L90.671 19.5826H83.53V3.91633H93.9013L99.4304 5.14518C99.7328 5.22126 100.049 5.22126 100.352 5.14518L99.3481 0.537591H74.0832C74.0064 0.761609 74.0064 1.00483 74.0832 1.22885L75.8496 3.45533C76.2335 3.83926 76.4681 4.37685 76.5409 4.99104V38.6262C76.5409 39.1638 75.9224 40.0087 75.5427 40.3151L73.9252 41.7742C73.8491 42.0815 73.8491 42.3118 73.9252 42.6191H99.574L101.033 37.3973C100.705 37.3206 100.363 37.3206 100.035 37.3973L100.04 37.3935ZM189.888 37.3935C187.354 38.6224 179.982 39.2366 177.294 39.2366H173.301V24.2668H180.596L182.9 25.6493C183.207 25.7254 183.437 25.7254 183.745 25.6493V18.5845C183.437 18.5084 183.207 18.5084 182.9 18.5845L180.519 19.5826H173.377V3.91633H183.748L189.278 5.14518C189.585 5.2213 189.896 5.2213 190.276 5.14518L189.278 0.537591H164.013C163.936 0.761609 163.936 1.00483 164.013 1.22885L165.779 3.45533C166.163 3.83926 166.398 4.37685 166.47 4.99104V38.6262C166.47 39.1638 165.852 40.0087 165.549 40.3151L163.931 41.7742C163.855 42.0815 163.855 42.3118 163.931 42.6191H189.58L191.039 37.3973C190.502 37.3212 190.194 37.3212 189.888 37.3973V37.3935ZM161.014 0.537591H151.031C150.954 0.761609 150.954 1.00483 151.031 1.22885L152.874 2.99529C153.258 3.37921 153.719 3.9168 153.565 4.4544L144.734 31.8692L135.902 0.618468C134.367 0.464802 132.831 0.464802 131.371 0.618468L120.774 31.7964L113.479 4.76458C113.325 4.38066 113.403 3.91966 113.632 3.53573L115.706 1.30925C115.782 1.08523 115.782 0.84201 115.706 0.617992H103.419C103.342 0.84201 103.342 1.08523 103.419 1.30925L105.492 3.53573C105.799 3.91966 106.029 4.30359 106.183 4.76458L116.704 42.6234C117.241 42.7771 120.39 42.7771 121.081 42.6234L131.678 11.0615L140.893 42.6234C142.352 42.7771 143.811 42.7771 145.194 42.6234L157.481 5.37591C157.635 4.83832 157.942 4.30073 158.403 3.84021L161.014 1.30592C161.09 0.998587 161.09 0.768327 161.014 0.538066L161.014 0.537591Z" fill="white"/>
</g>
<defs>
<clipPath id="clip0_50_139">
<rect width="190.043" height="43.1576" fill="white" transform="translate(0.996338)"/>
</clipPath>
</defs>
</svg>
