<svg xmlns="http://www.w3.org/2000/svg" viewBox="0 0 273.03 272.96"><title>Loewe Anagram logo - Brandlogos.net</title><path d="M409,647.06a44.47,44.47,0,0,1-33.28-39.38c-1.35-17.77,6.82-34.1,22.2-44.37,6.93-4.63,18-8.62,24-8.62,2,0,3.62-.26,3.62-.57,0-1-4.3-9-4.85-9-.3,0-5.39,1.44-11.31,3.2-13.21,3.93-20.51,4.15-25.43.79-5.52-3.74-7.75-7.54-8.2-13.83-.53-7.43,2.59-13,9.29-16.59,9.18-4.92,22.92-1.24,34.35,9.23l6.09,5.58,29.64-8.3c33.76-9.45,38.33-10,44.46-5.31,5,3.81,7.41,8.58,7.41,14.56a16.51,16.51,0,0,1-6.84,13.9l-3.29,2.35-3.65-3.54c-2-1.94-3.65-3.82-3.65-4.16s1.43-1.17,3.18-1.83c6.25-2.36,6.26-10.52,0-14-2.44-1.37-5.16-.81-31.88,6.6-16.06,4.46-29.38,8.27-29.58,8.47s1.1,3.09,2.91,6.42c2.73,5,3.74,6,6.15,6,5.22,0,18.63,4.33,27.33,8.82,12.32,6.37,25.14,19.36,31.26,31.69a74.34,74.34,0,0,1,8.37,30c.61,7.18.39,8.87-1.66,13.1-3.37,7-8.31,9.76-17.14,9.66-12.51-.14-21.41-5.9-30.5-19.78-6.67-10.16-10.13-18.36-26.23-62-1.23-3.34-3-3.59-11.75-1.74-13.8,2.91-25.18,11.4-30.95,23.12-3.12,6.34-3.5,8.08-3.5,16.19,0,7.27.48,10.07,2.41,14a35.86,35.86,0,0,0,17.07,17.2c6.17,3,8.2,3.51,15.15,3.48,6.18,0,9-.56,12.46-2.38,4.24-2.25,4.66-2.28,9.93-.71,3.06.9,5.33,2.16,5.1,2.83-.71,2.14-12.54,8-18.66,9.21a41.58,41.58,0,0,1-20-.2ZM495,635.83c3.65-3.65,3.93-7.19,1.51-18.75-1.91-9.07-7.35-20.34-13.69-28.35-8.67-11-24.84-21-36.81-22.95l-4.18-.67,6.87,18.52c13.08,35.3,21.83,49.54,32.89,53.6C488.24,639.68,491.45,639.34,495,635.83Zm-90.79-96.17c4.44-1.23,8.47-2.61,8.93-3.06,1.51-1.41-7-7.49-12.9-9.21-6.57-1.93-11.29-1.21-13.58,2s-2,6.34.61,9.66c2.77,3.5,6,3.6,16.93.57Zm124.1,107.77c-4.79-1.46-9.66-6.74-11.11-12-2.61-9.57,2.24-31.23,9.9-44.29,5.56-9.49,19.13-22.31,29.15-27.56,8.61-4.51,22.06-8.87,27.34-8.87,2.38,0,3.46-1,6.26-5.93,1.86-3.26,3.17-6.15,2.91-6.42s-13.64-4.13-29.71-8.59c-26.66-7.4-29.44-8-31.86-6.62-6.07,3.42-6,11.76.14,14.08,1.68.64,3,1.43,3,1.77s-1.63,2.21-3.62,4.13c-3.54,3.43-3.68,3.46-6.39,1.69-4.58-3-7.07-8.11-7.05-14.51,0-6.77,2.55-11.67,7.72-14.81,6.94-4.24,8.58-4,42.24,5.3l31.63,8.78,5.42-5.27c6.85-6.67,15.1-10.74,23.37-11.53,5.38-.51,7.16-.22,11.19,1.86,9,4.63,12.48,16.56,7.18,24.42-6.2,9.21-13.89,10.5-31.26,5.27-5.81-1.76-10.84-3.18-11.17-3.2-.64,0-5.27,7.83-5.27,8.93,0,.36,1.63.65,3.62.65,5.76,0,16.78,3.88,23.69,8.34,8.2,5.31,13.64,11.62,18.29,21.28,6.9,14.36,5.76,31.85-2.92,44.46a45.41,45.41,0,0,1-27.53,18.55,37.92,37.92,0,0,1-20-.45c-6.07-1.57-17.56-7.57-17.56-9.17,0-.42,2.47-1.49,5.5-2.38,5.25-1.54,5.7-1.51,9.87.7,3.34,1.77,6.25,2.31,12.38,2.33,6.94,0,9-.45,15.15-3.48a35.23,35.23,0,0,0,18-19.26c6.56-17.45-3.17-38.7-21.72-47.46-6.29-3-17.71-5.61-20.18-4.66-.92.36-3.45,5.34-5.66,11.11-16.73,43.91-21.74,54.27-30.53,63.15-8,8-21.58,12.35-30.44,9.65Zm13.8-10.16c6.7-2.28,14.43-10.7,20.09-21.89,2.49-4.92,8-18.08,12.18-29.22,8.68-23,8.76-22.5-2.8-18.63-22.28,7.46-39.17,26.77-44,50.37-2.42,11.76-2.24,14.28,1.43,17.94s6.15,3.81,13.14,1.43Zm94.32-97.69a7.72,7.72,0,0,0-3.92-13.14c-4.63-1-13.72,2.05-18.67,6.29-4.77,4.09-5.06,3.74,5.87,7,9.4,2.78,13.67,2.75,16.72-.11Zm-247.6-33.06c-10.8-2.42-16.79-16-11.14-25.31,6.34-10.39,14.06-11.34,36.12-4.44,7.38,2.3,7.12,2.39,10.21-3.34,2.08-3.85,2-4.05-1.37-4.07-14-.06-33.71-12.69-41-26.24-17.4-32.25,5.08-69.45,40.75-67.38,8.13.47,18.3,4.16,24,8.7,1.82,1.46,1.91,1.85.56,2.73-3.62,2.39-9.41,2.41-15.94,0-16.06-5.86-34.55,2-42.43,18-2.53,5.14-3,7.33-3,15.09s.47,10.05,2.87,15.18c3.43,7.32,11,15.16,18.71,19.26,5.61,3,19.76,6.62,22.22,5.67.73-.28,3.31-5.7,5.75-12,17-44.39,21.47-53.57,30.39-62.49,6.49-6.49,13-9.51,21.78-10.05,6-.37,7.77,0,11.36,2,5.13,3,9.07,10,9.06,16.27,0,11.75-4.63,28.18-10.84,38.76-4.58,7.8-17.9,21.07-25.79,25.71-7.52,4.43-20.55,9.15-28.12,10.18-5.39.73-5.69,1-8.92,6.59-1.83,3.2-3.17,6-3,6.17s13.53,4,29.61,8.45c32,8.89,33.06,9,36.14,2.55,1.8-3.74-.06-8.13-4.32-10.18-3.67-1.76-3.65-2.33.17-6s6.17-3.12,10.16,1.62c7.27,8.65,4.91,22.11-4.77,27.11-5.69,2.94-12.62,1.9-42.41-6.42-15.77-4.4-29.46-8-30.4-8a4,4,0,0,0-2.89,2.18c-1.86,3.48-13.17,11.23-18.25,12.51-7.5,1.91-10.8,2.14-15.32,1.13Zm10.81-9.94c5.3-1.57,14.23-7.18,14.23-8.93,0-.5-4.8-2.19-10.66-3.78-11.2-3-13.53-2.81-16.78,1.4-3,3.87-.37,10.16,5,12.13,2.39.9,2.41.89,8.17-.82ZM455,455.39c12.3-4.6,26.29-16.36,33.39-28.06,5.53-9.12,8.87-20.12,9.06-29.77.14-7.58-.08-8.54-2.36-10.39-3.51-2.86-9.34-2.58-16,.78-10.11,5-17.56,17.9-30.37,52.47l-6.87,18.5,3.82-.71a73.32,73.32,0,0,0,9.38-2.81Zm170,51.25c-6.84-1.07-14.81-5.39-20.51-11.08-2.67-2.67-5.44-4.85-6.17-4.85s-14.22,3.6-30,8c-31.2,8.7-37.27,9.52-43.25,5.87-10.47-6.39-10.47-23.94,0-29.81,2.72-1.52,3-1.44,6.11,1.51,4,3.82,4,4.37.33,6.14-4.26,2-6.12,6.43-4.32,10.18,3.08,6.42,4.12,6.34,36.15-2.52,16.08-4.44,29.39-8.25,29.6-8.44s-1-2.87-2.67-6l-3-5.61-8.54-1.82c-26.64-5.69-46.31-21.55-56.4-45.51-3.42-8.14-6.4-24.81-5.55-31.07,1.8-13.16,13-19,27.92-14.56C560,381.7,569.34,395.87,585,438.19c4,10.69,7.78,20.24,8.5,21.22,1.17,1.6,2,1.65,8.37.45,21.22-4,35.55-18.71,36.73-37.66.61-9.83-2.18-17.7-8.9-25.18-9.6-10.67-23.75-14.37-37.05-9.68-6.28,2.21-7.36,2.31-11.84,1.06-2.72-.76-4.75-1.91-4.55-2.56s4-3.06,8.53-5.36a41.33,41.33,0,0,1,32.56-2.89c26.15,7.94,38.69,37.75,26.35,62.69a51.59,51.59,0,0,1-21.77,22.62c-7.12,3.79-15.72,6.49-20.65,6.53-3.54,0-3.57.3-.62,5.22l2.44,4.07c.06.12,4.91-1.21,10.75-3,13.19-4,21.21-4.32,26.26-1.2a18.09,18.09,0,0,1,6,23.86c-4,7.07-11.06,9.82-21.19,8.23Zm9.71-10.1a7.8,7.8,0,0,0-.11-13.87c-3-1.57-3.88-1.49-13.84,1.27-5.84,1.62-10.61,3.26-10.61,3.67,0,1.54,8.27,6.9,13.33,8.65,6.59,2.28,7.33,2.3,11.23.28Zm-53.48-40.77c-.62-1.62-3.79-10.13-7-18.92-7.27-19.64-13.86-33.51-19.2-40.47-7.29-9.49-20.31-14.11-25.7-9.09-3.29,3.06-3.87,6.57-2.47,15,2.59,15.69,9,27.89,20.63,39,7.83,7.49,14.68,11.73,24.28,15s10.92,3.2,9.49-.51Z" transform="translate(-375.48 -375.52)"/></svg>