<svg width="491" height="671" viewBox="0 0 491 671" fill="none" xmlns="http://www.w3.org/2000/svg">
<path d="M67.763 -92.7151L67.6107 -92.6073C66.326 -91.512 66.6965 -90.1516 66.9314 -89.2528L66.996 -88.9977C67.606 -86.5506 68.1856 -84.0976 68.7833 -81.6324C70.1687 -75.8732 71.592 -69.9168 73.2832 -64.1218C75.0889 -57.8925 77.2127 -51.6454 79.2777 -45.6231C80.0675 -43.3047 80.8602 -40.9712 81.6348 -38.65C82.4391 -36.2557 83.2587 -33.8644 84.0781 -31.4731C84.7795 -29.4525 85.4628 -27.444 86.1489 -25.4204C91.04 -10.8789 97.546 2.56714 105.482 14.5282C111.515 23.6133 119.726 35.3645 129.828 45.5741C131.953 47.7156 134.04 49.9114 136.125 52.092C138.564 54.6452 141.078 57.2626 143.624 59.7955C145.024 61.1947 146.571 62.4559 148.049 63.6831C148.87 64.3595 149.692 65.0359 150.486 65.7333C151.337 66.4827 152.037 67.1823 152.628 67.8871C153.588 69.0403 154.533 70.1965 155.478 71.3526C156.897 73.0945 158.375 74.9034 159.885 76.6278C169.04 87.0658 178.25 97.4619 187.459 107.858C188.384 108.908 189.333 109.922 190.297 110.933C190.354 110.985 190.396 111.039 190.453 111.091C186.669 108.576 182.869 106.063 179.084 103.547C170.954 98.1348 162.538 92.5416 154.232 87.116C141.181 78.5879 127.485 72.3693 113.558 68.6333C100.28 65.0874 88.0162 63.062 76.0865 62.4512C71.6556 62.2297 67.2305 62.0385 62.7931 61.8655L58.0378 61.6746L57.6714 61.6503C56.8569 61.586 55.7395 61.501 54.8494 62.5208L54.739 62.6835C54.3053 63.4586 54.3666 64.1075 54.4935 64.5237C54.6703 65.119 55.1116 65.6165 55.7363 65.9216C59.185 67.6681 62.1726 70.2107 65.0489 72.6645C66.7789 74.1423 68.5812 75.6691 70.4787 77.0361L71.5388 77.8084C73.6923 79.3624 75.9 80.9532 78.2153 82.3661C84.7995 86.3595 93.4821 91.6185 102.242 96.7055C113.516 103.262 126.313 108.567 141.372 112.952C150.567 115.627 159.825 118.637 168.779 121.532C176.711 124.103 184.897 126.768 193.037 129.189C194.889 129.747 196.751 130.271 198.613 130.796C201.041 131.479 203.471 132.178 205.88 132.928C207.436 133.417 209.007 133.981 210.514 134.542C211.698 134.976 212.882 135.41 214.094 135.823C215.825 136.404 217.36 137.353 218.896 138.805C229.605 148.898 241.275 158.179 252.56 167.171L254.64 168.833C255.16 169.253 278.218 187.159 278.218 187.159L278.396 187.267C279.531 187.773 280.649 188.44 281.71 189.212C282.607 189.874 283.502 190.521 284.396 191.167C286.971 193.034 289.649 194.944 292.058 197.094C293.006 197.935 294.115 198.556 295.186 199.138C295.82 199.488 296.471 199.851 297.068 200.256C321.38 216.664 345.677 233.075 369.965 249.519C371.972 250.881 373.956 252.373 375.871 253.831C376.772 254.508 377.657 255.188 378.587 255.86L386.404 261.363C387.029 261.668 387.578 261.988 388.087 262.347C391.852 265.008 395.63 267.651 399.405 270.279C404.851 274.081 410.481 278.021 415.966 281.941C423.352 287.244 431.067 292.956 438.893 298.914C441.765 301.101 444.591 303.454 447.323 305.731C448.948 307.072 450.561 308.43 452.198 309.753C460.237 316.252 469.527 323.864 478.161 332.153C489.337 342.88 500.311 353.536 510.74 363.809C521.808 374.714 533.492 387.106 546.436 401.727C555.868 412.379 564.922 423.686 573.681 434.608L573.906 434.88C579.649 442.039 587.005 451.625 592.945 462.191C595.712 467.12 599.196 471.596 601.895 474.933C605.417 479.277 608.745 484.177 611.777 489.495C612.416 490.615 613.073 491.748 613.712 492.868C614.399 494.074 615.098 495.261 615.785 496.467C613.615 494.004 611.46 491.538 609.332 489.051C598.658 476.591 588.762 465.981 579.08 456.65C563.263 441.4 546.927 427.303 530.519 414.714C516.248 403.761 504.932 395.923 493.828 389.272C493.24 388.912 492.674 388.502 492.087 388.063C491.427 387.576 490.732 387.064 489.99 386.64C488.56 385.828 487.106 385.053 485.652 384.277C483.882 383.326 482.06 382.354 480.305 381.321C473.69 377.412 465.2 371.928 458.234 364.295C457.54 363.547 456.742 362.914 455.981 362.304C455.668 362.065 455.37 361.824 455.069 361.567C454.786 361.322 454.479 361.113 454.184 360.887C453.651 360.485 453.141 360.126 452.791 359.69L451.948 358.656C450.379 356.707 448.754 354.706 447.465 352.578C444.195 347.163 440.937 341.48 437.785 335.697C433.144 327.147 427.395 317.159 420 307.862C414.326 300.737 408.443 294.817 402.022 289.785C394.135 283.588 384.967 277.934 373.112 271.961C372.835 271.825 372.521 271.665 372.158 271.577C370.804 271.239 369.823 271.867 369.453 273.306L369.35 273.672L369.795 274.436C370.007 274.804 370.243 275.215 370.51 275.62C370.89 276.208 371.267 276.781 371.644 277.354C372.329 278.387 372.999 279.422 373.627 280.482C376.053 284.611 378.482 288.754 380.896 292.901C383.121 296.722 385.362 300.54 387.6 304.343C390.376 309.065 393.729 313.599 397.572 317.818L410.12 331.601C416.374 338.474 423.211 345.266 430.435 351.779C434.654 355.58 438.363 358.85 442.379 361.667C438.852 360.172 435.326 358.676 431.796 357.165C423.372 353.587 414.961 349.991 406.525 346.43L406.25 346.31C401.935 344.477 397.455 342.598 392.975 340.97L384.374 337.866C371.209 333.103 357.604 328.173 344.125 323.58C342.24 322.935 340.37 322.286 338.5 321.637C337.435 319.938 336.177 317.803 335.072 315.891C333.647 313.459 332.948 312.271 332.495 311.713L332.346 311.427C332.119 310.983 331.892 310.539 331.727 310.083L329.492 306.625C329.216 306.332 328.936 306.024 328.66 305.731L325.753 302.622L325.756 302.637C321.287 297.862 317.778 294.16 317.778 294.16L316.843 292.971C316.036 291.961 315.122 290.799 314.235 289.616C311.043 285.351 307.164 280.368 302.644 275.822C299.468 272.624 296.769 270.026 294.083 267.583C292.063 265.736 289.967 263.825 287.619 262.324C279.237 256.992 271.359 253.309 263.554 251.075C256.167 248.965 250.621 246.944 245.569 244.545C245.24 244.388 244.912 244.403 244.646 244.407C244.567 244.406 244.476 244.424 244.364 244.414L243.858 244.4L242.441 246.449L242.743 246.958C242.883 247.198 243.024 247.439 243.161 247.664C243.466 248.188 243.776 248.742 244.157 249.251L244.541 249.775C245.796 251.485 247.078 253.253 248.452 254.925C252.849 260.312 257.529 266.023 262.269 271.643C265.768 275.787 268.961 279.485 272.789 282.638C281.176 289.558 290.45 295.443 300.359 300.121C304.01 301.86 307.842 303.88 312.757 306.714C315.869 308.509 318.882 310.528 322.209 312.785C324.287 314.196 326.454 315.653 328.294 317.378C328.619 317.677 328.928 317.98 329.235 318.267C314.367 312.823 300.724 307.208 287.658 301.152C275.111 295.343 261.702 288.976 248.587 281.765C245.984 280.328 243.376 278.783 240.856 277.283L239.559 276.509C239.062 276.211 238.58 275.831 238.184 275.404L237.983 275.175C236.087 273.163 234.147 271.08 232.298 268.98C229.342 265.614 226.416 262.242 223.471 258.857C221.19 256.226 218.909 253.596 216.616 250.983C216.013 250.296 215.367 249.634 214.721 248.971C214.426 248.665 214.117 248.363 213.82 248.042L206.779 241.006L206.697 240.99C206.45 240.77 205.937 240.223 205.582 239.851C205.249 239.506 204.931 239.158 204.657 238.88L202.536 236.753L201.821 235.978C201.284 235.389 200.746 234.799 200.181 234.231C184.756 218.481 170.629 207.375 155.71 199.283C142.055 191.877 128.826 186.371 115.291 182.466C107.997 180.354 100.611 178.087 93.4725 175.883C90.1632 174.865 86.869 173.844 83.5626 172.841C83.3118 172.763 83.0639 172.7 82.7798 172.613L81.8849 172.375L80.0014 173.711L80.0785 174.278C80.0988 174.385 80.104 174.494 80.1091 174.603C80.1246 174.93 80.1481 175.382 80.4693 175.745L80.7305 176.041C81.43 176.819 82.1656 177.622 83.0053 178.311C89.3557 183.466 95.2735 188.908 101.278 194.475C108.624 201.296 116.656 207.513 124.417 213.546L128.391 216.639C132.828 220.1 137.479 223.441 141.97 226.687C143.319 227.655 144.668 228.624 146.021 229.608C150.313 232.719 155.115 235.7 160.713 238.734L162.345 239.617C169.119 243.291 176.123 247.094 183.314 250.311C185.207 251.16 187.079 252.232 188.883 253.271L189.643 253.708C195.312 256.948 200.554 259.516 205.697 261.567C211.045 263.705 216.37 266.382 221.879 269.685L221.054 269.402C212.274 266.427 203.194 263.367 193.933 261.333C184.213 259.199 174.182 257.989 164.788 256.987C149.471 255.357 132.867 255.311 114.033 256.839C105.143 257.566 94.8156 258.504 84.7701 260.506C82.33 260.988 79.8742 261.553 77.4942 262.103C76.1222 262.413 74.7501 262.722 73.3932 263.029C72.0485 263.318 70.701 263.592 69.3231 263.871L66.7646 264.392C66.7646 264.392 66.8337 267.383 66.8938 267.451C67.1252 267.674 67.3986 267.952 67.8403 268.04C68.3788 268.142 68.9266 268.21 69.4745 268.278C70.3765 268.388 71.2149 268.495 72.0158 268.735L73.2548 269.127C76.2981 270.071 79.4259 271.045 82.3698 272.29C100.361 279.999 119.73 284.958 139.916 287.04C146.688 287.742 153.669 288.057 161.226 288.011C167.653 287.976 173.281 287.717 178.455 287.214C186.672 286.428 194.76 284.47 202.562 282.584L204.818 282.042C210.155 280.753 215.733 279.654 221.865 278.653C225.557 278.057 229.548 278.362 234.461 279.624C235.075 279.79 235.714 280.171 236.254 280.524C238.424 281.917 240.597 283.326 242.754 284.737C246.943 287.475 251.289 290.292 255.596 292.991C258.563 294.846 261.71 296.414 264.658 297.847C271.466 301.121 278.287 304.377 285.105 307.618C288.479 309.222 291.838 310.828 295.212 312.432C287.556 310.893 278.937 309.334 270.255 308.683C264.145 308.233 259.465 308.027 255.075 308.018C247.822 308.007 241.433 308.16 235.525 308.52C226.085 309.084 217.076 310.746 209.497 312.322C192.731 315.783 175.352 321.626 154.807 330.734C151.109 332.369 147.284 333.919 143.591 335.413C142.235 335.971 140.861 336.517 139.505 337.076L139.271 337.168C138.307 337.557 136.86 338.132 136.946 340.224L136.965 340.818L137.527 341.041C137.629 341.084 137.735 341.142 137.837 341.186C138.206 341.383 138.643 341.613 139.186 341.572C147.283 340.982 155.324 342.148 163.56 343.513C167.394 344.148 171.275 344.868 175.042 345.563C180.294 346.539 185.724 347.545 191.095 348.326C197.923 349.315 204.776 349.781 211.163 350.116C219.125 350.542 226.186 350.701 232.759 350.606C239.816 350.498 246.971 349.994 254.029 349.477C257.009 349.268 260.006 348.899 262.911 348.547C264.403 348.372 265.878 348.184 267.373 348.024C276.188 347.076 285.057 345.252 293.738 342.615C297.471 341.492 301.189 340.371 304.925 339.263C308.913 338.075 312.886 336.89 316.868 335.671C317.968 335.335 319.041 334.941 320.116 334.562C320.955 334.26 321.794 333.958 322.651 333.668C327.065 332.241 331.482 330.829 335.917 329.43L337.06 329.07C338.706 328.55 340.36 328.643 342.435 329.378C348.054 331.37 353.524 333.893 358.114 336.098C362.167 338.043 366.447 339.615 370.592 341.134L373.534 342.206C381.536 345.142 389.794 348.186 398.028 350.935C406.7 353.837 415.346 357.263 423.705 360.586L427.381 362.037C429.694 362.947 431.975 364.099 434.187 365.217C435.197 365.732 436.205 366.231 437.21 366.715L480.666 388.96C485.047 393.359 489.778 396.795 494.25 399.855C494.629 400.113 494.981 400.392 495.288 400.679C500.752 405.721 507.224 410.034 516.263 414.69C517.102 415.127 517.922 415.552 518.624 416.094C520.997 417.89 523.482 419.616 525.889 421.263C529.676 423.873 533.593 426.584 537.137 429.649C538.361 430.704 539.762 431.695 541.333 432.589C544.37 434.32 547.204 436.31 549.749 438.513C550.219 438.911 550.703 439.305 551.209 439.649C559.253 445.187 566.297 451.83 573.992 459.323C587.966 472.912 599.093 484.782 608.963 496.656C613.07 501.595 616.632 506.151 619.846 510.617C624.837 517.542 629.789 524.679 634.573 531.596L637.394 535.65C641.173 541.092 644.604 547.183 647.607 553.75C650.419 559.897 652.782 566.161 654.924 572.011L655.191 572.746L664.659 570.934L663.044 567.594C659.962 561.184 656.771 554.544 653.06 548.302C651.602 545.86 650.38 543.341 649.46 541.409C645.446 532.929 640.693 524.699 636.105 516.753C634.603 514.163 633.112 511.554 631.622 508.945C626.892 500.585 622.254 493.121 617.452 486.112C615.399 483.108 613.376 480.019 611.416 477.012C608.412 472.412 605.313 467.641 601.993 463.118C592.409 450.025 582.014 436.065 570.905 422.651C570.392 422.025 569.894 421.397 569.397 420.769C568.689 419.866 567.966 418.966 567.219 418.102C564.713 415.2 563.306 412.041 562.909 408.404C562.658 406.109 562.39 403.801 562.124 401.508C561.597 397.032 561.06 392.416 560.676 387.865C559.537 374.351 560.778 359.799 564.472 343.347C567.413 330.201 570.368 316.218 573.479 300.585C575.028 292.817 575.248 284.517 574.143 274.473C573.693 270.312 573.095 266.117 572.507 262.061C572.29 260.514 572.072 258.967 571.855 257.42C570.851 250.125 569.03 242.908 567.267 235.915L566.718 233.708C565.507 228.859 564.117 223.982 562.79 219.265L562.104 216.833C561.707 215.414 561.167 213.992 560.509 212.608C559.687 210.862 558.522 209.952 556.954 209.812L556.827 209.805L556.705 209.828C554.717 210.209 554.137 211.861 553.678 213.16C552.611 216.133 551.732 218.771 550.969 221.197C545.466 238.956 539.385 257.154 532.918 275.301C530.002 283.488 526.984 291.962 525.48 300.87C524.138 308.897 522.879 317.443 523.605 326.002C524.875 341.017 528.734 355.426 535.061 368.843C539.147 377.53 544.164 385.913 548.544 393.097C549.527 394.702 550.496 396.309 551.446 397.905C545.889 390.899 539.604 384.521 533.477 378.316L531.74 376.557C530.199 374.996 528.66 373.45 527.107 371.907C522.422 367.235 517.584 362.42 513.245 357.258C507.745 350.713 501.115 343.111 493.749 336.263C490.748 333.487 488.043 331.189 485.438 329.25C482.906 327.359 480.836 325.176 479.089 322.537C474.866 316.173 472.089 310.539 470.379 304.81C469.76 302.726 469.017 300.651 468.303 298.648C467.521 296.454 466.707 294.172 466.068 291.903C465.126 288.623 464.377 285.039 463.747 280.928C463.198 277.321 462.805 273.621 462.416 270.031L462.064 266.795C460.486 252.468 459.947 240.775 460.387 230.01C460.6 224.873 460.604 219.556 460.433 214.225C459.998 200.859 457.128 187.504 451.672 173.385C449.682 168.245 447.528 163.073 445.439 158.078C444.533 155.892 443.615 153.724 442.724 151.535L442.632 151.301C442.3 150.468 441.748 149.064 439.86 149.063L439.609 149.064L439.396 149.183C437.919 150.017 437.97 151.517 438.017 152.499L438.026 152.796C438.107 156.257 437.713 159.95 436.799 164.136C435.996 167.829 435.175 171.509 434.339 175.193C433.451 179.185 432.546 183.165 431.691 187.166L431.143 189.725C429.593 196.911 427.98 204.345 426.589 211.705C424.914 220.457 425.565 229.282 426.512 237.516C427.526 246.351 430.694 254.6 433.749 262.588L434.258 263.938C436.207 269.023 438.367 274.225 440.859 279.851C443.349 285.462 446.871 290.466 449.978 294.621C454.269 300.359 458.818 305.796 463.016 310.639C462.583 310.266 462.135 309.896 461.699 309.507L460.026 308.081C454.595 303.458 449.165 298.835 443.706 294.233L442.954 293.591C439.335 290.54 435.582 287.373 431.799 284.369C428.795 281.987 426.282 280.203 423.895 278.741C417.944 275.098 411.823 271.551 405.602 267.976L395.632 261.5C395.424 261.398 395.219 261.312 395.013 261.225C394.549 261.015 394.102 260.818 393.725 260.575L393.08 260.164C390.322 258.411 387.456 256.585 384.711 254.735L382.78 253.437C375.34 248.428 367.648 243.247 360.143 238.061C352.187 232.569 344.902 226.397 338.835 221.078C335.887 218.496 332.808 215.641 330.334 212.245C327.434 208.27 325.417 204.393 324.217 200.423C322.082 193.376 319.66 185.409 318.354 177.432C318.086 175.785 317.888 174.014 317.744 172.028C316.775 158.419 316.442 144.845 316.264 134.545C316.126 127.005 315.765 119.367 315.417 111.962L315.19 107.161C314.629 94.8579 311.302 82.738 305.302 71.1141C304.005 68.6098 302.72 66.0874 301.438 63.5801C298.746 58.307 295.973 52.8606 293.12 47.571C291.724 44.9598 290.053 42.4796 288.443 40.0666C287.851 39.1891 287.273 38.3087 286.696 37.4283C286.202 36.6576 285.269 35.2319 283.371 35.7525L282.863 35.8968L282.726 36.4107C282.698 36.5105 282.667 36.595 282.636 36.6796C282.521 36.9847 282.366 37.4076 282.535 37.8786C283.937 41.6685 283.487 45.4824 282.999 49.5082L282.824 50.9732C281.377 63.6292 278.23 75.8712 274.848 88.3628C272.573 96.7731 271.892 105.13 272.831 113.24C273.552 119.472 274.28 125.247 275.042 130.874C275.988 137.787 278.021 144.382 279.899 149.921C281.159 153.627 282.483 157.589 283.675 161.514C287 172.392 292.397 182.102 299.737 190.37C305.293 196.637 311.501 202.275 317.5 207.733C318.261 208.421 319.007 209.112 319.755 209.818C318.211 208.903 316.647 207.959 315.128 207.008C310.926 204.367 306.701 201.605 302.605 198.944L298.509 196.284C297.485 195.615 296.56 194.974 295.681 194.324C291.519 191.235 287.369 188.129 283.208 185.04L279.097 181.973L278.79 181.765C278.609 181.642 278.428 181.519 278.326 181.397C276.186 178.928 273.603 177.016 271.091 175.153C270.028 174.366 268.965 173.578 267.942 172.752C265.504 170.78 262.941 168.896 260.468 167.073C259.387 166.273 258.309 165.488 257.243 164.686C257.117 164.6 256.99 164.514 256.864 164.428C256.755 164.354 256.65 164.296 256.553 164.204C252.716 161.085 248.882 157.981 245.041 154.847C244.891 154.718 244.756 154.587 244.605 154.458C244.317 154.183 244.007 153.881 243.6 153.644C240.175 151.61 237.52 148.831 234.69 145.88C233.924 145.083 233.155 144.271 232.377 143.492C231.25 142.37 230.08 141.273 228.913 140.191C227.954 139.289 226.98 138.39 226.051 137.483C223.4 134.891 220.737 131.988 219.104 128.305C218.64 127.277 217.954 126.323 217.163 125.641C216.107 124.726 215.384 123.496 214.954 121.911L214.643 120.775C213.966 118.309 213.275 115.768 212.869 113.234C211.203 102.967 211.114 92.1468 212.589 80.1303C214.193 67.1453 214.96 57.1833 215.089 47.8311C215.177 41.2236 214.492 34.2764 212.931 25.9555C210.231 11.7654 205.595 -2.51047 198.669 -17.5749C197.865 -19.3086 196.958 -21.0068 196.075 -22.6623C195.46 -23.8188 194.846 -24.9752 194.262 -26.1375C192.012 -30.6616 189.792 -35.1915 187.554 -39.7336L185 -44.9389C184.896 -45.1549 184.807 -45.3738 184.703 -45.5898C184.477 -46.1128 184.233 -46.6481 183.885 -47.1478C183.565 -47.5898 183.156 -47.9204 182.728 -48.2633C182.542 -48.4164 182.322 -48.5788 182.096 -48.7715L181.305 -49.4537L180.716 -48.586C180.569 -48.3691 180.419 -48.1673 180.281 -47.9836C179.956 -47.544 179.64 -47.1375 179.454 -46.63C179.206 -45.9534 179.206 -45.2141 179.243 -44.529C179.494 -40.0942 178.969 -35.6052 178.482 -31.2492C178.279 -29.433 178.058 -27.629 177.903 -25.8063C177.213 -17.8252 175.678 -9.82381 174.183 -2.09782C173.813 -0.17084 173.443 1.75614 173.087 3.68021C171.514 12.1448 170.749 20.4707 170.831 28.4612C170.847 29.8581 170.799 31.2515 170.766 32.642L170.726 34.2384C170.515 42.5052 172.076 50.4171 173.691 57.784C175.375 65.5151 177.612 72.3539 180.493 78.6921C181.719 81.3988 182.789 84.1982 183.672 87.0021C185.59 93.1626 188.457 98.9371 192.461 104.651C194.758 107.94 197.094 111.189 199.433 114.453C199.82 114.993 200.206 115.532 200.593 116.072C197.737 113.315 194.834 110.473 192.161 107.524C185.952 100.722 179.747 93.699 173.729 86.9077C169.277 81.8927 164.837 76.8597 160.361 71.8809C155.701 66.6854 152.528 60.6236 150.288 55.9087C144.993 44.7634 141.061 33.0112 137.61 21.9689C135.051 13.7761 132.289 5.5907 129.416 -2.35323C127.87 -6.6503 125.958 -11.0504 123.601 -15.8056C116.451 -30.2296 107.708 -45.009 96.8754 -61.0087C92.2029 -67.9161 86.8373 -74.1718 81.7437 -79.992C79.6877 -82.3511 77.6441 -84.7283 75.6156 -87.1085C74.5623 -88.3382 73.506 -89.5832 72.4375 -90.81L72.2755 -90.9992C71.8704 -91.4722 71.4624 -91.9604 70.9872 -92.3885C69.9813 -93.124 68.8465 -93.3 67.763 -92.7151ZM258.373 252.601C267.198 254.168 275.187 258.679 275.187 258.679C278.842 260.433 281.906 262.143 284.727 263.979C286.863 265.363 288.934 267.058 291.029 269.127C290.992 269.102 290.956 269.078 290.92 269.053C290.92 269.053 294.913 272.41 300.912 281.644C300.051 280.927 299.203 280.193 298.33 279.495C296.371 277.888 293.779 275.773 291.09 273.803C288.054 271.584 285.319 269.701 282.718 268.028C279.279 265.839 275.577 263.512 271.798 261.436C267.192 258.904 263.005 256.009 258.373 252.601ZM301.981 297.09C300.137 296.169 298.278 295.25 296.444 294.296C288.5 290.185 277.826 282.083 275.24 279.746C270.828 275.762 265.349 267.436 265.349 267.436C266.647 268.462 275.545 276.165 276.967 277.182C278.585 278.32 280.165 279.511 281.731 280.706C283.035 281.683 284.339 282.661 285.655 283.62L287.242 284.763C288.227 285.471 287.218 284.721 290.218 286.915C299.753 293.835 302.469 297.342 302.469 297.342C302.312 297.262 302.156 297.182 301.981 297.09ZM318.786 304.601C318.082 303.965 317.363 303.331 316.632 302.716C310.004 297.095 302.955 292.153 296.932 288.052C294.073 286.098 291.208 284.036 288.449 282.031L287.371 281.247C286.239 280.425 285.119 279.586 283.998 278.746C282.327 277.493 280.584 276.191 278.824 274.971C274.995 272.306 271.494 269.296 267.506 265.639C267.506 265.639 262.341 260.43 260.969 258.192L266.48 261.51C266.444 261.485 266.408 261.461 266.387 261.433C268.367 262.658 270.441 263.882 272.625 265.099C275.373 266.634 278.085 268.396 280.71 270.111L282.738 271.422C284.013 272.247 285.263 273.109 286.513 273.971C287.33 274.538 288.143 275.09 288.957 275.642C292.208 277.836 295.004 280.037 297.515 282.388C299.665 284.415 302.003 286.358 304.445 288.187C306.336 289.603 308.095 291.232 309.773 293.097C309.773 293.097 315.214 298.017 320.795 306.387C320.097 305.781 319.432 305.185 318.786 304.601ZM200.92 251.156C202.383 253.047 196.503 249.281 189.407 244.425C188.738 244.05 188.083 243.672 187.414 243.297C180.164 239.195 172.667 234.952 165.702 230.119C161.222 227.013 157.238 224.362 153.525 222.053C140.913 214.18 118.268 195.47 110.323 190.699C117.102 194.309 123.994 198.024 130.741 201.797C145.73 210.175 158.578 218.128 170.109 226.192C170.106 226.177 197.544 246.832 200.92 251.156ZM118.22 187.332C137.76 193.187 155.835 202.153 171.904 213.957C180.412 220.194 205.917 247.022 205.917 247.022C205.41 246.836 167.345 220.131 149.29 209.053C138.773 202.588 118.368 187.697 114.696 186.26C115.868 186.634 117.05 186.974 118.22 187.332ZM201.012 254.678C198.76 253.599 196.512 252.535 194.273 251.438C192.224 250.43 190.187 249.404 188.153 248.393C185.682 247.152 183.211 245.91 180.715 244.705C170.171 239.582 159.936 234.431 150.527 228.006C140.305 221.028 130.254 213.719 120.651 206.277C114.738 201.683 108.573 196.838 102.693 191.515L102.779 191.467C103.065 191.318 103.14 191.303 103.781 191.857C103.953 192.013 104.121 192.154 104.302 192.276C120.591 203.992 137.065 214.869 153.899 225.898C166.505 234.149 181.572 243.755 197.765 252.342C199.322 253.161 200.819 254.164 202.148 255.027C202.308 255.122 202.446 255.268 202.599 255.412L201.012 254.678ZM117.195 260.292C118.671 260.198 120.163 260.102 121.636 259.993C136.897 258.943 152.215 259.173 167.133 260.69C183.944 262.396 199.24 265.634 213.776 270.575L205.94 271.304C205.462 271.27 204.999 271.233 204.52 271.199C200.887 270.872 197.257 270.481 193.628 270.09C190.125 269.707 186.611 269.341 183.105 269.022C175.342 268.321 169.466 267.369 164.057 265.904C162.549 265.5 141.151 261.118 134.33 260.898L130.94 260.776C126.409 260.605 121.807 260.558 117.363 260.512C116.384 260.495 115.393 260.495 114.415 260.478C115.346 260.41 116.276 260.342 117.195 260.292ZM82.9982 266.287C81.7828 266.347 80.5925 266.291 79.4396 266.103C79.767 266.088 80.0791 266.075 80.3914 266.063C92.2291 265.7 104.076 265.383 115.904 265.054L116.186 265.047C117.798 265.006 119.471 264.953 121.088 265.021C124.018 265.121 126.937 265.254 129.854 265.372C132.55 265.485 135.245 265.599 137.941 265.712C147.24 266.055 156.871 267.311 166.588 269.43C169.492 270.054 172.502 270.579 175.538 270.989C175.844 271.025 176.134 271.064 176.44 271.099L200.167 274.344C196.978 274.53 193.729 274.727 190.527 275.009C181.512 275.823 172.317 275.774 163.418 275.715L163.246 275.717C157.765 275.681 152.198 275.441 146.807 275.214L141.827 275.003C137.705 274.833 133.456 274.655 129.317 274.236C124.94 273.8 120.475 273.239 116.174 272.709C113.047 272.317 109.921 271.924 106.788 271.58C102.477 271.084 87.2358 266.074 82.9982 266.287ZM168.666 283.739C164.917 283.875 161.008 283.915 157.079 283.85L155.137 283.812C151.587 283.753 123.07 278.987 119.079 277.942C115.665 277.038 112.157 276.294 108.766 275.59L106.831 275.174C104.632 274.698 102.424 274.256 100.215 273.814C97.2028 273.195 94.1779 272.594 91.1717 271.927C90.3491 271.738 89.5388 271.531 88.7349 271.276C88.8499 271.302 88.98 271.324 89.0978 271.364C92.5789 272.129 96.1597 272.922 99.7548 273.461C108.467 274.767 117.236 275.794 125.47 276.734C129.989 277.253 134.655 277.634 139.737 277.889C142.342 278.019 144.995 278.078 147.552 278.123C150.615 278.182 153.79 278.25 156.879 278.446C162.85 278.828 168.917 278.721 174.766 278.624C175.893 278.597 177.038 278.582 178.169 278.57L194.97 279.979C185.459 282.224 176.929 283.432 168.666 283.739ZM228.151 319.385C222.913 319.711 208.913 318.065 199.565 319.681C195.972 320.306 192.367 321.028 188.828 321.768C206.028 316.305 222.259 313.088 238.209 311.939C250.047 311.088 261.826 311.24 273.23 312.392C284.377 313.515 295.185 315.74 304.722 317.988L314.995 322.267C314.528 322.214 314.062 322.162 313.566 322.116C310.52 321.818 299.551 320.473 297.111 320.216L294.686 319.957C289.964 319.445 285.096 318.914 280.278 318.64C277.095 318.447 273.862 318.406 270.739 318.359C268.231 318.32 265.643 318.28 263.105 318.168C253.128 317.734 244.344 317.858 236.236 318.561C235.059 318.66 233.874 318.793 232.706 318.938C231.199 319.116 229.661 319.3 228.151 319.385ZM168.792 333.782C171.877 332.893 183.625 329.181 186.761 328.392C193.48 326.682 201.458 324.808 209.753 323.929C211.047 323.791 212.339 323.638 213.634 323.5C216.006 323.235 218.362 322.973 220.74 322.738L225.664 322.252C231.159 321.703 236.854 321.132 242.441 320.739C245.327 320.533 248.306 320.56 251.175 320.593C252.514 320.604 253.853 320.615 255.189 320.611C255.628 320.606 256.068 320.6 256.507 320.595C257.322 320.581 258.119 320.554 258.928 320.588L262.836 320.705C267.931 320.862 273.217 321.03 278.39 321.267C283.136 321.491 287.299 321.795 291.086 322.187C294.086 322.494 297.152 322.898 300.106 323.292C302.189 323.57 304.286 323.845 306.378 324.089C308.454 324.337 310.525 324.554 312.611 324.768C313.14 324.824 313.685 324.877 314.215 324.933C314.215 324.933 290.639 329.382 281.346 329.73C269.193 330.168 257.057 330.619 244.904 331.058L222.567 331.873C221.646 331.908 220.736 331.925 219.812 331.944C218.888 331.964 217.964 331.983 217.042 332.018C205.892 332.438 194.756 332.855 183.606 333.275L168.792 333.782ZM278.988 341.899C279.128 341.888 279.283 341.875 279.419 341.848C279.192 341.892 278.961 341.92 278.718 341.967L278.509 342.023L278.275 342.036C277.274 342.228 276.26 342.437 275.265 342.581C265.518 344.006 255.793 344.971 248.419 345.643C236.639 346.718 224.828 346.399 212.74 345.944C205.927 345.691 197.95 345.268 190.088 344.13C186.459 343.991 173.375 339.731 173.375 339.731C174.148 339.741 174.938 339.763 175.711 339.772C180.685 339.874 185.814 339.962 190.899 339.492C198.886 338.734 208.177 337.883 217.277 337.274C226.706 336.649 236.083 336.254 244.885 335.891C248.74 335.735 252.592 335.642 256.444 335.55C259.765 335.481 263.099 335.393 266.427 335.275C270.067 335.145 273.759 334.878 277.343 334.617L279.653 334.442C284.758 334.079 290.049 333.695 295.228 333.223L295.877 333.162C298.936 332.875 302.09 332.586 305.134 331.893C309.973 330.794 314.988 330.369 319.926 330.116C318.875 330.458 317.808 330.804 316.749 331.101C316.181 331.257 315.595 331.401 315.006 331.529L278.988 341.899ZM399.076 314.006C397.32 312.062 395.06 309.459 393.238 306.598C389.667 301.006 386.142 295.247 382.731 289.671L381.377 287.445L375.086 278C377.327 280.01 380.316 283.464 380.316 283.464C382.514 285.497 384.504 287.759 386.629 290.231C388.556 292.489 390.634 294.718 392.959 297.088C396.607 300.779 399.432 304.359 401.613 308.031C402.614 309.727 403.688 311.393 404.741 313.032C408.202 317.718 411.808 327.849 411.808 327.849C407.574 323.312 403.267 318.647 399.076 314.006ZM445.914 359.591C443.689 358.239 441.716 356.478 439.898 354.215C438.846 352.906 437.765 351.619 436.701 350.328C435.414 348.781 434.129 347.25 432.885 345.679L431.889 344.422C430.213 342.321 428.459 340.14 427.014 337.853C422.349 330.488 417.491 322.53 413.448 314.228C411.714 310.675 409.857 307.381 407.83 304.356C408.016 304.588 403.484 296.521 403.484 296.521C407.069 299.39 410.808 303.723 410.808 303.723C413.165 306.26 415.431 308.894 417.545 311.635C422.287 317.759 426.892 324.805 431.61 333.182C433.948 337.343 436.328 341.481 438.706 345.603C439.205 346.483 439.719 347.36 440.214 348.224C440.214 348.224 442.336 353.308 448.012 360.857C447.306 360.457 446.61 360.024 445.914 359.591ZM539.964 369.226C539.364 368.067 535.366 360.653 531.272 346.336C530.127 342.324 529.149 338.201 528.551 334.006L528.364 332.704C527.478 326.677 526.569 320.449 527.229 314.282C527.305 313.529 527.378 312.76 527.454 312.006C528.313 301.538 530.01 295.693 530.01 295.693L530.027 295.784C530.17 294.718 530.384 293.702 530.686 292.732C531.243 290.958 531.8 289.184 532.339 287.398C533.603 283.318 534.904 279.105 536.29 275.002C537.274 272.092 538.483 269.203 539.66 266.398L540.081 265.389C538.142 271.203 536.549 277.343 535.261 283.929C533.98 290.466 533.352 296.39 533.327 302.01C533.326 303.646 533.291 305.273 533.259 306.915C533.207 309.599 533.156 312.377 533.209 315.12C533.332 320.444 533.467 326.49 533.97 332.324C534.366 336.857 534.991 341.44 535.606 345.884C535.829 347.54 536.066 349.193 536.271 350.837C536.659 353.767 537.09 356.516 537.59 359.126C538.307 362.874 539.157 366.329 540.145 369.6C540.074 369.472 540.02 369.357 539.964 369.226ZM541.985 365.567C539.402 356.184 538.234 346.466 537.252 337.311C535.852 324.161 535.586 310.607 536.462 297.022C537.084 287.371 539.11 277.577 542.645 267.116C544.362 262.037 546.359 256.936 548.293 252.004C549.522 248.891 550.748 245.762 551.91 242.63C552.867 240.071 553.701 237.442 554.501 234.882C554.685 234.281 554.887 233.692 555.07 233.09C554.665 236.644 554.19 240.243 553.664 243.82C552.745 250.114 551.396 257.529 548.295 264.666C546.321 269.228 544.987 274.013 543.942 278.083C542.811 282.531 541.936 287.244 541.292 292.511C541.068 294.378 540.81 296.237 540.57 298.107C539.617 305.368 538.618 312.889 538.659 320.416C538.708 331.275 538.869 341.893 540.269 352.494C540.924 357.481 541.632 362.001 542.443 366.235C542.646 367.297 542.861 368.341 543.074 369.37C542.721 368.1 542.335 366.822 541.985 365.567ZM542.245 344C541.762 337.203 541.671 330.236 541.578 323.506C541.546 321.53 541.529 319.552 541.494 317.561C541.452 315.367 541.599 312.932 541.913 310.135C542.569 304.441 543.344 298.3 544.286 291.387C545.567 281.972 548.012 272.805 551.559 264.136C552.87 260.959 553.901 257.632 554.641 254.266C556.253 246.91 557.33 240.129 557.916 233.741C557.938 237.307 557.79 240.891 557.367 244.432L557.018 247.377C556.351 252.932 555.671 258.662 554.516 264.215C552.6 273.437 550.667 283.387 549.483 293.554C548.915 298.397 548.3 303.234 547.669 308.074C546.902 314.009 546.124 320.135 545.459 326.192C544.889 331.35 544.638 336.369 544.729 341.118C544.886 349.581 545.372 358.202 545.829 365.602C545.931 367.203 546.076 368.78 546.245 370.32C544.194 361.495 542.849 352.661 542.245 344ZM551.332 377.589C551.332 377.589 548.74 362.072 547.532 349.437C547.524 349.391 547.518 349.361 547.524 349.312C547.437 347.457 547.349 345.602 547.249 343.765C546.934 337.927 547.434 332.075 547.936 327.055C548.465 321.684 549.17 315.997 550.23 308.637L551.071 302.672C552.23 294.428 553.43 285.909 554.938 277.598C555.25 275.856 555.579 274.125 555.906 272.38C557.44 264.127 559.017 255.599 559.742 247.06L559.966 244.532C560.129 242.755 560.289 240.963 560.416 239.161C560.611 236.56 560.551 229.509 560.551 229.509C561.643 232.666 563.189 241.65 563.189 241.65C563.696 245.203 564.052 249.035 564.284 253.285C564.683 260.303 563.98 267.232 563.164 274.309C562.578 279.298 561.736 284.351 560.911 289.243C560.624 290.95 560.34 292.671 560.053 294.378C559.568 297.349 559.08 300.305 558.577 303.265C557.885 307.376 557.197 311.504 556.538 315.625C556.231 317.634 555.978 319.68 555.728 321.663C555.364 324.69 554.974 327.831 554.355 330.844C552.947 337.704 550.296 358.864 551.173 376.345C551.224 376.776 551.29 377.203 551.359 377.646L551.332 377.589ZM555.412 376.635C554.926 370.971 554.652 364.936 554.585 358.673C554.513 351.64 554.888 345.874 555.79 340.558C555.994 339.323 556.213 338.086 556.43 336.833C556.885 334.198 557.368 331.463 557.748 328.763C557.979 327.178 558.198 325.61 558.414 324.027C559.236 318.129 560.08 312.021 561.241 306.089C562.149 301.464 562.927 296.738 563.674 292.175C564.07 289.724 564.469 287.288 564.895 284.831C566.614 274.829 567.449 265.467 567.406 256.368C567.52 256.881 567.622 257.412 567.726 257.958C568.34 261.081 570.952 281.958 570.952 281.958C571.051 286.013 570.716 290.261 569.941 294.923C569.01 300.576 567.875 306.314 566.777 311.84L566.293 314.324C565.967 315.991 565.566 317.672 565.168 319.29C564.86 320.56 564.565 321.812 564.288 323.076C563.191 328.193 560.839 341.793 560.839 341.793C560.665 342.77 560.505 343.745 560.346 344.719C560.198 345.675 560.048 346.616 559.901 347.573C559.901 347.573 555.974 360.42 555.64 378.73C555.537 378.026 555.467 377.332 555.412 376.635ZM450.672 184.021C450.752 184.273 450.838 184.555 450.932 184.883C453.758 194.472 455.432 203.873 455.432 203.873C456.375 209.952 456.757 215.479 456.6 220.825L456.548 222.361C456.374 228.356 456.19 234.541 456.209 240.641C456.24 248.94 456.86 257.189 457.627 265.143C456.937 262.114 456.324 259.321 455.822 256.617L455.828 256.647C450.609 235.547 451.048 228.636 451.048 228.636C450.74 222.671 450.608 216.719 450.465 210.879C450.326 205.385 450.197 199.699 449.928 194.104C449.868 192.967 449.838 191.825 449.796 190.7C449.655 186.842 449.506 182.86 448.851 178.943C448.762 178.393 448.675 177.859 448.601 177.307C449.428 179.493 450.112 181.753 450.672 184.021ZM443.482 276.376C440.442 268.715 437.388 261.058 434.303 253.406C431.723 246.995 430.134 239.922 429.155 230.451C428.369 222.816 428.854 214.827 430.59 206.724C432.683 196.949 434.874 187.029 437.017 177.433L437.234 176.432L439.208 171.87C439.533 174.308 438.971 186.575 438.971 186.575C438.91 187.735 438.849 188.895 438.788 190.055C438.649 192.865 438.493 195.664 438.354 198.474L438.159 202.302C437.936 206.561 437.725 210.801 437.566 215.062L437.444 218.043C437.27 222.229 437.095 226.572 437.235 230.839C437.412 236.531 438.248 242.128 439.276 247.5C439.662 249.518 440.073 251.5 440.493 253.448C441.499 258.21 442.819 263.793 444.719 269.611L448.191 285.368C446.403 282.517 444.731 279.534 443.482 276.376ZM460.876 298.308C454.775 286.814 451.003 277.705 451.003 277.705C449.714 274.585 448.31 271.032 447.11 267.392C444.651 259.888 443.185 252.146 441.9 244.858C440.337 236.034 439.814 227.137 440.347 218.415C440.944 208.47 441.408 198.487 441.797 189.919C441.901 187.666 441.941 185.409 441.996 183.149C442.053 180.322 442.104 177.387 442.295 174.519C442.414 172.514 442.467 170.57 442.434 168.673C446.81 183.155 446.768 191.893 446.768 191.893C446.845 194.018 446.903 196.13 446.976 198.24C447.183 204.413 447.371 210.575 447.529 216.742C447.934 232.661 449.221 245.879 451.588 258.246C451.646 258.549 451.701 258.837 451.759 259.141C452.096 260.901 452.433 262.661 452.773 264.436C453.934 270.584 455.124 276.963 456.915 283.117C458.294 287.855 459.778 292.651 461.215 297.284C461.631 298.635 462.047 299.987 462.463 301.339C461.89 300.316 461.362 299.285 460.847 298.235L460.876 298.308ZM301.775 73.724C303.027 76.1583 303.847 78.8799 304.328 82.2955C304.86 86.063 305.495 89.8739 306.122 93.5604L306.602 96.3943C306.81 97.6443 307.033 98.8914 307.271 100.136C307.665 102.278 308.074 104.496 308.35 106.677C309.027 111.943 309.586 117.325 310.14 122.52L310.446 125.434C310.553 126.405 310.566 127.377 310.576 128.414L310.588 129.135C310.598 130.093 310.608 131.05 310.619 132.008C310.625 133.768 310.647 135.526 310.717 137.29C310.763 138.35 310.885 139.397 310.985 140.416C311.078 141.31 311.186 142.202 311.23 143.09C311.46 147.167 311.677 151.262 311.892 155.342C312.106 159.501 312.332 163.642 312.562 167.798C312.646 169.307 313.977 183.492 313.977 183.492C313.977 183.492 308.078 164.755 306.33 159.647C304.579 154.524 301.178 135.608 301.178 135.608L301.166 135.626C301.045 133.761 300.891 131.888 300.661 130.028C300.014 125.087 299.768 119.692 299.895 113.046C299.917 111.516 299.969 109.98 300.006 108.447C300.158 102.504 300.333 96.3515 299.672 90.265C299.239 86.1953 299.359 71.6225 298.515 68.9371C298.202 67.9588 297.904 66.9777 297.606 65.9966C297.482 65.5956 297.361 65.2098 297.237 64.8089C298.755 67.8059 300.266 70.7725 301.775 73.724ZM303.563 182.827C302.819 181.9 302.03 180.903 301.378 179.879C295.691 170.791 291.409 162.063 288.249 153.198C286.914 149.427 285.663 145.687 284.523 142.193C281.269 132.262 279.565 124.015 279.156 116.292C279.034 113.846 278.942 111.394 278.865 108.939L278.613 102.113L280.232 79.5934L280.201 79.6779C281.41 74.9795 282.643 70.1661 283.692 65.3724C285.119 58.776 286.513 51.7612 286.443 44.5707C288.112 47.5387 288.829 50.626 288.619 53.9693L288.571 54.6233C288.513 55.3894 288.471 56.1526 288.461 56.9251C288.425 62.0757 287.777 67.4847 286.464 73.4458C285.17 79.3403 284.045 85.3757 282.942 91.2021L282.302 94.5964C281.969 96.3903 281.794 98.1068 281.781 99.6823C281.759 108.605 282.803 117.513 283.816 125.026C283.985 126.315 284.201 127.611 284.445 128.885C285.357 133.65 286.7 138.284 288.015 142.689C290.451 150.811 292.601 157.525 296.174 164.029C297.842 167.076 299.538 170.102 301.234 173.127C303.763 177.63 306.373 182.305 308.861 186.925C309.989 189.037 311.053 191.224 312.08 193.387C309.255 189.886 306.409 186.356 303.563 182.827ZM301.136 167.767C298.366 162.744 295.688 157.547 293.897 152.054C292.095 146.501 290.022 139.945 288.41 133.411C286.05 123.875 284.772 113.581 284.412 101.019C284.392 100.174 284.442 99.2831 284.577 98.2662C285.863 88.9599 287.32 81.3669 289.174 74.3741C290.51 69.3525 291.223 64.7803 291.341 60.3849C291.37 59.5458 291.443 58.6981 291.532 57.8474L293.851 66.9199C294.503 69.7522 295.034 72.6077 295.289 75.5004C295.554 78.6112 295.879 81.7105 296.19 84.8127C296.473 87.6055 296.768 90.3803 297.006 93.1819C297.213 95.5803 297.423 98.4029 297.348 101.217C297.183 107.588 297.011 114.164 297.543 120.81C297.752 123.381 297.943 125.94 298.152 128.511C298.44 132.231 298.73 135.966 299.048 139.68C299.048 139.68 300.546 153.015 308.115 174.233L316.094 193.814L301.136 167.767ZM185.441 -32.6914L185.924 -31.6512C187.138 -29.0839 188.33 -26.5593 189.478 -24.0107C193.661 -14.7288 205.016 5.96845 209.683 30.3523C210.45 34.3581 210.715 38.5386 210.918 42.8881L209.548 57.59L209.54 57.5445C209.543 57.8899 209.549 58.2505 209.552 58.5959C209.509 61.986 209.313 65.4839 208.972 68.9625C208.854 70.0704 208.621 71.1532 208.372 72.3177C208.079 73.6635 207.777 75.0427 207.686 76.4599C207.332 82.2532 207.093 88.1504 206.861 93.8416L206.694 97.8216C205.576 94.5279 205.112 91.3608 205.292 88.1961C205.619 82.4238 205.774 77.5652 205.433 72.66C205.295 70.6257 205.282 68.5835 205.289 66.3172C205.29 62.1329 205.325 57.958 205.341 53.7708L205.393 45.6602C205.412 43.7061 205.434 41.7671 205.39 39.8094C205.337 37.7275 205.291 35.3456 204.955 33.0189C204.339 28.7325 203.622 24.5756 202.837 20.6363C200.865 10.7425 198.785 2.83548 196.283 -4.2358C196.206 -4.47277 196.105 -4.67358 196.001 -4.88956L196.016 -4.89247L185.441 -32.6914ZM201.056 88.6609C200.423 86.7529 199.791 84.8449 199.155 82.9218C196.706 75.3843 195.293 68.5765 194.825 62.1069C194.589 58.8175 194.201 55.4784 193.822 52.2635C193.592 50.3255 193.366 48.4027 193.182 46.456C193.095 45.5917 193.006 44.7123 192.904 43.851C192.579 40.9245 192.253 37.904 192.19 34.9432C192.081 30.1824 192.115 25.3469 192.144 20.6539C192.154 18.733 192.179 16.8092 192.171 14.8761C192.176 13.9156 192.181 12.9552 192.219 12.0041C192.333 9.22969 193.698 -3.77241 193.698 -3.77241C195.74 2.12854 197.497 8.68161 199.221 16.7827L199.559 18.3853C200.463 22.6164 201.391 26.969 201.855 31.2843C202.37 36.0304 202.442 40.9243 202.515 45.6606L202.541 47.197C202.693 55.6305 202.767 64.5662 202.775 74.5529C202.772 75.277 202.782 75.983 202.794 76.7042C202.814 77.6285 201.053 88.6458 201.056 88.6609C201.056 88.6609 201.053 88.6458 201.056 88.6609ZM186.586 70.9981L185.78 68.7614C183.413 62.2306 182.068 56.7626 181.536 51.5165C181.356 49.7576 181.159 47.9866 180.946 46.2184C180.573 43.0339 180.194 39.7403 179.966 36.4964L179.781 34.0467C179.422 29.4595 179.067 24.7299 179.484 20.0885C179.618 18.5686 179.8 17.0552 180 15.554C180.139 14.4735 180.264 13.3959 180.388 12.3183C180.581 10.5353 180.744 8.75806 180.923 6.97796C181.241 3.70831 181.568 0.326628 181.99 -2.97853C182.495 -6.91322 183.783 -9.88095 186.329 -15.8106C186.779 -13.8677 187.215 -11.922 187.617 -9.98556C188.564 -5.5268 189.53 -0.237693 189.464 5.09135C189.455 6.27294 189.43 7.45742 189.389 8.6448C189.357 10.3655 189.312 12.1043 189.313 13.8344C189.288 19.0456 189.299 23.2906 189.348 27.245C189.362 28.4692 189.361 29.6963 189.372 30.9053C189.382 34.4898 189.396 38.1833 189.684 41.8246C190.233 48.7979 191.004 55.87 191.748 62.7116L192.128 66.1779C192.28 67.6275 192.522 69.0596 192.795 70.4859C192.946 71.2749 193.112 72.0611 193.264 72.8501C194.584 79.1723 196.705 85.3254 198.759 91.287L199.54 93.5599C201.182 98.3577 202.881 103.129 204.599 107.912L205.73 111.109C201.717 103.949 187.925 74.7056 186.586 70.9981ZM172.747 118.35C169.034 117.11 165.317 115.855 161.592 114.634C160.096 114.134 158.319 113.561 156.514 113.089C151.532 111.793 146.395 110.103 140.327 107.741C138.627 107.075 136.914 106.428 135.205 105.795C132.426 104.754 129.559 103.667 126.763 102.535C122.016 100.581 116.977 98.4939 112.142 96.1633C105.231 92.8459 98.2519 89.3371 91.5143 85.9394L88.4336 84.3898C80.8782 80.5823 73.9299 75.9194 67.7302 70.4839C68.0108 70.6347 68.2913 70.7855 68.5595 70.9544C71.0194 72.4655 105.81 85.5153 117.113 91.1536C120.764 92.9715 124.048 94.5136 127.155 95.8694C137.006 100.166 146.903 104.704 157.155 109.616C157.155 109.616 179.761 120.641 184.984 122.457C180.899 121.084 176.832 119.723 172.747 118.35ZM190.509 120.833C190.038 120.672 189.566 120.51 189.11 120.346C183.642 118.482 178.061 116.2 172.511 113.582C162.554 108.897 152.292 104.098 141.14 98.9182C135.598 96.3454 130.047 93.8058 124.496 91.2662C121.411 89.8591 118.323 88.4367 115.236 87.0144C114.028 86.459 112.833 85.8856 111.638 85.3121C109.284 84.1897 106.827 83.0241 104.369 82.016C96.5001 78.7877 88.6244 75.6077 80.7336 72.4307C78.5532 71.5583 76.3699 70.6706 74.1896 69.7981C76.5149 70.3597 78.849 70.9668 81.1282 71.6159C87.506 73.4624 93.9512 75.5791 99.6382 77.432C102.255 78.2839 104.853 79.2022 107.451 80.1206C109.137 80.7102 110.826 81.315 112.509 81.8895C112.811 81.9889 113.107 82.058 113.403 82.1272C128.232 86.1312 159.596 103.549 159.596 103.549C163.64 105.858 167.708 108.131 171.789 110.385L181.663 115.873C184.595 117.545 187.553 119.197 190.509 120.833ZM183.352 113.52C176.204 109.619 169.07 105.715 161.922 101.814C141.016 88.9063 113.746 79.5606 113.746 79.5606C111.43 78.6355 109.032 77.6946 106.614 76.8989L104.569 76.2366C98.5253 74.2475 92.2824 72.2021 86.0896 70.3359C82.3842 69.2206 78.6051 68.2137 74.9259 67.2349C74.6447 67.1628 74.3787 67.0879 74.0975 67.0159C74.2427 67.0353 74.3851 67.0395 74.5304 67.0589C75.7143 67.1626 76.8951 67.2512 78.079 67.3549C81.3674 67.6063 84.7678 67.8678 88.0319 68.4856C106.286 71.8969 125.077 78.5243 145.514 88.7375C161.971 96.9757 176.931 107.419 189.75 117.03L183.352 113.52ZM109.801 -33.1721C115.074 -23.7842 119.802 -14.1191 124.574 -4.2264C127.935 2.72776 139.611 40.5557 141.466 44.8251C141.838 45.6977 142.224 46.5675 142.608 47.422C139.939 43.6702 137.767 39.3043 135.688 33.5363C134.604 30.5035 133.215 27.3561 131.185 23.3246C128.037 17.0691 124.831 10.8404 121.626 4.61166C120.219 1.86098 118.796 -0.886796 117.392 -3.6223C116.912 -4.56856 116.462 -5.52064 116.012 -6.47273L112.362 -14.2049C107.654 -24.1729 95.8335 -55.1939 95.8335 -55.1939C100.642 -48.564 105.244 -41.2814 109.801 -33.1721ZM95.5301 -43.0556C96.6401 -40.6255 97.7927 -38.2193 98.9483 -35.7979C100.181 -33.2184 101.414 -30.6388 102.602 -28.0506C111.345 -8.83529 120.699 9.38213 128.686 24.6523C131.29 29.6277 133.59 35.149 135.706 41.5233L135.211 40.9102C130.518 35.1236 125.659 29.1327 122.158 22.347C119.259 16.7359 116.228 11.0873 113.279 5.62727C111.763 2.80299 110.235 -0.00323584 108.735 -2.83043C107.873 -4.45857 106.957 -6.20227 106.16 -7.98439C103.267 -14.3832 99.7067 -20.9058 94.9765 -28.5257C91.3463 -34.3429 88.8993 -39.2382 87.2445 -43.9392C85.184 -49.7736 81.3641 -68.9088 80.2512 -71.354C85.9827 -61.7079 91.1341 -52.627 95.5301 -43.0556ZM81.2807 -51.5118C84.1106 -42.7259 87.9456 -34.1953 92.6877 -26.1844C95.386 -21.6202 97.9615 -16.8753 100.46 -12.2886L102.426 -8.66974C103.298 -7.07487 104.13 -5.44092 104.959 -3.82216C105.665 -2.43164 106.39 -1.02886 107.127 0.355839C108.983 3.80711 110.854 7.25547 112.707 10.6916C113.951 13.0016 115.214 15.3238 116.458 17.6338C116.458 17.6338 130.352 40.4246 129.878 39.9177C124.674 34.2602 120.019 28.1831 115.985 22.805C108.994 13.4786 90.3911 -14.105 74.2411 -72.5945C76.6198 -65.6727 79.0211 -58.5508 81.2807 -51.5118Z" fill="#F5F5F5"/>
</svg>
