<svg width="241" height="240" viewBox="0 0 241 240" fill="none" xmlns="http://www.w3.org/2000/svg">
<path d="M99.7853 33.9761L99.6342 33.0037L106.346 31.9609L106.497 32.9332L104.356 33.5331C104.497 34.5474 104.64 35.5696 104.783 36.5998C104.941 37.6116 105.099 38.6314 105.259 39.659L105.513 41.2954C105.643 42.1333 105.785 43.0424 105.937 44.0227C106.103 44.9846 106.272 45.9703 106.445 46.9797L111.828 46.1432L112.008 42.7636L113.454 42.5388L113.91 47.0342L102.1 48.8693L101.948 47.897L104.09 47.2971C103.962 46.2645 103.819 45.2423 103.662 44.2305C103.505 43.2186 103.347 42.2067 103.19 41.1949L103.006 40.0091C102.846 38.9814 102.686 37.9538 102.527 36.9261C102.367 35.8984 102.194 34.889 102.008 33.8979L99.7853 33.9761Z" fill="#AEAEAE"/>
<path d="M131.284 48.0954C130.368 47.9468 129.504 47.6282 128.692 47.1399C127.882 46.6357 127.186 45.9797 126.604 45.1721C126.022 44.3644 125.609 43.414 125.364 42.3208C125.139 41.2144 125.136 39.982 125.356 38.6238C125.567 37.3287 125.96 36.2012 126.537 35.2413C127.115 34.2813 127.8 33.5011 128.595 32.9006C129.405 32.3026 130.274 31.8925 131.202 31.6702C132.132 31.432 133.055 31.3873 133.971 31.5359C134.887 31.6845 135.742 32.0097 136.536 32.5113C137.348 32.9997 138.037 33.6464 138.604 34.4515C139.186 35.2592 139.599 36.2096 139.843 37.3028C140.087 38.396 140.099 39.6217 139.879 40.98C139.668 42.275 139.275 43.4026 138.698 44.3625C138.136 45.325 137.449 46.1132 136.636 46.7269C135.842 47.3274 134.98 47.7467 134.049 47.9848C133.122 48.2072 132.2 48.244 131.284 48.0954ZM131.476 46.9109C132.297 47.0441 133.032 46.9607 133.681 46.6607C134.348 46.3474 134.916 45.8886 135.387 45.2842C135.876 44.6666 136.276 43.9534 136.585 43.1445C136.897 42.3198 137.127 41.4574 137.273 40.5572C137.416 39.6727 137.469 38.7979 137.431 37.9327C137.396 37.0516 137.244 36.2408 136.975 35.5002C136.722 34.7621 136.327 34.147 135.791 33.6548C135.271 33.1651 134.6 32.8537 133.779 32.7204C132.957 32.5872 132.215 32.6693 131.55 32.9668C130.902 33.2668 130.333 33.7256 129.844 34.3432C129.355 34.9608 128.946 35.6807 128.618 36.5028C128.309 37.3117 128.082 38.1583 127.939 39.0428C127.793 39.943 127.737 40.8336 127.773 41.7146C127.826 42.5825 127.988 43.3867 128.256 44.1273C128.528 44.8521 128.922 45.4672 129.44 45.9727C129.976 46.4649 130.655 46.7776 131.476 46.9109Z" fill="#AEAEAE"/>
<path d="M154.479 38.4003L154.93 37.5256L165.554 43.0007L163.757 46.8537L162.541 46.227L163.468 43.2758L158.455 40.6922C157.972 41.5951 157.488 42.498 157.005 43.4009C156.536 44.3111 156.074 45.2071 155.62 46.0889L158.756 47.7051L160.099 45.8323L161.08 46.338L158.486 51.3728L157.504 50.867L158.26 48.7188L155.103 47.0916C154.553 48.1583 154.037 49.161 153.553 50.0997C153.091 51.0315 152.639 51.9419 152.199 52.831L157.639 55.6346L159.516 53.1457L160.732 53.7724L158.626 57.4928L147.575 51.7978L148.026 50.9231L150.109 51.6999C150.599 50.8186 151.083 49.9157 151.559 48.9912C152.036 48.0668 152.512 47.1423 152.988 46.2178L153.527 45.1725C154.003 44.248 154.476 43.3307 154.945 42.4204C155.422 41.496 155.88 40.5713 156.321 39.6464L154.479 38.4003Z" fill="#AEAEAE"/>
<path d="M189.193 64.6961L189.928 64.0418L193.55 68.1107L192.815 68.7651L191.26 67.4509L177.395 74.3641L176.709 73.5934L183.233 62.2255L171.347 67.5706L170.661 66.7998L178.991 53.5988L177.846 51.9514L178.581 51.2971L182.922 56.1727L182.187 56.827L180.521 55.3535L174.257 64.8835L184.892 60.2988L183.511 58.3148L184.246 57.6605L188.587 62.5361L187.852 63.1904L186.025 61.5715L180.104 71.6314L190.412 66.5347L189.193 64.6961Z" fill="#AEAEAE"/>
<path d="M200.462 82.3873L201.383 82.0407L205.593 93.2268L201.676 94.8802L201.194 93.5999L203.861 92.0322L201.874 86.7536C200.91 87.0993 199.946 87.445 198.982 87.7907C198.024 88.1514 197.081 88.5064 196.152 88.8559L197.395 92.1578L199.647 91.6692L200.036 92.7024L194.735 94.6974L194.346 93.6642L196.348 92.5775L195.096 89.2532C193.973 89.6758 192.918 90.0732 191.929 90.4451C190.962 90.8264 190.016 91.1992 189.094 91.5636L191.249 97.2914L194.31 96.7035L194.792 97.9839L190.735 99.3313L186.356 87.6961L187.277 87.3495L188.302 89.323C189.256 88.9979 190.22 88.6522 191.194 88.2859C192.167 87.9195 193.14 87.5532 194.114 87.1869L195.214 86.7727C196.188 86.4064 197.153 86.0429 198.112 85.6822C199.085 85.3159 200.045 84.9374 200.993 84.5468L200.462 82.3873Z" fill="#AEAEAE"/>
<path d="M208.834 122.196L209.813 122.292L208.649 134.187L204.405 133.941L204.538 132.579L207.623 132.351L208.172 126.737C207.154 126.622 206.137 126.506 205.119 126.39C204.1 126.291 203.097 126.192 202.11 126.096L201.747 129.798L203.984 130.355L203.876 131.453L198 130.878L198.108 129.78L200.625 129.688L200.987 125.986C199.809 125.871 198.702 125.762 197.667 125.661C196.63 125.576 195.618 125.493 194.629 125.412L194.149 127.608L193.169 127.512L193.833 120.728L194.812 120.824L194.86 123.047C195.86 123.177 196.878 123.293 197.913 123.394C198.948 123.496 199.983 123.597 201.018 123.698L202.188 123.813C203.224 123.914 204.251 124.014 205.27 124.114C206.305 124.215 207.333 124.3 208.356 124.368L208.834 122.196Z" fill="#AEAEAE"/>
<path d="M197.595 163.049L198.478 163.483L196.071 168.371L195.189 167.936L195.821 166L184.199 155.756L184.654 154.831L197.642 156.598L188.217 147.596L188.673 146.67L204.038 149.421L205.133 147.74L206.016 148.174L203.132 154.031L202.25 153.596L202.988 151.499L191.801 149.281L200.051 157.409L201.37 155.383L202.252 155.818L199.369 161.675L198.486 161.24L199.298 158.938L187.75 157.237L196.351 164.87L197.595 163.049Z" fill="#AEAEAE"/>
<path d="M175.048 169.043L176.132 170.165C176.106 171.059 176.091 171.93 176.088 172.778C176.084 173.65 176.087 174.459 176.097 175.206C176.112 176.948 176.274 178.383 176.583 179.508C176.892 180.634 177.369 181.53 178.014 182.197C178.703 182.911 179.438 183.291 180.218 183.339C180.986 183.397 181.687 183.12 182.319 182.509C182.434 182.398 182.561 182.264 182.7 182.108C182.827 181.963 182.954 181.796 183.082 181.605L182.259 180.098C181.963 179.561 181.806 179.123 181.789 178.783C181.772 178.466 181.884 178.19 182.126 177.957C182.506 177.59 182.977 177.491 183.54 177.659C184.06 178.335 184.342 179.03 184.387 179.744C184.442 180.469 184.306 181.168 183.977 181.842C183.66 182.526 183.214 183.147 182.638 183.703C181.522 184.781 180.444 185.289 179.404 185.226C178.376 185.174 177.444 184.717 176.61 183.854C176.121 183.347 175.747 182.753 175.487 182.069C175.227 181.409 175.055 180.54 174.971 179.464C174.899 178.399 174.895 177.012 174.958 175.305C174.966 174.852 174.986 174.31 175.02 173.677C175.042 173.055 175.07 172.404 175.104 171.726L169.322 177.313L167.955 175.898L175.048 169.043Z" fill="#AEAEAE"/>
<path d="M160.937 181.26L161.703 182.619C161.452 183.477 161.217 184.316 161 185.137C160.777 185.979 160.576 186.762 160.397 187.488C159.972 189.178 159.767 190.607 159.782 191.774C159.797 192.941 160.032 193.929 160.488 194.737C160.975 195.601 161.59 196.155 162.333 196.397C163.062 196.647 163.81 196.557 164.576 196.124C164.716 196.046 164.872 195.949 165.045 195.833C165.205 195.724 165.37 195.594 165.542 195.443L165.126 193.776C164.975 193.182 164.934 192.718 165.003 192.385C165.066 192.074 165.244 191.836 165.537 191.671C165.997 191.412 166.478 191.434 166.981 191.739C167.313 192.525 167.411 193.269 167.274 193.97C167.145 194.686 166.836 195.328 166.349 195.897C165.869 196.479 165.281 196.967 164.584 197.36C163.232 198.122 162.06 198.341 161.07 198.018C160.088 197.709 159.302 197.031 158.712 195.986C158.367 195.372 158.154 194.702 158.075 193.976C157.99 193.27 158.043 192.387 158.234 191.324C158.433 190.275 158.778 188.933 159.27 187.296C159.391 186.861 159.548 186.341 159.74 185.736C159.919 185.14 160.11 184.518 160.314 183.87L153.31 187.818L152.344 186.104L160.937 181.26Z" fill="#AEAEAE"/>
<path d="M124.372 192.845C125.984 192.743 127.428 193.004 128.702 193.629C129.961 194.27 130.974 195.2 131.74 196.418C132.491 197.637 132.918 199.069 133.022 200.714C133.099 201.927 132.97 203.05 132.634 204.081C132.284 205.129 131.773 206.051 131.102 206.847C130.415 207.644 129.598 208.281 128.65 208.758C127.686 209.236 126.622 209.512 125.456 209.586C124.801 209.627 124.062 209.594 123.237 209.486C122.414 209.394 121.588 209.141 120.76 208.729L120.445 205.262L121.93 205.168L122.585 207.916C123.031 208.128 123.465 208.269 123.886 208.338C124.291 208.409 124.685 208.432 125.069 208.408C126.139 208.34 127.095 208.007 127.939 207.408C128.783 206.81 129.435 205.959 129.894 204.856C130.338 203.769 130.511 202.444 130.412 200.879C130.312 199.314 129.99 198.012 129.443 196.972C128.896 195.933 128.182 195.168 127.301 194.679C126.405 194.191 125.414 193.981 124.328 194.05C123.865 194.079 123.397 194.157 122.924 194.283C122.436 194.426 121.967 194.624 121.518 194.877L121.215 197.686L119.73 197.78L119.606 194.301C120.315 193.855 121.08 193.518 121.899 193.29C122.701 193.047 123.525 192.898 124.372 192.845Z" fill="#AEAEAE"/>
<path d="M102.38 190.708C103.277 190.946 104.106 191.348 104.866 191.913C105.622 192.495 106.25 193.216 106.75 194.077C107.25 194.938 107.568 195.924 107.703 197.036C107.819 198.159 107.701 199.386 107.348 200.716C107.012 201.984 106.509 203.067 105.841 203.966C105.172 204.865 104.413 205.574 103.563 206.093C102.698 206.609 101.793 206.932 100.848 207.062C99.8992 207.207 98.9762 207.161 98.0792 206.923C97.1822 206.685 96.3633 206.278 95.6225 205.7C94.8622 205.135 94.2397 204.423 93.7552 203.566C93.2552 202.705 92.9375 201.719 92.802 200.607C92.6665 199.495 92.7751 198.274 93.1279 196.944C93.4642 195.676 93.9668 194.593 94.6355 193.694C95.2887 192.791 96.0499 192.075 96.9191 191.544C97.7687 191.024 98.668 190.692 99.617 190.546C100.562 190.416 101.483 190.47 102.38 190.708ZM102.072 191.868C101.268 191.654 100.529 191.665 99.8538 191.9C99.1595 192.146 98.5483 192.547 98.0204 193.102C97.4728 193.669 97.0053 194.339 96.6178 195.114C96.2262 195.904 95.9135 196.74 95.6797 197.621C95.45 198.487 95.3115 199.353 95.2642 200.217C95.2128 201.098 95.2845 201.919 95.4793 202.683C95.6586 203.442 95.9909 204.093 96.476 204.636C96.9457 205.174 97.5826 205.55 98.3868 205.763C99.191 205.977 99.9382 205.968 100.628 205.737C101.303 205.502 101.914 205.101 102.462 204.535C103.009 203.968 103.487 203.292 103.894 202.506C104.281 201.732 104.59 200.911 104.82 200.045C105.053 199.164 105.196 198.283 105.247 197.403C105.279 196.534 105.198 195.718 105.003 194.954C104.804 194.206 104.472 193.555 104.006 193.001C103.521 192.459 102.876 192.081 102.072 191.868Z" fill="#AEAEAE"/>
<path d="M78.3445 198.077L77.8099 198.903L72.1074 195.214L72.6419 194.388L74.6391 195.365C75.2088 194.514 75.7828 193.657 76.3612 192.792C76.9175 191.932 77.4781 191.066 78.043 190.193L78.9425 188.802C79.4032 188.09 79.9029 187.318 80.4418 186.485C80.9585 185.657 81.4883 184.809 82.0311 183.94L77.457 180.981L75.0735 183.383L73.8444 182.588L76.4968 178.93L86.5317 185.423L85.9972 186.249L83.9999 185.271C83.4081 186.127 82.8341 186.985 82.2779 187.844C81.7216 188.704 81.1654 189.564 80.6091 190.424L79.9573 191.431C79.3923 192.304 78.8274 193.178 78.2625 194.051C77.6975 194.924 77.1547 195.792 76.634 196.656L78.3445 198.077Z" fill="#AEAEAE"/>
<path d="M57.1804 182.184L56.4256 182.815L52.0681 177.605L52.8229 176.974L54.442 178.498C55.2377 177.853 56.0396 177.204 56.8476 176.549C57.6331 175.892 58.4247 175.23 59.2225 174.562L60.4927 173.5C61.1432 172.956 61.8489 172.366 62.6098 171.729C63.3482 171.091 64.105 170.437 64.8802 169.768L61.3849 165.589L58.3979 167.18L57.4586 166.057L61.0736 163.346L68.7416 172.514L67.9869 173.145L66.3678 171.621C65.5495 172.264 64.7476 172.913 63.9621 173.57C63.1767 174.227 62.3912 174.884 61.6057 175.541L60.6852 176.311C59.8875 176.978 59.0897 177.646 58.292 178.313C57.4942 178.98 56.719 179.649 55.9664 180.321L57.1804 182.184Z" fill="#AEAEAE"/>
<path d="M41.6584 160.745L40.7507 161.125L36.1345 150.1L39.988 148.305L40.5164 149.567L37.9088 151.231L40.0871 156.433C41.0379 156.052 41.9886 155.672 42.9393 155.291C43.8838 154.895 44.8136 154.506 45.7286 154.123L44.366 150.869L42.1332 151.439L41.7068 150.421L46.9313 148.234L47.3577 149.252L45.3972 150.411L46.7691 153.687C47.876 153.224 48.9165 152.788 49.8905 152.38C50.8436 151.964 51.7746 151.557 52.6835 151.159L50.3197 145.514L47.2822 146.213L46.7538 144.951L50.7592 143.456L55.5608 154.924L54.6532 155.304L53.5569 153.369C52.6147 153.729 51.664 154.11 50.7047 154.511C49.7454 154.913 48.7861 155.315 47.8268 155.716L46.7421 156.17C45.7828 156.572 44.8309 156.971 43.8863 157.366C42.927 157.768 41.9813 158.181 41.0491 158.606L41.6584 160.745Z" fill="#AEAEAE"/>
<path d="M47.7402 126.016C47.8839 127.626 47.6599 129.075 47.0682 130.365C46.4592 131.64 45.5558 132.677 44.358 133.474C43.1588 134.256 41.7384 134.72 40.0969 134.867C38.8857 134.975 37.7604 134.875 36.7208 134.566C35.6639 134.243 34.7289 133.756 33.9158 133.106C33.1014 132.439 32.4435 131.639 31.9424 130.704C31.4398 129.752 31.1366 128.695 31.0328 127.532C30.9744 126.878 30.9887 126.138 31.0755 125.311C31.1463 124.486 31.3773 123.654 31.7683 122.816L35.226 122.411L35.3583 123.893L32.628 124.618C32.4274 125.07 32.2977 125.507 32.2391 125.93C32.1791 126.337 32.1661 126.732 32.2003 127.114C32.2956 128.182 32.6533 129.13 33.2734 129.958C33.8935 130.786 34.7609 131.416 35.8756 131.846C36.973 132.262 38.3025 132.401 39.8643 132.261C41.4261 132.122 42.7195 131.765 43.7446 131.192C44.7697 130.619 45.5154 129.885 45.9819 128.992C46.4469 128.083 46.631 127.087 46.5343 126.003C46.493 125.541 46.4032 125.075 46.2649 124.606C46.1092 124.122 45.8992 123.659 45.6349 123.216L42.8192 122.986L42.6869 121.504L46.1616 121.29C46.6255 121.987 46.9821 122.743 47.2314 123.556C47.4952 124.351 47.6648 125.172 47.7402 126.016Z" fill="#AEAEAE"/>
<path d="M35.7177 109.177L31.5888 108.064L34.4392 95.2248L38.6513 95.9632L38.3496 97.3221L35.2362 97.1718L34.4403 100.757C35.4365 100.994 36.4405 101.233 37.4524 101.474C38.4676 101.7 39.4907 101.927 40.5216 102.156L41.6697 102.411C42.6693 102.633 43.6768 102.856 44.6921 103.082C45.6952 103.288 46.7062 103.496 47.7249 103.706L48.5132 101.373L49.4738 101.586L47.903 108.662L46.9424 108.449L47.2152 106.002C46.2225 105.749 45.2263 105.511 44.2266 105.289C43.2113 105.064 42.196 104.838 41.1807 104.613L40.0327 104.358C39.0174 104.133 38.0021 103.907 36.9869 103.682C35.9716 103.457 34.9528 103.247 33.9306 103.053L33.1348 106.637L36.0193 107.819L35.7177 109.177Z" fill="#AEAEAE"/>
<path d="M40.0345 83.2733L39.1587 82.8246L42.2557 76.7798L43.1314 77.2284L42.3596 79.3139C43.2494 79.7878 44.1535 80.2689 45.0718 80.7574C45.9974 81.2316 46.923 81.7058 47.8486 82.18L48.8952 82.7162C49.8066 83.1831 50.725 83.6537 51.6506 84.1279C52.5693 84.5806 53.4951 85.0369 54.428 85.4968L55.6697 83.6521L56.5454 84.1008L53.4485 90.1456L52.5728 89.697L53.3446 87.6115C52.462 87.1234 51.558 86.6422 50.6324 86.168C49.7068 85.6938 48.7812 85.2196 47.8556 84.7454L46.809 84.2092C45.8834 83.735 44.9649 83.2644 44.0535 82.7975C43.1279 82.3233 42.2022 81.867 41.2762 81.4286L40.0345 83.2733Z" fill="#AEAEAE"/>
<path d="M66.2261 71.3528C65.598 72.0359 64.8566 72.5823 64.0018 72.9918C63.1353 73.3906 62.2047 73.6108 61.21 73.6525C60.2152 73.6943 59.1943 73.5163 58.1471 73.1186C57.099 72.6983 56.0685 72.0225 55.0556 71.0912C54.0898 70.2032 53.3649 69.2541 52.8809 68.244C52.3969 67.2338 52.1227 66.2319 52.0584 65.2381C52.0048 64.2325 52.1404 63.2813 52.4652 62.3844C52.7781 61.4767 53.2486 60.6813 53.8767 59.9982C54.5048 59.3151 55.2467 58.78 56.1024 58.3931C56.9571 57.9835 57.8765 57.7638 58.8604 57.7338C59.8551 57.6921 60.876 57.87 61.9232 58.2677C62.9703 58.6654 64.0003 59.3299 65.0133 60.2612C65.9791 61.1492 66.704 62.0983 67.188 63.1084C67.6828 64.1068 67.9629 65.1142 68.0282 66.1306C68.0926 67.1244 67.9683 68.0751 67.6553 68.9828C67.3306 69.8797 66.8542 70.6697 66.2261 71.3528ZM65.3427 70.5406C65.9058 69.9281 66.2405 69.2687 66.3468 68.5621C66.4521 67.833 66.3819 67.1056 66.1363 66.3798C65.8897 65.6315 65.5139 64.9056 65.0088 64.202C64.4919 63.4877 63.8978 62.8219 63.2264 62.2046C62.5668 61.5982 61.8654 61.0727 61.122 60.6283C60.3669 60.1731 59.6061 59.854 58.8397 59.671C58.0842 59.4762 57.3535 59.4673 56.6475 59.6441C55.9523 59.8092 55.3232 60.1979 54.7601 60.8104C54.197 61.4228 53.8569 62.0882 53.7398 62.8065C53.6336 63.5131 53.7037 64.2405 53.9503 64.9888C54.1968 65.7372 54.5731 66.4744 55.0792 67.2005C55.5843 67.904 56.1667 68.559 56.8262 69.1655C57.4976 69.7828 58.2108 70.319 58.966 70.7742C59.7202 71.2069 60.4804 71.5147 61.2468 71.6976C62.0014 71.8698 62.7322 71.8788 63.4391 71.7245C64.145 71.5477 64.7796 71.1531 65.3427 70.5406Z" fill="#AEAEAE"/>
<path d="M79.8033 41.6926L79.3403 40.8243L84.4442 38.1031L84.9071 38.9714L83.2538 40.2065L90.2772 53.3791L89.5359 53.7743L74.9109 46.749L80.3647 56.9779L82.7677 56.0775L83.2306 56.9458L78.1056 59.6783L77.6426 58.81L79.3072 57.5961L73.0404 45.8424L72.7143 45.6899L71.1203 46.3222L70.6574 45.4539L73.9188 43.715L87.1646 50.1429L82.1737 40.7823L79.8033 41.6926Z" fill="#AEAEAE"/>
</svg>
