<svg width="15" height="221" viewBox="0 0 15 221" fill="none" xmlns="http://www.w3.org/2000/svg">
<path d="M2.34472 220.773L1.77072 220.773L1.77072 213.801L4.24872 213.703L4.24872 214.501L2.47072 214.809L2.47072 218.099C3.06805 218.108 3.66539 218.118 4.26272 218.127C4.86005 218.127 5.44805 218.127 6.02672 218.127L6.02672 215.957L4.69672 215.761L4.69672 215.117L8.14072 215.117L8.14072 215.761L6.68472 215.957L6.68472 218.127C7.37539 218.127 8.02405 218.127 8.63072 218.127C9.23739 218.118 9.83005 218.108 10.4087 218.099L10.5627 216.797L11.1367 216.797L11.1367 220.773L10.5627 220.773L10.4087 219.485C9.82072 219.466 9.22339 219.457 8.61672 219.457C8.01005 219.457 7.40339 219.457 6.79672 219.457L6.11072 219.457C5.50405 219.457 4.90205 219.457 4.30472 219.457C3.69805 219.457 3.09605 219.466 2.49872 219.485L2.34472 220.773ZM11.1367 212.932L10.6327 212.932L10.4367 211.812C10.0541 211.802 9.68072 211.798 9.31672 211.798C8.94338 211.788 8.57005 211.784 8.19672 211.784L2.05072 211.784L1.91072 212.932L1.42072 212.932L0.790718 210.748L0.902718 210.552L2.89072 210.608L8.19672 210.608C8.57005 210.608 8.94338 210.608 9.31672 210.608C9.69005 210.598 10.0634 210.589 10.4367 210.58L10.6327 209.46L11.1367 209.46L11.1367 212.932ZM11.3187 205.276C11.3187 205.817 11.1927 206.335 10.9407 206.83C10.6794 207.315 10.2921 207.712 9.77872 208.02C9.25605 208.328 8.61205 208.482 7.84672 208.482C7.07205 208.482 6.42338 208.328 5.90072 208.02C5.36872 207.712 4.97205 207.315 4.71072 206.83C4.44005 206.335 4.30472 205.817 4.30472 205.276C4.30472 204.734 4.44005 204.221 4.71072 203.736C4.97205 203.241 5.36872 202.84 5.90072 202.532C6.42338 202.214 7.07205 202.056 7.84672 202.056C8.61205 202.056 9.25605 202.214 9.77872 202.532C10.2921 202.84 10.6794 203.241 10.9407 203.736C11.1927 204.221 11.3187 204.734 11.3187 205.276ZM10.6887 205.276C10.6887 204.669 10.4507 204.202 9.97472 203.876C9.48938 203.549 8.78005 203.386 7.84672 203.386C6.90405 203.386 6.18538 203.549 5.69072 203.876C5.19605 204.202 4.94872 204.669 4.94872 205.276C4.94872 205.882 5.19605 206.349 5.69072 206.676C6.18538 206.993 6.90405 207.152 7.84672 207.152C8.78005 207.152 9.48938 206.993 9.97472 206.676C10.4507 206.349 10.6887 205.882 10.6887 205.276ZM5.03272 193.434L4.48672 193.434L4.48672 190.872L5.03272 190.872L5.21472 191.628L11.2207 193.672L11.2207 194.19L6.25072 196.01L11.2207 197.858L11.2207 198.376L5.17272 200.63L5.03272 201.428L4.48672 201.428L4.48672 198.236L5.03272 198.236L5.20072 199.328L9.49872 197.886L5.20072 196.318L5.03272 197.354L4.48672 197.354L4.48672 194.26L5.03272 194.26L5.21472 195.296L9.48472 193.7L5.22872 192.398L5.03272 193.434ZM4.94872 187.244C4.94872 187.505 5.02338 187.771 5.17272 188.042C5.32205 188.303 5.56005 188.532 5.88672 188.728C6.21338 188.915 6.64738 189.036 7.18872 189.092L7.18872 186.544C7.18872 186.208 7.11872 185.989 6.97872 185.886C6.83872 185.774 6.66605 185.718 6.46072 185.718C6.19005 185.718 5.94272 185.788 5.71872 185.928C5.48538 186.059 5.29872 186.241 5.15872 186.474C5.01872 186.698 4.94872 186.955 4.94872 187.244ZM11.3187 187.258C11.3187 188.201 11.0154 188.957 10.4087 189.526C9.79272 190.095 8.94805 190.38 7.87472 190.38C7.15605 190.38 6.53072 190.235 5.99872 189.946C5.46672 189.647 5.05138 189.255 4.75272 188.77C4.45405 188.275 4.30472 187.739 4.30472 187.16C4.30472 186.675 4.41205 186.236 4.62672 185.844C4.84138 185.452 5.14938 185.139 5.55072 184.906C5.94272 184.673 6.42338 184.556 6.99272 184.556C7.15138 184.556 7.30072 184.565 7.44072 184.584C7.57138 184.603 7.68338 184.626 7.77672 184.654L7.77672 189.12C8.63538 189.101 9.28872 188.887 9.73672 188.476C10.1847 188.065 10.4087 187.524 10.4087 186.852C10.4087 186.404 10.3201 186.031 10.1427 185.732C9.95605 185.433 9.71805 185.158 9.42872 184.906L9.69472 184.57C10.1894 184.831 10.5861 185.186 10.8847 185.634C11.1741 186.082 11.3187 186.623 11.3187 187.258ZM11.1367 183.285L10.6327 183.285L10.4507 182.277C10.0961 182.268 9.71338 182.263 9.30272 182.263C8.88272 182.254 8.51405 182.249 8.19672 182.249L7.52472 182.249C7.14205 182.249 6.82472 182.254 6.57272 182.263C6.32072 182.263 6.05472 182.273 5.77472 182.291L5.64872 183.397L5.15872 183.397L4.30472 181.437L4.44472 181.227L6.09672 181.073C5.53672 180.84 5.09805 180.541 4.78072 180.177C4.46338 179.804 4.30472 179.431 4.30472 179.057C4.30472 178.843 4.35138 178.642 4.44472 178.455C4.53805 178.269 4.66405 178.133 4.82272 178.049C5.50405 178.049 5.84472 178.325 5.84472 178.875C5.84472 179.034 5.81672 179.183 5.76072 179.323C5.69538 179.463 5.60672 179.599 5.49472 179.729L5.34072 179.897C5.54605 180.177 5.79805 180.411 6.09672 180.597C6.39538 180.784 6.74538 180.938 7.14672 181.059L8.19672 181.059C8.50472 181.059 8.86405 181.059 9.27472 181.059C9.68538 181.05 10.0681 181.041 10.4227 181.031L10.6327 179.883L11.1367 179.883L11.1367 183.285ZM11.3187 171.886C11.3187 172.278 11.272 172.637 11.1787 172.964C11.0947 173.291 10.964 173.627 10.7867 173.972L9.24672 174.028L9.24672 173.258L10.4647 172.992C10.614 172.665 10.6887 172.287 10.6887 171.858C10.6887 171.326 10.5907 170.934 10.3947 170.682C10.1987 170.421 9.94205 170.29 9.62472 170.29C9.32605 170.29 9.08805 170.397 8.91072 170.612C8.72405 170.827 8.55605 171.153 8.40672 171.592L8.16872 172.236C7.98205 172.749 7.73938 173.16 7.44072 173.468C7.14205 173.776 6.75472 173.93 6.27872 173.93C5.93338 173.93 5.61138 173.837 5.31272 173.65C5.01405 173.463 4.77138 173.188 4.58472 172.824C4.39805 172.46 4.30472 172.017 4.30472 171.494C4.30472 171.111 4.35605 170.766 4.45872 170.458C4.55205 170.141 4.69205 169.833 4.87872 169.534L6.30672 169.59L6.30672 170.318L5.18672 170.542C5.02805 170.859 4.94872 171.181 4.94872 171.508C4.94872 171.937 5.03738 172.264 5.21472 172.488C5.38272 172.703 5.61138 172.81 5.90072 172.81C6.20872 172.81 6.44205 172.717 6.60072 172.53C6.75938 172.334 6.92738 171.998 7.10472 171.522L7.25872 171.088C7.52005 170.388 7.81872 169.893 8.15472 169.604C8.49072 169.305 8.87805 169.156 9.31672 169.156C9.67138 169.156 10.0027 169.259 10.3107 169.464C10.6094 169.669 10.852 169.973 11.0387 170.374C11.2254 170.775 11.3187 171.279 11.3187 171.886ZM11.3187 165.494C11.3187 166.063 11.132 166.511 10.7587 166.838C10.376 167.164 9.72272 167.323 8.79872 167.314L5.31272 167.272L5.10272 168.266L4.59872 168.266L4.40272 166.208L4.54272 166.068L6.50272 166.138L8.67272 166.138C9.27938 166.138 9.70872 166.044 9.96072 165.858C10.2034 165.671 10.3247 165.391 10.3247 165.018C10.3247 164.364 10.0214 163.711 9.41472 163.058L5.29872 163.016L5.10272 164.01L4.59872 164.01L4.40272 161.98L4.54272 161.84L6.50272 161.882L10.4367 161.882L10.6327 160.93L11.1367 160.93L11.2487 162.876L10.0027 163.016C10.46 163.389 10.796 163.79 11.0107 164.22C11.216 164.64 11.3187 165.064 11.3187 165.494ZM11.1367 159.893L10.6327 159.893L10.4367 158.857C10.082 158.848 9.69938 158.843 9.28872 158.843C8.87805 158.834 8.51405 158.829 8.19672 158.829L7.52472 158.829C7.14205 158.829 6.82472 158.834 6.57272 158.843C6.32072 158.843 6.05472 158.853 5.77472 158.871L5.64872 159.977L5.15872 159.977L4.30472 158.017L4.44472 157.807L5.56472 157.695C5.19138 157.35 4.88805 156.953 4.65472 156.505C4.42138 156.057 4.30472 155.619 4.30472 155.189C4.30472 154.583 4.51005 154.135 4.92072 153.845C5.32205 153.547 5.98005 153.397 6.89472 153.397L8.19672 153.397C8.51405 153.397 8.87805 153.397 9.28872 153.397C9.69938 153.388 10.082 153.379 10.4367 153.369L10.6327 152.389L11.1367 152.389L11.1367 155.637L10.6327 155.637L10.4367 154.601C10.0914 154.592 9.71338 154.587 9.30272 154.587C8.88272 154.578 8.51405 154.573 8.19672 154.573L7.00672 154.573C6.36272 154.573 5.91938 154.667 5.67672 154.853C5.43405 155.031 5.31272 155.325 5.31272 155.735C5.31272 156.053 5.37805 156.361 5.50872 156.659C5.63938 156.958 5.85405 157.285 6.15272 157.639L8.19672 157.639C8.50472 157.639 8.86872 157.639 9.28872 157.639C9.69938 157.63 10.082 157.621 10.4367 157.611L10.6327 156.645L11.1367 156.645L11.1367 159.893ZM8.33672 148.645C8.33672 148.197 8.16872 147.847 7.83272 147.595C7.49672 147.343 7.07205 147.217 6.55872 147.217C6.06405 147.217 5.66272 147.339 5.35472 147.581C5.03738 147.815 4.87872 148.151 4.87872 148.589C4.87872 149.028 5.04205 149.373 5.36872 149.625C5.68605 149.877 6.10138 150.003 6.61472 150.003C7.12805 150.003 7.54338 149.887 7.86072 149.653C8.17805 149.411 8.33672 149.075 8.33672 148.645ZM8.89672 148.617C8.89672 148.981 8.84538 149.327 8.74272 149.653C9.04138 149.887 9.34005 150.003 9.63872 150.003C9.82538 150.003 9.97472 149.952 10.0867 149.849C10.1987 149.737 10.2547 149.518 10.2547 149.191L10.2547 147.357C10.2547 146.583 10.4134 146.013 10.7307 145.649C11.048 145.285 11.4914 145.103 12.0607 145.103C12.462 145.103 12.8494 145.234 13.2227 145.495C13.596 145.747 13.8994 146.13 14.1327 146.643C14.366 147.157 14.4827 147.796 14.4827 148.561C14.4827 149.579 14.324 150.316 14.0067 150.773C13.6894 151.231 13.2834 151.459 12.7887 151.459C12.49 151.459 12.21 151.361 11.9487 151.165C11.6967 150.96 11.4447 150.601 11.1927 150.087C11.0247 150.703 10.67 151.011 10.1287 151.011C9.90472 151.011 9.67138 150.941 9.42872 150.801C9.18605 150.652 8.90138 150.405 8.57472 150.059C8.38805 150.395 8.13138 150.661 7.80472 150.857C7.47805 151.044 7.07672 151.137 6.60072 151.137C5.86338 151.137 5.29872 150.899 4.90672 150.423C4.50538 149.938 4.30472 149.331 4.30472 148.603C4.30472 147.866 4.48672 147.273 4.85072 146.825L4.30471 145.243L4.44472 145.033L5.32672 145.033L5.32672 146.405C5.67205 146.191 6.09672 146.083 6.60072 146.083C7.33805 146.083 7.90738 146.326 8.30872 146.811C8.70072 147.287 8.89672 147.889 8.89672 148.617ZM12.5647 150.311C13.022 150.311 13.3487 150.148 13.5447 149.821C13.7407 149.495 13.8387 149.056 13.8387 148.505C13.8387 147.74 13.6987 147.157 13.4187 146.755C13.148 146.354 12.8167 146.153 12.4247 146.153C12.1167 146.153 11.8554 146.261 11.6407 146.475C11.4354 146.69 11.3327 147.049 11.3327 147.553L11.3327 149.191C11.3327 149.285 11.328 149.383 11.3187 149.485C11.3187 149.579 11.314 149.672 11.3047 149.765C11.51 149.961 11.7107 150.101 11.9067 150.185C12.112 150.269 12.3314 150.311 12.5647 150.311ZM11.1367 144.504L10.6327 144.504L10.4367 143.384C10.054 143.375 9.68072 143.37 9.31672 143.37C8.94338 143.361 8.57005 143.356 8.19672 143.356L2.05071 143.356L1.91071 144.504L1.42072 144.504L0.790715 142.32L0.902715 142.124L2.89071 142.18L8.19672 142.18C8.57005 142.18 8.94338 142.18 9.31672 142.18C9.69005 142.171 10.0634 142.161 10.4367 142.152L10.6327 141.032L11.1367 141.032L11.1367 144.504ZM11.2767 134.997C11.2767 135.333 11.1787 135.613 10.9827 135.837C10.7867 136.061 10.5254 136.201 10.1987 136.257C10.572 136.639 10.852 136.975 11.0387 137.265C11.2254 137.554 11.3187 137.904 11.3187 138.315C11.3187 138.828 11.174 139.271 10.8847 139.645C10.586 140.009 10.1474 140.191 9.56872 140.191C9.29805 140.191 9.04605 140.13 8.81272 140.009C8.57938 139.878 8.35072 139.645 8.12672 139.309C7.90272 138.973 7.67872 138.492 7.45471 137.867C7.38005 137.652 7.30071 137.405 7.21672 137.125C7.13272 136.845 7.05805 136.565 6.99271 136.285L6.64271 136.285C5.96138 136.285 5.50871 136.387 5.28471 136.593C5.06071 136.798 4.94871 137.134 4.94871 137.601C4.94871 137.703 4.95338 137.82 4.96271 137.951C4.97205 138.072 4.99538 138.207 5.03271 138.357L5.94271 138.623C6.39071 138.753 6.61471 138.996 6.61471 139.351C6.61471 139.743 6.42338 139.962 6.04071 140.009C5.50871 139.878 5.08871 139.57 4.78071 139.085C4.46338 138.59 4.30471 137.988 4.30471 137.279C4.30471 136.541 4.49138 135.995 4.86471 135.641C5.22871 135.286 5.85405 135.109 6.74071 135.109L9.72271 135.109C10.0214 135.109 10.236 135.062 10.3667 134.969C10.488 134.875 10.5487 134.754 10.5487 134.605C10.5487 134.483 10.5207 134.381 10.4647 134.297C10.4087 134.213 10.334 134.133 10.2407 134.059L10.5487 133.779C10.8194 133.947 11.0107 134.133 11.1227 134.339C11.2254 134.535 11.2767 134.754 11.2767 134.997ZM9.35872 138.945C9.73205 138.945 9.99805 138.837 10.1567 138.623C10.3154 138.408 10.3947 138.142 10.3947 137.825C10.3947 137.685 10.376 137.554 10.3387 137.433C10.3014 137.302 10.2314 137.148 10.1287 136.971C10.0167 136.793 9.85805 136.565 9.65271 136.285L7.51071 136.285C7.57605 136.527 7.65071 136.765 7.73471 136.999C7.80938 137.232 7.87471 137.423 7.93071 137.573C8.08938 137.974 8.25271 138.273 8.42072 138.469C8.58871 138.665 8.75205 138.795 8.91072 138.861C9.06938 138.917 9.21872 138.945 9.35872 138.945ZM11.3187 130.898C11.3187 131.29 11.272 131.649 11.1787 131.976C11.0947 132.302 10.964 132.638 10.7867 132.984L9.24671 133.04L9.24671 132.27L10.4647 132.004C10.614 131.677 10.6887 131.299 10.6887 130.87C10.6887 130.338 10.5907 129.946 10.3947 129.694C10.1987 129.432 9.94205 129.302 9.62471 129.302C9.32605 129.302 9.08805 129.409 8.91071 129.624C8.72405 129.838 8.55605 130.165 8.40671 130.604L8.16871 131.248C7.98205 131.761 7.73938 132.172 7.44071 132.48C7.14205 132.788 6.75471 132.942 6.27871 132.942C5.93338 132.942 5.61138 132.848 5.31271 132.662C5.01405 132.475 4.77138 132.2 4.58471 131.836C4.39805 131.472 4.30471 131.028 4.30471 130.506C4.30471 130.123 4.35605 129.778 4.45871 129.47C4.55205 129.152 4.69205 128.844 4.87871 128.546L6.30671 128.602L6.30671 129.33L5.18671 129.554C5.02805 129.871 4.94871 130.193 4.94871 130.52C4.94871 130.949 5.03738 131.276 5.21471 131.5C5.38271 131.714 5.61138 131.822 5.90071 131.822C6.20871 131.822 6.44205 131.728 6.60071 131.542C6.75938 131.346 6.92738 131.01 7.10471 130.534L7.25871 130.1C7.52005 129.4 7.81871 128.905 8.15471 128.616C8.49071 128.317 8.87805 128.168 9.31671 128.168C9.67138 128.168 10.0027 128.27 10.3107 128.476C10.6094 128.681 10.852 128.984 11.0387 129.386C11.2254 129.787 11.3187 130.291 11.3187 130.898ZM11.3187 124.827C11.3187 125.219 11.272 125.579 11.1787 125.905C11.0947 126.232 10.964 126.568 10.7867 126.913L9.24671 126.969L9.24671 126.199L10.4647 125.933C10.614 125.607 10.6887 125.229 10.6887 124.799C10.6887 124.267 10.5907 123.875 10.3947 123.623C10.1987 123.362 9.94205 123.231 9.62471 123.231C9.32605 123.231 9.08805 123.339 8.91071 123.553C8.72405 123.768 8.55605 124.095 8.40671 124.533L8.16871 125.177C7.98205 125.691 7.73938 126.101 7.44071 126.409C7.14205 126.717 6.75471 126.871 6.27871 126.871C5.93338 126.871 5.61138 126.778 5.31271 126.591C5.01405 126.405 4.77138 126.129 4.58471 125.765C4.39805 125.401 4.30471 124.958 4.30471 124.435C4.30471 124.053 4.35605 123.707 4.45871 123.399C4.55205 123.082 4.69205 122.774 4.87871 122.475L6.30671 122.531L6.30671 123.259L5.18671 123.483C5.02805 123.801 4.94871 124.123 4.94871 124.449C4.94871 124.879 5.03738 125.205 5.21471 125.429C5.38271 125.644 5.61138 125.751 5.90071 125.751C6.20871 125.751 6.44205 125.658 6.60071 125.471C6.75938 125.275 6.92738 124.939 7.10471 124.463L7.25871 124.029C7.52005 123.329 7.81871 122.835 8.15471 122.545C8.49071 122.247 8.87805 122.097 9.31671 122.097C9.67138 122.097 10.0027 122.2 10.3107 122.405C10.6094 122.611 10.852 122.914 11.0387 123.315C11.2254 123.717 11.3187 124.221 11.3187 124.827ZM4.94871 117.791C4.94871 118.052 5.02338 118.318 5.17271 118.589C5.32205 118.85 5.56005 119.079 5.88671 119.275C6.21338 119.462 6.64738 119.583 7.18871 119.639L7.18871 117.091C7.18871 116.755 7.11871 116.536 6.97871 116.433C6.83871 116.321 6.66605 116.265 6.46071 116.265C6.19005 116.265 5.94271 116.335 5.71871 116.475C5.48538 116.606 5.29871 116.788 5.15871 117.021C5.01871 117.245 4.94871 117.502 4.94871 117.791ZM11.3187 117.805C11.3187 118.748 11.0154 119.504 10.4087 120.073C9.79271 120.642 8.94805 120.927 7.87471 120.927C7.15605 120.927 6.53071 120.782 5.99871 120.493C5.46671 120.194 5.05138 119.802 4.75271 119.317C4.45405 118.822 4.30471 118.286 4.30471 117.707C4.30471 117.222 4.41205 116.783 4.62671 116.391C4.84138 115.999 5.14938 115.686 5.55071 115.453C5.94271 115.22 6.42338 115.103 6.99271 115.103C7.15138 115.103 7.30071 115.112 7.44071 115.131C7.57138 115.15 7.68338 115.173 7.77671 115.201L7.77671 119.667C8.63538 119.648 9.28871 119.434 9.73671 119.023C10.1847 118.612 10.4087 118.071 10.4087 117.399C10.4087 116.951 10.32 116.578 10.1427 116.279C9.95605 115.98 9.71805 115.705 9.42871 115.453L9.69471 115.117C10.1894 115.378 10.586 115.733 10.8847 116.181C11.174 116.629 11.3187 117.17 11.3187 117.805ZM11.3187 111.62C11.3187 112.012 11.272 112.372 11.1787 112.698C11.0947 113.025 10.964 113.361 10.7867 113.706L9.24671 113.762L9.24671 112.992L10.4647 112.726C10.614 112.4 10.6887 112.022 10.6887 111.592C10.6887 111.06 10.5907 110.668 10.3947 110.416C10.1987 110.155 9.94205 110.024 9.62471 110.024C9.32605 110.024 9.08805 110.132 8.91071 110.346C8.72405 110.561 8.55605 110.888 8.40671 111.326L8.16871 111.97C7.98205 112.484 7.73938 112.894 7.44071 113.202C7.14205 113.51 6.75471 113.664 6.27871 113.664C5.93338 113.664 5.61138 113.571 5.31271 113.384C5.01405 113.198 4.77138 112.922 4.58471 112.558C4.39805 112.194 4.30471 111.751 4.30471 111.228C4.30471 110.846 4.35605 110.5 4.45871 110.192C4.55205 109.875 4.69205 109.567 4.87871 109.268L6.30671 109.324L6.30671 110.052L5.18671 110.276C5.02805 110.594 4.94871 110.916 4.94871 111.242C4.94871 111.672 5.03738 111.998 5.21471 112.222C5.38271 112.437 5.61138 112.544 5.90071 112.544C6.20871 112.544 6.44205 112.451 6.60071 112.264C6.75938 112.068 6.92738 111.732 7.10471 111.256L7.25871 110.822C7.52005 110.122 7.81871 109.628 8.15471 109.338C8.49071 109.04 8.87805 108.89 9.31671 108.89C9.67138 108.89 10.0027 108.993 10.3107 109.198C10.6094 109.404 10.852 109.707 11.0387 110.108C11.2254 110.51 11.3187 111.014 11.3187 111.62ZM11.1367 104.592L10.6327 104.592L10.4367 103.542C10.082 103.533 9.69938 103.528 9.28871 103.528C8.86871 103.519 8.50471 103.514 8.19671 103.514L7.53871 103.514C7.15605 103.514 6.83871 103.519 6.58671 103.528C6.32538 103.528 6.05471 103.538 5.77471 103.556L5.64871 104.676L5.15871 104.676L4.30471 102.52L4.44471 102.31L6.34871 102.352L8.19671 102.352C8.50471 102.352 8.86871 102.352 9.28871 102.352C9.69938 102.343 10.082 102.334 10.4367 102.324L10.6327 101.344L11.1367 101.344L11.1367 104.592ZM2.76471 102.94C2.76471 103.202 2.68071 103.426 2.51271 103.612C2.34471 103.79 2.13005 103.878 1.86871 103.878C1.59805 103.878 1.38338 103.79 1.22471 103.612C1.05671 103.426 0.972713 103.202 0.972713 102.94C0.972713 102.679 1.05671 102.46 1.22471 102.282C1.38338 102.096 1.59805 102.002 1.86871 102.002C2.13005 102.002 2.34471 102.096 2.51271 102.282C2.68071 102.46 2.76471 102.679 2.76471 102.94ZM11.1367 100.352L10.6327 100.352L10.4367 99.3165C10.082 99.3071 9.69938 99.3025 9.28871 99.3025C8.87805 99.2931 8.51405 99.2885 8.19671 99.2885L7.52471 99.2885C7.14205 99.2885 6.82471 99.2931 6.57271 99.3025C6.32071 99.3025 6.05471 99.3118 5.77471 99.3305L5.64871 100.436L5.15871 100.436L4.30471 98.4765L4.44471 98.2665L5.56471 98.1545C5.19138 97.8091 4.88805 97.4125 4.65471 96.9645C4.42138 96.5165 4.30471 96.0778 4.30471 95.6485C4.30471 95.0418 4.51005 94.5938 4.92071 94.3045C5.32205 94.0058 5.98005 93.8565 6.89471 93.8565L8.19671 93.8565C8.51405 93.8565 8.87805 93.8565 9.28871 93.8565C9.69938 93.8471 10.082 93.8378 10.4367 93.8285L10.6327 92.8485L11.1367 92.8485L11.1367 96.0965L10.6327 96.0965L10.4367 95.0605C10.0914 95.0511 9.71338 95.0465 9.30271 95.0465C8.88271 95.0371 8.51405 95.0325 8.19671 95.0325L7.00671 95.0325C6.36271 95.0325 5.91938 95.1258 5.67671 95.3125C5.43405 95.4898 5.31271 95.7838 5.31271 96.1945C5.31271 96.5118 5.37805 96.8198 5.50871 97.1185C5.63938 97.4171 5.85405 97.7438 6.15271 98.0985L8.19671 98.0985C8.50471 98.0985 8.86871 98.0985 9.28871 98.0985C9.69938 98.0891 10.082 98.0798 10.4367 98.0705L10.6327 97.1045L11.1367 97.1045L11.1367 100.352ZM11.1367 88.6647L10.6327 88.6647L10.4367 87.6147C10.082 87.6053 9.69938 87.6007 9.28871 87.6007C8.86871 87.5913 8.50471 87.5867 8.19671 87.5867L7.53871 87.5867C7.15605 87.5867 6.83871 87.5913 6.58671 87.6007C6.32538 87.6007 6.05471 87.61 5.77471 87.6287L5.64871 88.7487L5.15871 88.7487L4.30471 86.5927L4.44471 86.3827L6.34871 86.4247L8.19671 86.4247C8.50471 86.4247 8.86871 86.4247 9.28871 86.4247C9.69938 86.4153 10.082 86.406 10.4367 86.3967L10.6327 85.4167L11.1367 85.4167L11.1367 88.6647ZM2.76471 87.0127C2.76471 87.274 2.68071 87.498 2.51271 87.6847C2.34471 87.862 2.13005 87.9507 1.86871 87.9507C1.59805 87.9507 1.38338 87.862 1.22471 87.6847C1.05671 87.498 0.972713 87.274 0.972713 87.0127C0.972713 86.7513 1.05671 86.532 1.22471 86.3547C1.38338 86.168 1.59805 86.0747 1.86871 86.0747C2.13005 86.0747 2.34471 86.168 2.51271 86.3547C2.68071 86.532 2.76471 86.7513 2.76471 87.0127ZM11.1367 84.4247L10.6327 84.4247L10.4367 83.3887C10.082 83.3794 9.69938 83.3747 9.28871 83.3747C8.87805 83.3654 8.51405 83.3607 8.19671 83.3607L7.52471 83.3607C7.14205 83.3607 6.82471 83.3654 6.57271 83.3747C6.32071 83.3747 6.05471 83.3841 5.77471 83.4027L5.64871 84.5087L5.15871 84.5087L4.30471 82.5487L4.44471 82.3387L5.56471 82.2267C5.19138 81.8814 4.88805 81.4847 4.65471 81.0367C4.42138 80.5887 4.30471 80.1501 4.30471 79.7207C4.30471 79.1141 4.51005 78.6661 4.92071 78.3767C5.32205 78.0781 5.98005 77.9287 6.89471 77.9287L8.19671 77.9287C8.51405 77.9287 8.87805 77.9287 9.28871 77.9287C9.69938 77.9194 10.082 77.9101 10.4367 77.9007L10.6327 76.9207L11.1367 76.9207L11.1367 80.1687L10.6327 80.1687L10.4367 79.1327C10.0914 79.1234 9.71338 79.1187 9.30271 79.1187C8.88271 79.1094 8.51405 79.1047 8.19671 79.1047L7.00671 79.1047C6.36271 79.1047 5.91938 79.1981 5.67671 79.3847C5.43405 79.5621 5.31271 79.8561 5.31271 80.2667C5.31271 80.5841 5.37805 80.8921 5.50871 81.1907C5.63938 81.4894 5.85405 81.8161 6.15271 82.1707L8.19671 82.1707C8.50471 82.1707 8.86871 82.1707 9.28871 82.1707C9.69938 82.1614 10.082 82.1521 10.4367 82.1427L10.6327 81.1767L11.1367 81.1767L11.1367 84.4247ZM14.6227 76.4105C14.6227 76.8305 14.534 77.1385 14.3567 77.3345C14.1794 77.5398 14.002 77.6472 13.8247 77.6565C13.442 77.5352 13.2507 77.2598 13.2507 76.8305C13.2507 76.6438 13.2834 76.4665 13.3487 76.2985C13.4234 76.1305 13.5307 75.9578 13.6707 75.7805L13.9087 75.4585C13.806 75.3558 13.68 75.2812 13.5307 75.2345C13.232 75.1225 12.7794 75.0478 12.1727 75.0105C11.5754 74.9638 10.754 74.9405 9.70871 74.9405L7.53871 74.9405C7.15605 74.9405 6.83871 74.9452 6.58671 74.9545C6.32538 74.9545 6.05471 74.9638 5.77471 74.9825L5.64871 76.0885L5.15871 76.0885L4.30471 73.9745L4.44471 73.7645L6.34871 73.8065L9.73671 73.8065C10.4927 73.8065 11.132 73.8252 11.6547 73.8625C12.1774 73.8998 12.6114 73.9838 12.9567 74.1145C13.3114 74.2358 13.6147 74.4225 13.8667 74.6745C14.1094 74.9172 14.296 75.1645 14.4267 75.4165C14.5574 75.6685 14.6227 75.9998 14.6227 76.4105ZM2.76471 74.3665C2.76471 74.6278 2.68071 74.8518 2.51271 75.0385C2.34471 75.2158 2.13005 75.3045 1.86871 75.3045C1.59805 75.3045 1.38338 75.2158 1.22471 75.0385C1.05671 74.8518 0.972712 74.6278 0.972712 74.3665C0.972712 74.0958 1.05671 73.8718 1.22471 73.6945C1.38338 73.5078 1.59804 73.4145 1.86871 73.4145C2.13005 73.4145 2.34471 73.5078 2.51271 73.6945C2.68071 73.8718 2.76471 74.0958 2.76471 74.3665ZM4.94871 68.8457C4.94871 69.107 5.02338 69.373 5.17271 69.6437C5.32205 69.905 5.56005 70.1337 5.88671 70.3297C6.21338 70.5164 6.64738 70.6377 7.18871 70.6937L7.18871 68.1457C7.18871 67.8097 7.11871 67.5904 6.97871 67.4877C6.83871 67.3757 6.66605 67.3197 6.46071 67.3197C6.19005 67.3197 5.94271 67.3897 5.71871 67.5297C5.48538 67.6604 5.29871 67.8424 5.15871 68.0757C5.01871 68.2997 4.94871 68.5564 4.94871 68.8457ZM11.3187 68.8597C11.3187 69.8024 11.0154 70.5584 10.4087 71.1277C9.79271 71.697 8.94805 71.9817 7.87471 71.9817C7.15605 71.9817 6.53071 71.837 5.99871 71.5477C5.46671 71.249 5.05138 70.857 4.75271 70.3717C4.45404 69.877 4.30471 69.3404 4.30471 68.7617C4.30471 68.2764 4.41204 67.8377 4.62671 67.4457C4.84138 67.0537 5.14938 66.741 5.55071 66.5077C5.94271 66.2744 6.42338 66.1577 6.99271 66.1577C7.15138 66.1577 7.30071 66.167 7.44071 66.1857C7.57138 66.2044 7.68338 66.2277 7.77671 66.2557L7.77671 70.7217C8.63538 70.703 9.28871 70.4884 9.73671 70.0777C10.1847 69.667 10.4087 69.1257 10.4087 68.4537C10.4087 68.0057 10.32 67.6324 10.1427 67.3337C9.95605 67.035 9.71805 66.7597 9.42871 66.5077L9.69471 66.1717C10.1894 66.433 10.586 66.7877 10.8847 67.2357C11.174 67.6837 11.3187 68.225 11.3187 68.8597ZM11.3187 61.737C11.3187 62.6983 11.006 63.4636 10.3807 64.033C9.75538 64.6023 8.90605 64.887 7.83271 64.887C7.09538 64.887 6.46538 64.7376 5.94271 64.439C5.41071 64.131 5.00471 63.7296 4.72471 63.235C4.44471 62.7403 4.30471 62.213 4.30471 61.653C4.30471 61.233 4.38404 60.8456 4.54271 60.491C4.70138 60.1363 4.92071 59.8423 5.20071 59.609C5.47138 59.3756 5.77938 59.231 6.12471 59.175C6.47938 59.2403 6.65671 59.455 6.65671 59.819C6.65671 60.0523 6.59604 60.2296 6.47471 60.351C6.34405 60.463 6.18071 60.5423 5.98471 60.589L5.06071 60.841C5.01404 60.9716 4.98604 61.1023 4.97671 61.233C4.95804 61.3543 4.94871 61.4756 4.94871 61.597C4.94871 62.1943 5.18204 62.689 5.64871 63.081C6.11538 63.4636 6.79671 63.655 7.69271 63.655C8.57005 63.655 9.24205 63.445 9.70871 63.025C10.1754 62.605 10.4087 62.0683 10.4087 61.415C10.4087 61.0136 10.32 60.645 10.1427 60.309C9.95604 59.973 9.69004 59.6976 9.34471 59.483L9.52671 59.133C10.1054 59.329 10.5487 59.6463 10.8567 60.085C11.1647 60.5236 11.3187 61.0743 11.3187 61.737ZM11.3187 55.769C11.3187 56.2544 11.188 56.6417 10.9267 56.931C10.6654 57.2204 10.264 57.365 9.72271 57.365C9.54538 57.365 9.37271 57.365 9.20471 57.365C9.02738 57.3557 8.80338 57.351 8.53271 57.351L5.22871 57.351L5.22871 58.513L4.61271 58.513L4.45871 57.267L2.58271 56.903L2.58271 56.063L4.48671 56.147L4.48671 54.257L5.22871 54.257L5.22871 56.161L9.56871 56.161C9.92338 56.161 10.1847 56.091 10.3527 55.951C10.5114 55.811 10.5907 55.6244 10.5907 55.391C10.5907 55.2324 10.558 55.083 10.4927 54.943C10.4274 54.7937 10.334 54.6304 10.2127 54.453L10.5767 54.117C11.0714 54.4997 11.3187 55.0504 11.3187 55.769ZM4.94871 50.3203C4.94871 50.5816 5.02338 50.8476 5.17271 51.1183C5.32204 51.3796 5.56004 51.6083 5.88671 51.8043C6.21338 51.991 6.64738 52.1123 7.18871 52.1683L7.18871 49.6203C7.18871 49.2843 7.11871 49.065 6.97871 48.9623C6.83871 48.8503 6.66604 48.7943 6.46071 48.7943C6.19004 48.7943 5.94271 48.8643 5.71871 49.0043C5.48538 49.135 5.29871 49.317 5.15871 49.5503C5.01871 49.7743 4.94871 50.031 4.94871 50.3203ZM11.3187 50.3343C11.3187 51.277 11.0154 52.033 10.4087 52.6023C9.79271 53.1716 8.94804 53.4563 7.87471 53.4563C7.15604 53.4563 6.53071 53.3116 5.99871 53.0223C5.46671 52.7236 5.05138 52.3316 4.75271 51.8463C4.45404 51.3516 4.30471 50.815 4.30471 50.2363C4.30471 49.751 4.41204 49.3123 4.62671 48.9203C4.84138 48.5283 5.14938 48.2156 5.55071 47.9823C5.94271 47.749 6.42338 47.6323 6.99271 47.6323C7.15138 47.6323 7.30071 47.6416 7.44071 47.6603C7.57138 47.679 7.68338 47.7023 7.77671 47.7303L7.77671 52.1963C8.63538 52.1776 9.28871 51.963 9.73671 51.5523C10.1847 51.1416 10.4087 50.6003 10.4087 49.9283C10.4087 49.4803 10.32 49.107 10.1427 48.8083C9.95604 48.5096 9.71804 48.2343 9.42871 47.9823L9.69471 47.6463C10.1894 47.9076 10.586 48.2623 10.8847 48.7103C11.174 49.1583 11.3187 49.6996 11.3187 50.3343ZM7.84671 45.0596C8.76138 45.0596 9.43804 44.8776 9.87671 44.5136C10.306 44.1403 10.5207 43.6736 10.5207 43.1136C10.5207 42.8056 10.46 42.5349 10.3387 42.3016C10.208 42.0589 9.99804 41.8069 9.70871 41.5456L5.83071 41.5456C5.55071 41.8629 5.35938 42.1476 5.25671 42.3996C5.15404 42.6516 5.10271 42.8943 5.10271 43.1276C5.10271 43.4729 5.20071 43.7949 5.39671 44.0936C5.58338 44.3829 5.88204 44.6163 6.29271 44.7936C6.69404 44.9709 7.21204 45.0596 7.84671 45.0596ZM11.2767 41.4056L10.3107 41.5036C10.628 41.7463 10.8754 42.0263 11.0527 42.3436C11.23 42.6516 11.3187 43.0249 11.3187 43.4636C11.3187 44.0329 11.174 44.5323 10.8847 44.9616C10.5954 45.3909 10.194 45.7269 9.68071 45.9696C9.15804 46.2029 8.55604 46.3196 7.87471 46.3196C7.15604 46.3196 6.53071 46.1889 5.99871 45.9276C5.46671 45.6663 5.05138 45.3116 4.75271 44.8636C4.45404 44.4156 4.30471 43.9069 4.30471 43.3376C4.30471 43.0109 4.37004 42.6983 4.50071 42.3996C4.63138 42.0916 4.86938 41.7929 5.21471 41.5036L2.05071 41.5036L1.91071 42.6936L1.42071 42.6936L0.790711 40.5096L0.902711 40.3136L2.89071 40.3696L10.4647 40.3696L10.6327 39.2356L11.1367 39.2356L11.2767 41.4056ZM11.1367 35.1786L10.6327 35.1786L10.4367 34.1426C10.082 34.1333 9.69938 34.1286 9.28871 34.1286C8.87804 34.1193 8.51404 34.1146 8.19671 34.1146L7.52471 34.1146C7.14204 34.1146 6.82471 34.1193 6.57271 34.1286C6.32071 34.1286 6.05471 34.138 5.77471 34.1566L5.64871 35.2626L5.15871 35.2626L4.30471 33.3026L4.44471 33.0926L5.56471 32.9806C5.19138 32.6353 4.88804 32.2386 4.65471 31.7906C4.42138 31.3426 4.30471 30.904 4.30471 30.4746C4.30471 29.868 4.51004 29.42 4.92071 29.1306C5.32204 28.832 5.98004 28.6826 6.89471 28.6826L8.19671 28.6826C8.51404 28.6826 8.87804 28.6826 9.28871 28.6826C9.69938 28.6733 10.082 28.664 10.4367 28.6546L10.6327 27.6746L11.1367 27.6746L11.1367 30.9226L10.6327 30.9226L10.4367 29.8866C10.0914 29.8773 9.71338 29.8726 9.30271 29.8726C8.88271 29.8633 8.51404 29.8586 8.19671 29.8586L7.00671 29.8586C6.36271 29.8586 5.91938 29.952 5.67671 30.1386C5.43404 30.316 5.31271 30.61 5.31271 31.0206C5.31271 31.338 5.37804 31.646 5.50871 31.9446C5.63938 32.2433 5.85404 32.57 6.15271 32.9246L8.19671 32.9246C8.50471 32.9246 8.86871 32.9246 9.28871 32.9246C9.69938 32.9153 10.082 32.906 10.4367 32.8966L10.6327 31.9306L11.1367 31.9306L11.1367 35.1786ZM4.99071 23.2342L4.48671 23.2342L4.48671 20.5042L4.99071 20.5042L5.14471 21.2602L11.0947 23.5142C12.336 23.9809 13.232 24.4336 13.7827 24.8722C14.3427 25.3016 14.6227 25.8056 14.6227 26.3842C14.6227 26.7296 14.534 27.0329 14.3567 27.2942C14.1887 27.5462 13.9694 27.6722 13.6987 27.6722C13.4934 27.6256 13.3394 27.5136 13.2367 27.3362C13.134 27.1496 13.0827 26.9489 13.0827 26.7342C13.0827 26.5476 13.12 26.3749 13.1947 26.2162C13.2787 26.0576 13.4187 25.8849 13.6147 25.6982L13.6847 25.6282C13.4327 25.3296 13.1247 25.0776 12.7607 24.8722C12.406 24.6669 12.042 24.4989 11.6687 24.3682L11.5007 24.3122L5.10271 26.8462L4.99071 27.6162L4.48671 27.6162L4.48671 24.2562L5.00471 24.2562L5.14471 25.4882L9.91871 23.7382L5.15871 22.0162L4.99071 23.2342ZM11.1367 20.4316L10.6327 20.4316L10.4367 19.3116C10.054 19.3023 9.68071 19.2976 9.31671 19.2976C8.94338 19.2883 8.57004 19.2836 8.19671 19.2836L2.05071 19.2836L1.91071 20.4316L1.42071 20.4316L0.79071 18.2476L0.90271 18.0516L2.89071 18.1076L8.19671 18.1076C8.57004 18.1076 8.94338 18.1076 9.31671 18.1076C9.69004 18.0983 10.0634 18.0889 10.4367 18.0796L10.6327 16.9596L11.1367 16.9596L11.1367 20.4316ZM11.3187 12.7757C11.3187 13.317 11.1927 13.835 10.9407 14.3297C10.6794 14.815 10.292 15.2117 9.77871 15.5197C9.25604 15.8277 8.61204 15.9817 7.84671 15.9817C7.07204 15.9817 6.42338 15.8277 5.90071 15.5197C5.36871 15.2117 4.97204 14.815 4.71071 14.3297C4.44004 13.835 4.30471 13.317 4.30471 12.7757C4.30471 12.2344 4.44004 11.721 4.71071 11.2357C4.97204 10.741 5.36871 10.3397 5.90071 10.0317C6.42338 9.71436 7.07204 9.55569 7.84671 9.55569C8.61204 9.55569 9.25604 9.71436 9.77871 10.0317C10.292 10.3397 10.6794 10.741 10.9407 11.2357C11.1927 11.721 11.3187 12.2344 11.3187 12.7757ZM10.6887 12.7757C10.6887 12.169 10.4507 11.7024 9.97471 11.3757C9.48938 11.049 8.78004 10.8857 7.84671 10.8857C6.90404 10.8857 6.18538 11.049 5.69071 11.3757C5.19604 11.7024 4.94871 12.169 4.94871 12.7757C4.94871 13.3824 5.19604 13.849 5.69071 14.1757C6.18538 14.493 6.90404 14.6517 7.84671 14.6517C8.78004 14.6517 9.48938 14.493 9.97471 14.1757C10.4507 13.849 10.6887 13.3824 10.6887 12.7757ZM11.1367 8.3681L10.6327 8.3681L10.4367 7.3321C10.082 7.32277 9.69938 7.3181 9.28871 7.3181C8.87804 7.30877 8.51404 7.3041 8.19671 7.3041L7.52471 7.3041C7.14204 7.3041 6.82471 7.30877 6.57271 7.3181C6.32071 7.3181 6.05471 7.32743 5.77471 7.3461L5.64871 8.4521L5.15871 8.4521L4.30471 6.4921L4.44471 6.2821L5.56471 6.1701C5.19138 5.82477 4.88804 5.4281 4.65471 4.9801C4.42138 4.5321 4.30471 4.09343 4.30471 3.6641C4.30471 3.05743 4.51004 2.60943 4.92071 2.3201C5.32204 2.02143 5.98004 1.8721 6.89471 1.8721L8.19671 1.8721C8.51404 1.8721 8.87804 1.8721 9.28871 1.8721C9.69938 1.86277 10.082 1.85343 10.4367 1.8441L10.6327 0.8641L11.1367 0.8641L11.1367 4.1121L10.6327 4.1121L10.4367 3.0761C10.0914 3.06677 9.71338 3.0621 9.30271 3.0621C8.88271 3.05277 8.51404 3.0481 8.19671 3.0481L7.00671 3.0481C6.36271 3.0481 5.91938 3.14143 5.67671 3.3281C5.43404 3.50543 5.31271 3.79943 5.31271 4.2101C5.31271 4.52743 5.37804 4.83543 5.50871 5.1341C5.63938 5.43277 5.85404 5.75943 6.15271 6.1141L8.19671 6.1141C8.50471 6.1141 8.86871 6.1141 9.28871 6.1141C9.69938 6.10477 10.082 6.09543 10.4367 6.0861L10.6327 5.1201L11.1367 5.1201L11.1367 8.3681Z" fill="#222222"/>
</svg>
