<svg width="15" height="214" viewBox="0 0 15 214" fill="none" xmlns="http://www.w3.org/2000/svg">
<path d="M2.5612 209.683L2.5612 210.523C3.15854 210.532 3.76987 210.542 4.3952 210.551C5.0112 210.551 5.63187 210.551 6.2572 210.551L6.9292 210.551L6.9292 209.627C6.9292 208.778 6.72387 208.171 6.3132 207.807C5.8932 207.443 5.35654 207.261 4.7032 207.261C4.02187 207.261 3.49454 207.457 3.1212 207.849C2.74787 208.232 2.5612 208.843 2.5612 209.683ZM2.4912 213.197L1.9172 213.197L1.9172 209.431C1.9172 208.246 2.17854 207.359 2.7012 206.771C3.21454 206.174 3.88187 205.875 4.7032 205.875C5.22587 205.875 5.70654 206.006 6.1452 206.267C6.58387 206.528 6.93387 206.948 7.1952 207.527C7.45654 208.096 7.5872 208.862 7.5872 209.823L7.5872 210.551C8.0912 210.551 8.58587 210.551 9.0712 210.551C9.55654 210.542 10.0512 210.532 10.5552 210.523L10.7092 209.221L11.2832 209.221L11.2832 213.197L10.7092 213.197L10.5552 211.909C9.9672 211.89 9.36987 211.881 8.7632 211.881C8.15654 211.881 7.54987 211.881 6.9432 211.881L6.2572 211.881C5.65054 211.881 5.04854 211.881 4.4512 211.881C3.84454 211.881 3.24254 211.89 2.6452 211.909L2.4912 213.197ZM11.4652 202.447C11.4652 203.016 11.2785 203.464 10.9052 203.791C10.5225 204.118 9.8692 204.276 8.9452 204.267L5.4592 204.225L5.2492 205.219L4.7452 205.219L4.5492 203.161L4.6892 203.021L6.6492 203.091L8.8192 203.091C9.42587 203.091 9.8552 202.998 10.1072 202.811C10.3499 202.624 10.4712 202.344 10.4712 201.971C10.4712 201.318 10.1679 200.664 9.5612 200.011L5.4452 199.969L5.2492 200.963L4.7452 200.963L4.5492 198.933L4.6892 198.793L6.6492 198.835L10.5832 198.835L10.7792 197.883L11.2832 197.883L11.3952 199.829L10.1492 199.969C10.6065 200.342 10.9425 200.744 11.1572 201.173C11.3625 201.593 11.4652 202.018 11.4652 202.447ZM11.2832 197.001L10.7932 197.001L5.2352 192.983L5.2352 195.811L6.7892 196.189L6.7332 196.917L4.6332 196.805L4.6332 191.583L5.1372 191.583L10.6952 195.587L10.6952 192.521L9.0012 192.101L9.0012 191.373L11.2832 191.513L11.2832 197.001ZM11.2832 190.616L10.7932 190.616L5.2352 186.598L5.2352 189.426L6.7892 189.804L6.7332 190.532L4.6332 190.42L4.6332 185.198L5.1372 185.198L10.6952 189.202L10.6952 186.136L9.0012 185.716L9.0012 184.988L11.2832 185.128L11.2832 190.616ZM11.2832 184.287L10.7792 184.287L10.5832 183.167C10.2005 183.158 9.8272 183.153 9.4632 183.153C9.08987 183.144 8.71654 183.139 8.3432 183.139L2.1972 183.139L2.0572 184.287L1.5672 184.287L0.937201 182.103L1.0492 181.907L3.0372 181.963L8.3432 181.963C8.71654 181.963 9.08987 181.963 9.4632 181.963C9.83653 181.954 10.2099 181.945 10.5832 181.935L10.7792 180.815L11.2832 180.815L11.2832 184.287ZM5.0952 176.701C5.0952 176.963 5.16987 177.229 5.3192 177.499C5.46853 177.761 5.70653 177.989 6.0332 178.185C6.35987 178.372 6.79387 178.493 7.3352 178.549L7.3352 176.001C7.3352 175.665 7.2652 175.446 7.1252 175.343C6.9852 175.231 6.81253 175.175 6.6072 175.175C6.33653 175.175 6.0892 175.245 5.8652 175.385C5.63187 175.516 5.4452 175.698 5.3052 175.931C5.1652 176.155 5.0952 176.412 5.0952 176.701ZM11.4652 176.715C11.4652 177.658 11.1619 178.414 10.5552 178.983C9.9392 179.553 9.09453 179.837 8.0212 179.837C7.30253 179.837 6.6772 179.693 6.1452 179.403C5.6132 179.105 5.19787 178.713 4.8992 178.227C4.60053 177.733 4.4512 177.196 4.4512 176.617C4.4512 176.132 4.55853 175.693 4.7732 175.301C4.98787 174.909 5.29587 174.597 5.6972 174.363C6.0892 174.13 6.56987 174.013 7.1392 174.013C7.29787 174.013 7.4472 174.023 7.5872 174.041C7.71787 174.06 7.82987 174.083 7.9232 174.111L7.9232 178.577C8.78187 178.559 9.4352 178.344 9.8832 177.933C10.3312 177.523 10.5552 176.981 10.5552 176.309C10.5552 175.861 10.4665 175.488 10.2892 175.189C10.1025 174.891 9.86453 174.615 9.5752 174.363L9.8412 174.027C10.3359 174.289 10.7325 174.643 11.0312 175.091C11.3205 175.539 11.4652 176.081 11.4652 176.715ZM2.4912 163.595L1.9172 163.595L1.9172 159.647L2.4912 159.647L2.6452 160.935C3.2332 160.944 3.83053 160.954 4.4372 160.963C5.04387 160.963 5.65053 160.963 6.2572 160.963L6.9432 160.963C7.54053 160.963 8.14253 160.963 8.7492 160.963C9.34653 160.954 9.94853 160.944 10.5552 160.935L10.7092 159.647L11.2832 159.647L11.2832 163.595L10.7092 163.595L10.5552 162.307C9.95787 162.288 9.3512 162.279 8.7352 162.279C8.10987 162.279 7.47053 162.279 6.8172 162.279L6.8172 166.801C7.52653 166.801 8.18453 166.801 8.7912 166.801C9.39787 166.792 9.99053 166.782 10.5692 166.773L10.7092 165.499L11.2832 165.499L11.2832 169.447L10.7092 169.447L10.5552 168.159C9.9672 168.14 9.36987 168.131 8.7632 168.131C8.15653 168.131 7.54987 168.131 6.9432 168.131L6.2572 168.131C5.65053 168.131 5.04853 168.131 4.4512 168.131C3.84453 168.131 3.24253 168.14 2.6452 168.159L2.4912 169.447L1.9172 169.447L1.9172 165.499L2.4912 165.499L2.6312 166.773C3.22853 166.782 3.82587 166.792 4.4232 166.801C5.02053 166.801 5.5992 166.801 6.1592 166.801L6.1592 162.279C5.5432 162.279 4.94587 162.279 4.3672 162.279C3.78853 162.279 3.21453 162.288 2.6452 162.307L2.4912 163.595ZM11.4652 155.454C11.4652 155.995 11.3392 156.513 11.0872 157.008C10.8259 157.493 10.4385 157.89 9.9252 158.198C9.40253 158.506 8.75853 158.66 7.9932 158.66C7.21853 158.66 6.56987 158.506 6.0472 158.198C5.5152 157.89 5.11853 157.493 4.8572 157.008C4.58653 156.513 4.4512 155.995 4.4512 155.454C4.4512 154.912 4.58653 154.399 4.8572 153.914C5.11853 153.419 5.5152 153.018 6.0472 152.71C6.56987 152.392 7.21853 152.234 7.9932 152.234C8.75853 152.234 9.40253 152.392 9.9252 152.71C10.4385 153.018 10.8259 153.419 11.0872 153.914C11.3392 154.399 11.4652 154.912 11.4652 155.454ZM10.8352 155.454C10.8352 154.847 10.5972 154.38 10.1212 154.054C9.63587 153.727 8.92653 153.564 7.9932 153.564C7.05053 153.564 6.33187 153.727 5.8372 154.054C5.34253 154.38 5.0952 154.847 5.0952 155.454C5.0952 156.06 5.34253 156.527 5.8372 156.854C6.33187 157.171 7.05053 157.33 7.9932 157.33C8.92653 157.33 9.63587 157.171 10.1212 156.854C10.5972 156.527 10.8352 156.06 10.8352 155.454ZM11.2832 151.323L10.7792 151.323L10.5972 150.273C10.2425 150.263 9.85987 150.259 9.4492 150.259C9.0292 150.249 8.66053 150.245 8.3432 150.245L2.1972 150.245L2.0572 151.393L1.5672 151.393L0.9372 149.251L1.0492 149.055L3.0372 149.111L5.5292 149.111C5.15587 148.775 4.8852 148.429 4.7172 148.075C4.53987 147.711 4.4512 147.337 4.4512 146.955C4.4512 146.46 4.58653 146.012 4.8572 145.611C5.12787 145.209 5.51987 144.892 6.0332 144.659C6.54653 144.416 7.1672 144.295 7.8952 144.295C8.61387 144.295 9.24387 144.421 9.7852 144.673C10.3172 144.925 10.7325 145.27 11.0312 145.709C11.3205 146.138 11.4652 146.628 11.4652 147.179C11.4652 147.505 11.3952 147.832 11.2552 148.159C11.1152 148.485 10.8539 148.803 10.4712 149.111L11.4232 149.223L11.2832 151.323ZM5.2492 147.333C5.2492 147.547 5.3052 147.795 5.4172 148.075C5.5292 148.355 5.74387 148.686 6.0612 149.069L9.8972 149.069C10.1679 148.779 10.3639 148.495 10.4852 148.215C10.6065 147.935 10.6672 147.664 10.6672 147.403C10.6672 146.908 10.4525 146.479 10.0232 146.115C9.58453 145.741 8.91253 145.555 8.0072 145.555C7.1112 145.555 6.42987 145.723 5.9632 146.059C5.4872 146.385 5.2492 146.81 5.2492 147.333ZM11.4652 139.827C11.4652 140.368 11.3392 140.886 11.0872 141.381C10.8259 141.866 10.4385 142.263 9.9252 142.571C9.40253 142.879 8.75853 143.033 7.9932 143.033C7.21853 143.033 6.56987 142.879 6.0472 142.571C5.5152 142.263 5.11853 141.866 4.8572 141.381C4.58653 140.886 4.4512 140.368 4.4512 139.827C4.4512 139.285 4.58653 138.772 4.8572 138.287C5.11853 137.792 5.5152 137.391 6.0472 137.083C6.56987 136.765 7.21853 136.607 7.9932 136.607C8.75853 136.607 9.40253 136.765 9.9252 137.083C10.4385 137.391 10.8259 137.792 11.0872 138.287C11.3392 138.772 11.4652 139.285 11.4652 139.827ZM10.8352 139.827C10.8352 139.22 10.5972 138.753 10.1212 138.427C9.63587 138.1 8.92653 137.937 7.9932 137.937C7.05053 137.937 6.33187 138.1 5.8372 138.427C5.34253 138.753 5.0952 139.22 5.0952 139.827C5.0952 140.433 5.34253 140.9 5.8372 141.227C6.33187 141.544 7.05053 141.703 7.9932 141.703C8.92653 141.703 9.63587 141.544 10.1212 141.227C10.5972 140.9 10.8352 140.433 10.8352 139.827ZM11.2832 132.292L10.7792 132.292L10.5972 131.242C10.2425 131.232 9.85987 131.228 9.4492 131.228C9.0292 131.218 8.66053 131.214 8.3432 131.214L2.1972 131.214L2.0572 132.362L1.5672 132.362L0.937199 130.22L1.0492 130.024L3.0372 130.08L5.5292 130.08C5.15587 129.744 4.8852 129.398 4.7172 129.044C4.53987 128.68 4.4512 128.306 4.4512 127.924C4.4512 127.429 4.58653 126.981 4.8572 126.58C5.12787 126.178 5.51987 125.861 6.0332 125.628C6.54653 125.385 7.1672 125.264 7.8952 125.264C8.61387 125.264 9.24387 125.39 9.7852 125.642C10.3172 125.894 10.7325 126.239 11.0312 126.678C11.3205 127.107 11.4652 127.597 11.4652 128.148C11.4652 128.474 11.3952 128.801 11.2552 129.128C11.1152 129.454 10.8539 129.772 10.4712 130.08L11.4232 130.192L11.2832 132.292ZM5.2492 128.302C5.2492 128.516 5.3052 128.764 5.4172 129.044C5.5292 129.324 5.74387 129.655 6.0612 130.038L9.8972 130.038C10.1679 129.748 10.3639 129.464 10.4852 129.184C10.6065 128.904 10.6672 128.633 10.6672 128.372C10.6672 127.877 10.4525 127.448 10.0232 127.084C9.58453 126.71 8.91253 126.524 8.0072 126.524C7.1112 126.524 6.42987 126.692 5.9632 127.028C5.4872 127.354 5.2492 127.779 5.2492 128.302ZM11.4232 118.807C11.4232 119.143 11.3252 119.423 11.1292 119.647C10.9332 119.871 10.6719 120.011 10.3452 120.067C10.7185 120.45 10.9985 120.786 11.1852 121.075C11.3719 121.365 11.4652 121.715 11.4652 122.125C11.4652 122.639 11.3205 123.082 11.0312 123.455C10.7325 123.819 10.2939 124.001 9.7152 124.001C9.44453 124.001 9.19253 123.941 8.9592 123.819C8.72587 123.689 8.4972 123.455 8.2732 123.119C8.0492 122.783 7.8252 122.303 7.6012 121.677C7.52653 121.463 7.4472 121.215 7.3632 120.935C7.2792 120.655 7.20453 120.375 7.1392 120.095L6.7892 120.095C6.10787 120.095 5.6552 120.198 5.4312 120.403C5.2072 120.609 5.0952 120.945 5.0952 121.411C5.0952 121.514 5.09987 121.631 5.1092 121.761C5.11853 121.883 5.14187 122.018 5.1792 122.167L6.0892 122.433C6.5372 122.564 6.7612 122.807 6.7612 123.161C6.7612 123.553 6.56987 123.773 6.1872 123.819C5.6552 123.689 5.2352 123.381 4.9272 122.895C4.60987 122.401 4.4512 121.799 4.4512 121.089C4.4512 120.352 4.63787 119.806 5.0112 119.451C5.3752 119.097 6.00053 118.919 6.8872 118.919L9.8692 118.919C10.1679 118.919 10.3825 118.873 10.5132 118.779C10.6345 118.686 10.6952 118.565 10.6952 118.415C10.6952 118.294 10.6672 118.191 10.6112 118.107C10.5552 118.023 10.4805 117.944 10.3872 117.869L10.6952 117.589C10.9659 117.757 11.1572 117.944 11.2692 118.149C11.3719 118.345 11.4232 118.565 11.4232 118.807ZM9.5052 122.755C9.87853 122.755 10.1445 122.648 10.3032 122.433C10.4619 122.219 10.5412 121.953 10.5412 121.635C10.5412 121.495 10.5225 121.365 10.4852 121.243C10.4479 121.113 10.3779 120.959 10.2752 120.781C10.1632 120.604 10.0045 120.375 9.7992 120.095L7.6572 120.095C7.72253 120.338 7.7972 120.576 7.8812 120.809C7.95587 121.043 8.0212 121.234 8.0772 121.383C8.23587 121.785 8.3992 122.083 8.5672 122.279C8.7352 122.475 8.89853 122.606 9.0572 122.671C9.21587 122.727 9.3652 122.755 9.5052 122.755ZM8.4832 114.327C8.4832 113.879 8.3152 113.529 7.9792 113.277C7.6432 113.025 7.21853 112.899 6.7052 112.899C6.21053 112.899 5.8092 113.02 5.5012 113.263C5.18387 113.496 5.0252 113.832 5.0252 114.271C5.0252 114.71 5.18853 115.055 5.5152 115.307C5.83253 115.559 6.24787 115.685 6.7612 115.685C7.27453 115.685 7.68987 115.568 8.0072 115.335C8.32453 115.092 8.4832 114.756 8.4832 114.327ZM9.0432 114.299C9.0432 114.663 8.99187 115.008 8.8892 115.335C9.18787 115.568 9.48653 115.685 9.7852 115.685C9.97187 115.685 10.1212 115.634 10.2332 115.531C10.3452 115.419 10.4012 115.2 10.4012 114.873L10.4012 113.039C10.4012 112.264 10.5599 111.695 10.8772 111.331C11.1945 110.967 11.6379 110.785 12.2072 110.785C12.6085 110.785 12.9959 110.916 13.3692 111.177C13.7425 111.429 14.0459 111.812 14.2792 112.325C14.5125 112.838 14.6292 113.478 14.6292 114.243C14.6292 115.26 14.4705 115.998 14.1532 116.455C13.8359 116.912 13.4299 117.141 12.9352 117.141C12.6365 117.141 12.3565 117.043 12.0952 116.847C11.8432 116.642 11.5912 116.282 11.3392 115.769C11.1712 116.385 10.8165 116.693 10.2752 116.693C10.0512 116.693 9.81787 116.623 9.5752 116.483C9.33253 116.334 9.04787 116.086 8.7212 115.741C8.53453 116.077 8.27787 116.343 7.9512 116.539C7.62453 116.726 7.2232 116.819 6.7472 116.819C6.00987 116.819 5.4452 116.581 5.0532 116.105C4.65187 115.62 4.4512 115.013 4.4512 114.285C4.4512 113.548 4.6332 112.955 4.9972 112.507L4.4512 110.925L4.5912 110.715L5.4732 110.715L5.4732 112.087C5.81853 111.872 6.2432 111.765 6.7472 111.765C7.48453 111.765 8.05387 112.008 8.4552 112.493C8.8472 112.969 9.0432 113.571 9.0432 114.299ZM12.7112 115.993C13.1685 115.993 13.4952 115.83 13.6912 115.503C13.8872 115.176 13.9852 114.738 13.9852 114.187C13.9852 113.422 13.8452 112.838 13.5652 112.437C13.2945 112.036 12.9632 111.835 12.5712 111.835C12.2632 111.835 12.0019 111.942 11.7872 112.157C11.5819 112.372 11.4792 112.731 11.4792 113.235L11.4792 114.873C11.4792 114.966 11.4745 115.064 11.4652 115.167C11.4652 115.26 11.4605 115.354 11.4512 115.447C11.6565 115.643 11.8572 115.783 12.0532 115.867C12.2585 115.951 12.4779 115.993 12.7112 115.993ZM11.2832 106.641L10.7792 106.641L10.5832 105.591C10.2285 105.582 9.84586 105.577 9.4352 105.577C9.0152 105.568 8.6512 105.563 8.3432 105.563L7.6852 105.563C7.30253 105.563 6.9852 105.568 6.7332 105.577C6.47186 105.577 6.2012 105.587 5.9212 105.605L5.7952 106.725L5.3052 106.725L4.4512 104.569L4.5912 104.359L6.4952 104.401L8.3432 104.401C8.6512 104.401 9.0152 104.401 9.4352 104.401C9.84586 104.392 10.2285 104.383 10.5832 104.373L10.7792 103.393L11.2832 103.393L11.2832 106.641ZM2.9112 104.989C2.9112 105.251 2.8272 105.475 2.6592 105.661C2.4912 105.839 2.27653 105.927 2.0152 105.927C1.74453 105.927 1.52986 105.839 1.3712 105.661C1.2032 105.475 1.1192 105.251 1.1192 104.989C1.1192 104.728 1.2032 104.509 1.3712 104.331C1.52986 104.145 1.74453 104.051 2.0152 104.051C2.27653 104.051 2.4912 104.145 2.6592 104.331C2.8272 104.509 2.9112 104.728 2.9112 104.989ZM11.2832 102.402L10.7792 102.402L10.5832 101.366C10.2285 101.356 9.84586 101.352 9.4352 101.352C9.02453 101.342 8.66053 101.338 8.3432 101.338L7.6712 101.338C7.28853 101.338 6.9712 101.342 6.7192 101.352C6.4672 101.352 6.2012 101.361 5.9212 101.38L5.7952 102.486L5.3052 102.486L4.4512 100.526L4.5912 100.316L5.7112 100.204C5.33786 99.8582 5.03453 99.4615 4.8012 99.0135C4.56786 98.5655 4.4512 98.1269 4.4512 97.6975C4.4512 97.0909 4.65653 96.6429 5.0672 96.3535C5.46853 96.0549 6.12653 95.9055 7.0412 95.9055L8.3432 95.9055C8.66053 95.9055 9.02453 95.9055 9.4352 95.9055C9.84586 95.8962 10.2285 95.8869 10.5832 95.8775L10.7792 94.8975L11.2832 94.8975L11.2832 98.1455L10.7792 98.1455L10.5832 97.1095C10.2379 97.1002 9.85986 97.0955 9.4492 97.0955C9.0292 97.0862 8.66053 97.0815 8.3432 97.0815L7.1532 97.0815C6.5092 97.0815 6.06586 97.1749 5.8232 97.3615C5.58053 97.5389 5.4592 97.8329 5.4592 98.2435C5.4592 98.5609 5.52453 98.8689 5.6552 99.1675C5.78586 99.4662 6.00053 99.7929 6.2992 100.148L8.3432 100.148C8.6512 100.148 9.0152 100.148 9.4352 100.148C9.84586 100.138 10.2285 100.129 10.5832 100.12L10.7792 99.1535L11.2832 99.1535L11.2832 102.402ZM11.2832 90.6437L10.7792 90.6437L10.5832 89.6077C10.2285 89.5984 9.84586 89.5937 9.4352 89.5937C9.02453 89.5844 8.66053 89.5797 8.3432 89.5797L7.6712 89.5797C7.28853 89.5797 6.9712 89.5844 6.7192 89.5937C6.4672 89.5937 6.2012 89.6031 5.9212 89.6217L5.7952 90.7277L5.3052 90.7277L4.4512 88.7677L4.5912 88.5577L5.7112 88.4457C5.33786 88.1004 5.03453 87.7037 4.8012 87.2557C4.56786 86.8077 4.4512 86.3691 4.4512 85.9397C4.4512 85.3331 4.65653 84.8851 5.0672 84.5957C5.46853 84.2971 6.12653 84.1477 7.0412 84.1477L8.3432 84.1477C8.66053 84.1477 9.02453 84.1477 9.4352 84.1477C9.84586 84.1384 10.2285 84.1291 10.5832 84.1197L10.7792 83.1397L11.2832 83.1397L11.2832 86.3877L10.7792 86.3877L10.5832 85.3517C10.2379 85.3424 9.85986 85.3377 9.4492 85.3377C9.0292 85.3284 8.66053 85.3237 8.3432 85.3237L7.1532 85.3237C6.5092 85.3237 6.06586 85.4171 5.8232 85.6037C5.58053 85.7811 5.4592 86.0751 5.4592 86.4857C5.4592 86.8031 5.52453 87.1111 5.6552 87.4097C5.78586 87.7084 6.00053 88.0351 6.2992 88.3897L8.3432 88.3897C8.6512 88.3897 9.0152 88.3897 9.4352 88.3897C9.84586 88.3804 10.2285 88.3711 10.5832 88.3617L10.7792 87.3957L11.2832 87.3957L11.2832 90.6437ZM11.4232 76.8895C11.4232 77.2255 11.3252 77.5055 11.1292 77.7295C10.9332 77.9535 10.6719 78.0935 10.3452 78.1495C10.7185 78.5322 10.9985 78.8682 11.1852 79.1575C11.3719 79.4468 11.4652 79.7968 11.4652 80.2075C11.4652 80.7208 11.3205 81.1642 11.0312 81.5375C10.7325 81.9015 10.2939 82.0835 9.7152 82.0835C9.44453 82.0835 9.19253 82.0228 8.9592 81.9015C8.72586 81.7708 8.4972 81.5375 8.2732 81.2015C8.0492 80.8655 7.8252 80.3848 7.6012 79.7595C7.52653 79.5448 7.4472 79.2975 7.3632 79.0175C7.2792 78.7375 7.20453 78.4575 7.1392 78.1775L6.7892 78.1775C6.10786 78.1775 5.6552 78.2802 5.4312 78.4855C5.2072 78.6908 5.0952 79.0268 5.0952 79.4935C5.0952 79.5962 5.09986 79.7128 5.1092 79.8435C5.11853 79.9648 5.14186 80.1002 5.1792 80.2495L6.0892 80.5155C6.5372 80.6462 6.7612 80.8888 6.7612 81.2435C6.7612 81.6355 6.56986 81.8548 6.1872 81.9015C5.6552 81.7708 5.2352 81.4628 4.9272 80.9775C4.60986 80.4828 4.4512 79.8808 4.4512 79.1715C4.4512 78.4342 4.63786 77.8882 5.0112 77.5335C5.3752 77.1788 6.00053 77.0015 6.8872 77.0015L9.8692 77.0015C10.1679 77.0015 10.3825 76.9548 10.5132 76.8615C10.6345 76.7682 10.6952 76.6468 10.6952 76.4975C10.6952 76.3762 10.6672 76.2735 10.6112 76.1895C10.5552 76.1055 10.4805 76.0262 10.3872 75.9515L10.6952 75.6715C10.9659 75.8395 11.1572 76.0262 11.2692 76.2315C11.3719 76.4275 11.4232 76.6468 11.4232 76.8895ZM9.5052 80.8375C9.87853 80.8375 10.1445 80.7302 10.3032 80.5155C10.4619 80.3008 10.5412 80.0348 10.5412 79.7175C10.5412 79.5775 10.5225 79.4468 10.4852 79.3255C10.4479 79.1948 10.3779 79.0408 10.2752 78.8635C10.1632 78.6862 10.0045 78.4575 9.7992 78.1775L7.6572 78.1775C7.72253 78.4202 7.7972 78.6582 7.8812 78.8915C7.95586 79.1248 8.0212 79.3162 8.0772 79.4655C8.23586 79.8668 8.3992 80.1655 8.5672 80.3615C8.7352 80.5575 8.89853 80.6882 9.0572 80.7535C9.21586 80.8095 9.3652 80.8375 9.5052 80.8375ZM14.6292 75.3739L14.1392 75.3739L13.9432 74.2539C13.5605 74.2446 13.1779 74.2399 12.7952 74.2399C12.4219 74.2306 12.0485 74.2259 11.6752 74.2259L7.6712 74.2259C7.28853 74.2259 6.9712 74.2306 6.7192 74.2399C6.4672 74.2399 6.2012 74.2492 5.9212 74.2679L5.7952 75.3739L5.3052 75.3739L4.4512 73.4139L4.5912 73.2039L5.5012 73.1199C4.8012 72.4572 4.4512 71.7526 4.4512 71.0059C4.4512 70.5019 4.5912 70.0492 4.8712 69.6479C5.1512 69.2466 5.55253 68.9292 6.0752 68.6959C6.58853 68.4532 7.2092 68.3319 7.9372 68.3319C8.65586 68.3319 9.2812 68.4579 9.8132 68.7099C10.3359 68.9619 10.7419 69.3072 11.0312 69.7459C11.3205 70.1752 11.4652 70.6652 11.4652 71.2159C11.4652 71.5332 11.3999 71.8506 11.2692 72.1679C11.1385 72.4759 10.9005 72.7792 10.5552 73.0779L11.6612 73.0779C12.0345 73.0779 12.4079 73.0779 12.7812 73.0779C13.1639 73.0686 13.5465 73.0592 13.9292 73.0499L14.1392 71.7759L14.6292 71.7759L14.6292 75.3739ZM5.2492 71.3419C5.2492 71.5566 5.3052 71.8039 5.4172 72.0839C5.51986 72.3639 5.72053 72.6812 6.0192 73.0359L9.9532 73.0359C10.2052 72.7746 10.3872 72.5179 10.4992 72.2659C10.6112 72.0139 10.6672 71.7572 10.6672 71.4959C10.6672 70.9732 10.4572 70.5252 10.0372 70.1519C9.6172 69.7786 8.95453 69.5919 8.0492 69.5919C7.1532 69.5919 6.46253 69.7552 5.9772 70.0819C5.49186 70.4086 5.2492 70.8286 5.2492 71.3419ZM14.6292 67.3485L14.1392 67.3485L13.9432 66.2285C13.5605 66.2192 13.1779 66.2145 12.7952 66.2145C12.4219 66.2052 12.0485 66.2005 11.6752 66.2005L7.6712 66.2005C7.28853 66.2005 6.9712 66.2052 6.7192 66.2145C6.4672 66.2145 6.2012 66.2238 5.9212 66.2425L5.7952 67.3485L5.3052 67.3485L4.4512 65.3885L4.5912 65.1785L5.5012 65.0945C4.8012 64.4318 4.4512 63.7272 4.4512 62.9805C4.4512 62.4765 4.5912 62.0238 4.8712 61.6225C5.1512 61.2212 5.55253 60.9038 6.0752 60.6705C6.58853 60.4278 7.2092 60.3065 7.9372 60.3065C8.65586 60.3065 9.2812 60.4325 9.8132 60.6845C10.3359 60.9365 10.7419 61.2818 11.0312 61.7205C11.3205 62.1498 11.4652 62.6398 11.4652 63.1905C11.4652 63.5078 11.3999 63.8252 11.2692 64.1425C11.1385 64.4505 10.9005 64.7538 10.5552 65.0525L11.6612 65.0525C12.0345 65.0525 12.4079 65.0525 12.7812 65.0525C13.1639 65.0432 13.5465 65.0338 13.9292 65.0245L14.1392 63.7505L14.6292 63.7505L14.6292 67.3485ZM5.2492 63.3165C5.2492 63.5312 5.3052 63.7785 5.4172 64.0585C5.51986 64.3385 5.72053 64.6558 6.0192 65.0105L9.9532 65.0105C10.2052 64.7492 10.3872 64.4925 10.4992 64.2405C10.6112 63.9885 10.6672 63.7318 10.6672 63.4705C10.6672 62.9478 10.4572 62.4998 10.0372 62.1265C9.6172 61.7532 8.95453 61.5665 8.0492 61.5665C7.1532 61.5665 6.46253 61.7298 5.9772 62.0565C5.49186 62.3832 5.2492 62.8032 5.2492 63.3165ZM11.4232 53.8524C11.4232 54.1884 11.3252 54.4684 11.1292 54.6924C10.9332 54.9164 10.6719 55.0564 10.3452 55.1124C10.7185 55.4951 10.9985 55.8311 11.1852 56.1204C11.3719 56.4097 11.4652 56.7597 11.4652 57.1704C11.4652 57.6837 11.3205 58.1271 11.0312 58.5004C10.7325 58.8644 10.2939 59.0464 9.7152 59.0464C9.44453 59.0464 9.19253 58.9857 8.9592 58.8644C8.72586 58.7337 8.4972 58.5004 8.2732 58.1644C8.0492 57.8284 7.8252 57.3477 7.6012 56.7224C7.52653 56.5077 7.4472 56.2604 7.3632 55.9804C7.2792 55.7004 7.20453 55.4204 7.1392 55.1404L6.7892 55.1404C6.10786 55.1404 5.6552 55.2431 5.4312 55.4484C5.2072 55.6537 5.0952 55.9897 5.0952 56.4564C5.0952 56.5591 5.09986 56.6757 5.1092 56.8064C5.11853 56.9277 5.14186 57.0631 5.1792 57.2124L6.0892 57.4784C6.5372 57.6091 6.7612 57.8517 6.7612 58.2064C6.7612 58.5984 6.56986 58.8177 6.1872 58.8644C5.6552 58.7337 5.2352 58.4257 4.9272 57.9404C4.60986 57.4457 4.4512 56.8437 4.4512 56.1344C4.4512 55.3971 4.63786 54.8511 5.0112 54.4964C5.3752 54.1417 6.00053 53.9644 6.8872 53.9644L9.8692 53.9644C10.1679 53.9644 10.3825 53.9177 10.5132 53.8244C10.6345 53.7311 10.6952 53.6097 10.6952 53.4604C10.6952 53.3391 10.6672 53.2364 10.6112 53.1524C10.5552 53.0684 10.4805 52.9891 10.3872 52.9144L10.6952 52.6344C10.9659 52.8024 11.1572 52.9891 11.2692 53.1944C11.3719 53.3904 11.4232 53.6097 11.4232 53.8524ZM9.5052 57.8004C9.87853 57.8004 10.1445 57.6931 10.3032 57.4784C10.4619 57.2637 10.5412 56.9977 10.5412 56.6804C10.5412 56.5404 10.5225 56.4097 10.4852 56.2884C10.4479 56.1577 10.3779 56.0037 10.2752 55.8264C10.1632 55.6491 10.0045 55.4204 9.7992 55.1404L7.6572 55.1404C7.72253 55.3831 7.7972 55.6211 7.8812 55.8544C7.95586 56.0877 8.0212 56.2791 8.0772 56.4284C8.23586 56.8297 8.3992 57.1284 8.5672 57.3244C8.7352 57.5204 8.89853 57.6511 9.0572 57.7164C9.21586 57.7724 9.3652 57.8004 9.5052 57.8004ZM11.4652 45.5478C11.4652 46.5091 11.1525 47.2744 10.5272 47.8438C9.90186 48.4131 9.05253 48.6978 7.9792 48.6978C7.24186 48.6978 6.61186 48.5484 6.0892 48.2498C5.5572 47.9418 5.1512 47.5404 4.8712 47.0458C4.5912 46.5511 4.4512 46.0238 4.4512 45.4638C4.4512 45.0438 4.53053 44.6564 4.6892 44.3018C4.84786 43.9471 5.0672 43.6531 5.3472 43.4198C5.61786 43.1864 5.92586 43.0418 6.2712 42.9858C6.62586 43.0511 6.8032 43.2658 6.8032 43.6298C6.8032 43.8631 6.74253 44.0404 6.6212 44.1618C6.49053 44.2738 6.3272 44.3531 6.1312 44.3998L5.2072 44.6518C5.16053 44.7824 5.13253 44.9131 5.1232 45.0438C5.10453 45.1651 5.0952 45.2864 5.0952 45.4078C5.0952 46.0051 5.32853 46.4998 5.7952 46.8918C6.26186 47.2744 6.9432 47.4658 7.8392 47.4658C8.71653 47.4658 9.38853 47.2558 9.8552 46.8358C10.3219 46.4158 10.5552 45.8791 10.5552 45.2258C10.5552 44.8244 10.4665 44.4558 10.2892 44.1198C10.1025 43.7838 9.83653 43.5084 9.4912 43.2938L9.6732 42.9438C10.2519 43.1398 10.6952 43.4571 11.0032 43.8958C11.3112 44.3344 11.4652 44.8851 11.4652 45.5478ZM11.4232 36.6258C11.4232 36.9618 11.3252 37.2418 11.1292 37.4658C10.9332 37.6898 10.6719 37.8298 10.3452 37.8858C10.7185 38.2685 10.9985 38.6045 11.1852 38.8938C11.3719 39.1832 11.4652 39.5332 11.4652 39.9438C11.4652 40.4572 11.3205 40.9005 11.0312 41.2738C10.7325 41.6378 10.2939 41.8198 9.7152 41.8198C9.44453 41.8198 9.19253 41.7592 8.9592 41.6378C8.72586 41.5072 8.4972 41.2738 8.2732 40.9378C8.0492 40.6018 7.8252 40.1212 7.6012 39.4958C7.52653 39.2812 7.4472 39.0338 7.3632 38.7538C7.2792 38.4738 7.20453 38.1938 7.1392 37.9138L6.7892 37.9138C6.10786 37.9138 5.6552 38.0165 5.4312 38.2218C5.2072 38.4272 5.0952 38.7632 5.0952 39.2298C5.0952 39.3325 5.09986 39.4492 5.1092 39.5798C5.11853 39.7012 5.14186 39.8365 5.1792 39.9858L6.0892 40.2518C6.5372 40.3825 6.7612 40.6252 6.7612 40.9798C6.7612 41.3718 6.56986 41.5912 6.1872 41.6378C5.6552 41.5072 5.2352 41.1992 4.9272 40.7138C4.60986 40.2192 4.4512 39.6172 4.45119 38.9078C4.45119 38.1705 4.63786 37.6245 5.0112 37.2698C5.3752 36.9152 6.00053 36.7378 6.8872 36.7378L9.8692 36.7378C10.1679 36.7378 10.3825 36.6912 10.5132 36.5978C10.6345 36.5045 10.6952 36.3832 10.6952 36.2338C10.6952 36.1125 10.6672 36.0098 10.6112 35.9258C10.5552 35.8418 10.4805 35.7625 10.3872 35.6878L10.6952 35.4078C10.9659 35.5758 11.1572 35.7625 11.2692 35.9678C11.3719 36.1638 11.4232 36.3832 11.4232 36.6258ZM9.5052 40.5738C9.87853 40.5738 10.1445 40.4665 10.3032 40.2518C10.4619 40.0372 10.5412 39.7712 10.5412 39.4538C10.5412 39.3138 10.5225 39.1832 10.4852 39.0618C10.4479 38.9312 10.3779 38.7772 10.2752 38.5998C10.1632 38.4225 10.0045 38.1938 9.7992 37.9138L7.6572 37.9138C7.72253 38.1565 7.7972 38.3945 7.8812 38.6278C7.95586 38.8612 8.0212 39.0525 8.0772 39.2018C8.23586 39.6032 8.3992 39.9018 8.5672 40.0978C8.7352 40.2938 8.89853 40.4245 9.0572 40.4898C9.21586 40.5458 9.3652 40.5738 9.5052 40.5738ZM11.2832 34.9768L10.7792 34.9768L10.5832 33.8568C10.2005 33.8474 9.8272 33.8428 9.4632 33.8428C9.08986 33.8334 8.71653 33.8288 8.3432 33.8288L2.19719 33.8288L2.05719 34.9768L1.5672 34.9768L0.937195 32.7928L1.0492 32.5968L3.03719 32.6528L8.3432 32.6528C8.71653 32.6528 9.08986 32.6528 9.4632 32.6528C9.83653 32.6434 10.2099 32.6341 10.5832 32.6248L10.7792 31.5048L11.2832 31.5048L11.2832 34.9768ZM11.2832 30.6529L10.7792 30.6529L10.5832 29.5469C10.2099 29.5375 9.83653 29.5329 9.46319 29.5329C9.08986 29.5235 8.71653 29.5189 8.34319 29.5189L5.37519 29.5189L5.37519 30.6809L4.75919 30.6809L4.60519 29.4909C3.85853 29.4255 3.25653 29.3229 2.79919 29.1829C2.33253 29.0335 1.92653 28.7862 1.58119 28.4409C1.28253 28.1422 1.07719 27.8295 0.965194 27.5029C0.853195 27.1762 0.797195 26.8542 0.797195 26.5369C0.797195 26.2102 0.857861 25.9209 0.979194 25.6689C1.09119 25.4169 1.28253 25.2582 1.55319 25.1929C1.73053 25.2022 1.87986 25.2815 2.00119 25.4309C2.12253 25.5802 2.18319 25.7855 2.18319 26.0469C2.18319 26.3829 2.04319 26.7189 1.76319 27.0549L1.45519 27.4469C1.48319 27.4842 1.51119 27.5215 1.53919 27.5589C1.56719 27.5869 1.59519 27.6149 1.62319 27.6429C1.86586 27.8855 2.23453 28.0722 2.72919 28.2029C3.21453 28.3242 3.84919 28.3755 4.63319 28.3569L4.63319 26.4249L5.37519 26.4249L5.37519 28.3289L8.34319 28.3289C8.71653 28.3289 9.08986 28.3289 9.46319 28.3289C9.82719 28.3195 10.1959 28.3102 10.5692 28.3009L10.7792 27.0409L11.2832 27.0409L11.2832 30.6529ZM11.4652 23.4076C11.4652 23.7996 11.4185 24.159 11.3252 24.4856C11.2412 24.8123 11.1105 25.1483 10.9332 25.4936L9.39319 25.5496L9.39319 24.7796L10.6112 24.5136C10.7605 24.187 10.8352 23.809 10.8352 23.3796C10.8352 22.8476 10.7372 22.4556 10.5412 22.2036C10.3452 21.9423 10.0885 21.8116 9.77119 21.8116C9.47253 21.8116 9.23453 21.919 9.05719 22.1336C8.87053 22.3483 8.70253 22.675 8.55319 23.1136L8.31519 23.7576C8.12853 24.271 7.88586 24.6816 7.58719 24.9896C7.28853 25.2976 6.90119 25.4516 6.42519 25.4516C6.07986 25.4516 5.75786 25.3583 5.45919 25.1716C5.16053 24.985 4.91786 24.7096 4.73119 24.3456C4.54453 23.9816 4.45119 23.5383 4.45119 23.0156C4.45119 22.633 4.50253 22.2876 4.60519 21.9796C4.69853 21.6623 4.83853 21.3543 5.02519 21.0556L6.45319 21.1116L6.45319 21.8396L5.33319 22.0636C5.17453 22.381 5.09519 22.703 5.09519 23.0296C5.09519 23.459 5.18386 23.7856 5.36119 24.0096C5.52919 24.2243 5.75786 24.3316 6.04719 24.3316C6.35519 24.3316 6.58853 24.2383 6.74719 24.0516C6.90586 23.8556 7.07386 23.5196 7.25119 23.0436L7.40519 22.6096C7.66653 21.9096 7.96519 21.415 8.30119 21.1256C8.63719 20.827 9.02453 20.6776 9.46319 20.6776C9.81786 20.6776 10.1492 20.7803 10.4572 20.9856C10.7559 21.191 10.9985 21.4943 11.1852 21.8956C11.3719 22.297 11.4652 22.801 11.4652 23.4076ZM11.2832 19.924L10.7792 19.924L10.5832 18.804C10.2099 18.7947 9.83653 18.79 9.46319 18.79C9.08053 18.7807 8.70719 18.776 8.34319 18.776L2.19719 18.776L2.05719 19.924L1.56719 19.924L0.937194 17.74L1.04919 17.544L3.03719 17.6L7.92319 17.6L5.43119 15.206L5.17919 16.242L4.63319 16.242L4.63319 12.98L5.17919 12.98L5.37519 14.296L6.95719 15.836L10.6112 13.54L10.7792 12.616L11.2832 12.616L11.2832 14.52L7.81119 16.676L8.76319 17.6C9.06186 17.6 9.36519 17.6 9.67319 17.6C9.98119 17.5907 10.2845 17.5814 10.5832 17.572L10.7792 16.452L11.2832 16.452L11.2832 19.924ZM11.2832 12.1278L10.7792 12.1278L10.5832 11.0778C10.2285 11.0685 9.84586 11.0638 9.43519 11.0638C9.01519 11.0545 8.65119 11.0498 8.34319 11.0498L7.68519 11.0498C7.30253 11.0498 6.98519 11.0545 6.73319 11.0638C6.47186 11.0638 6.20119 11.0731 5.92119 11.0918L5.79519 12.2118L5.30519 12.2118L4.45119 10.0558L4.59119 9.8458L6.49519 9.8878L8.34319 9.8878C8.65119 9.8878 9.01519 9.8878 9.43519 9.8878C9.84586 9.87846 10.2285 9.86913 10.5832 9.8598L10.7792 8.8798L11.2832 8.8798L11.2832 12.1278ZM2.91119 10.4758C2.91119 10.7371 2.82719 10.9611 2.65919 11.1478C2.49119 11.3251 2.27653 11.4138 2.01519 11.4138C1.74453 11.4138 1.52986 11.3251 1.37119 11.1478C1.20319 10.9611 1.11919 10.7371 1.11919 10.4758C1.11919 10.2145 1.20319 9.99513 1.37119 9.8178C1.52986 9.63113 1.74453 9.5378 2.01519 9.5378C2.27653 9.5378 2.49119 9.63113 2.65919 9.8178C2.82719 9.99513 2.91119 10.2145 2.91119 10.4758ZM11.2832 7.88788L10.7792 7.88788L10.5832 6.85188C10.2285 6.84254 9.84586 6.83788 9.43519 6.83788C9.02453 6.82854 8.66053 6.82388 8.34319 6.82388L7.67119 6.82388C7.28853 6.82388 6.97119 6.82854 6.71919 6.83788C6.46719 6.83788 6.20119 6.84721 5.92119 6.86588L5.79519 7.97188L5.30519 7.97188L4.45119 6.01188L4.59119 5.80188L5.71119 5.68988C5.33786 5.34454 5.03453 4.94788 4.80119 4.49988C4.56786 4.05188 4.45119 3.61321 4.45119 3.18388C4.45119 2.57721 4.65653 2.12921 5.06719 1.83988C5.46853 1.54121 6.12653 1.39188 7.04119 1.39188L8.34319 1.39188C8.66053 1.39188 9.02453 1.39188 9.43519 1.39188C9.84586 1.38254 10.2285 1.37321 10.5832 1.36387L10.7792 0.383875L11.2832 0.383875L11.2832 3.63188L10.7792 3.63188L10.5832 2.59588C10.2379 2.58654 9.85986 2.58188 9.44919 2.58188C9.02919 2.57254 8.66053 2.56788 8.34319 2.56788L7.15319 2.56788C6.50919 2.56788 6.06586 2.66121 5.82319 2.84788C5.58053 3.02521 5.45919 3.31921 5.45919 3.72988C5.45919 4.04721 5.52453 4.35521 5.65519 4.65388C5.78586 4.95254 6.00053 5.27921 6.29919 5.63388L8.34319 5.63388C8.65119 5.63388 9.01519 5.63388 9.43519 5.63388C9.84586 5.62454 10.2285 5.61521 10.5832 5.60588L10.7792 4.63988L11.2832 4.63988L11.2832 7.88788Z" fill="#222222"/>
</svg>
