<svg width="15" height="229" viewBox="0 0 15 229" fill="none" xmlns="http://www.w3.org/2000/svg">
<path d="M2.208 228.931L1.634 228.931L1.634 224.969L2.208 224.969L2.362 226.257C2.95933 226.267 3.56133 226.276 4.168 226.285C4.76533 226.285 5.36733 226.285 5.974 226.285L6.94 226.285C7.43467 226.285 7.97133 226.285 8.55 226.285C9.11933 226.276 9.70267 226.267 10.3 226.257L10.3 223.079L8.368 222.673L8.368 221.819L11 221.959L11 228.931L10.426 228.931L10.272 227.643C9.66533 227.625 9.06333 227.615 8.466 227.615C7.86867 227.615 7.27133 227.615 6.674 227.615L5.974 227.615C5.36733 227.615 4.76067 227.615 4.154 227.615C3.54733 227.615 2.95 227.625 2.362 227.643L2.208 228.931ZM11.21 216.525C11.21 217.066 11.1073 217.594 10.902 218.107C10.6873 218.62 10.3747 219.082 9.964 219.493C9.55333 219.904 9.04467 220.23 8.438 220.473C7.822 220.706 7.11267 220.823 6.31 220.823C5.54467 220.823 4.85867 220.702 4.252 220.459C3.64533 220.216 3.132 219.894 2.712 219.493C2.292 219.082 1.97467 218.62 1.76 218.107C1.536 217.594 1.424 217.066 1.424 216.525C1.424 215.984 1.53133 215.461 1.746 214.957C1.95133 214.444 2.25933 213.986 2.67 213.585C3.08067 213.174 3.58933 212.848 4.196 212.605C4.80267 212.362 5.50733 212.241 6.31 212.241C7.07533 212.241 7.76133 212.362 8.368 212.605C8.97467 212.838 9.49267 213.16 9.922 213.571C10.342 213.972 10.664 214.43 10.888 214.943C11.1027 215.456 11.21 215.984 11.21 216.525ZM10.51 216.525C10.51 216.04 10.3933 215.624 10.16 215.279C9.91733 214.924 9.6 214.64 9.208 214.425C8.80667 214.201 8.35867 214.038 7.864 213.935C7.36 213.832 6.842 213.781 6.31 213.781C5.78733 213.781 5.27867 213.832 4.784 213.935C4.28 214.038 3.82733 214.201 3.426 214.425C3.02467 214.64 2.70733 214.924 2.474 215.279C2.24067 215.624 2.124 216.04 2.124 216.525C2.124 217.01 2.24067 217.43 2.474 217.785C2.70733 218.13 3.02467 218.415 3.426 218.639C3.82733 218.863 4.28 219.031 4.784 219.143C5.27867 219.246 5.78733 219.297 6.31 219.297C6.842 219.297 7.36 219.246 7.864 219.143C8.35867 219.031 8.80667 218.863 9.208 218.639C9.6 218.415 9.91733 218.13 10.16 217.785C10.3933 217.43 10.51 217.01 10.51 216.525ZM2.208 211.308L1.634 211.308L1.634 204.336L4.112 204.238L4.112 205.036L2.334 205.344L2.334 208.634C2.93133 208.644 3.52867 208.653 4.126 208.662C4.72333 208.662 5.31133 208.662 5.89 208.662L5.89 206.604L4.56 206.408L4.56 205.764L7.864 205.764L7.864 206.408L6.548 206.59L6.548 208.662C7.248 208.662 7.906 208.662 8.522 208.662C9.12867 208.653 9.72133 208.644 10.3 208.634L10.3 205.064L8.508 204.756L8.508 203.958L11 204.056L11 211.308L10.426 211.308L10.272 210.02C9.684 210.002 9.08667 209.992 8.48 209.992C7.87333 209.992 7.26667 209.992 6.66 209.992L5.974 209.992C5.36733 209.992 4.76533 209.992 4.168 209.992C3.56133 209.992 2.95933 210.002 2.362 210.02L2.208 211.308ZM2.208 193.53L1.634 193.53L1.634 190.352L2.208 190.352L2.376 191.528L11.098 193.894L11.098 194.496L3.846 196.918L11.098 199.2L11.098 199.802L2.348 202.322L2.208 203.484L1.634 203.484L1.634 199.676L2.208 199.676L2.362 200.964L8.788 199.242L2.376 197.114L2.208 198.514L1.634 198.514L1.634 194.706L2.208 194.706L2.376 196.12L8.858 194.034L2.39 192.256L2.208 193.53ZM2.208 189.611L1.634 189.611L1.634 182.639L4.112 182.541L4.112 183.339L2.334 183.647L2.334 186.937C2.93133 186.946 3.52866 186.956 4.126 186.965C4.72333 186.965 5.31133 186.965 5.89 186.965L5.89 184.907L4.56 184.711L4.56 184.067L7.864 184.067L7.864 184.711L6.548 184.893L6.548 186.965C7.248 186.965 7.906 186.965 8.522 186.965C9.12866 186.956 9.72133 186.946 10.3 186.937L10.3 183.367L8.508 183.059L8.508 182.261L11 182.359L11 189.611L10.426 189.611L10.272 188.323C9.684 188.304 9.08666 188.295 8.48 188.295C7.87333 188.295 7.26666 188.295 6.66 188.295L5.974 188.295C5.36733 188.295 4.76533 188.295 4.168 188.295C3.56133 188.295 2.95933 188.304 2.362 188.323L2.208 189.611ZM14.346 178.034L13.856 178.034L13.66 176.914C13.2773 176.905 12.8947 176.9 12.512 176.9C12.1387 176.891 11.7653 176.886 11.392 176.886L7.388 176.886C7.00533 176.886 6.688 176.891 6.436 176.9C6.184 176.9 5.918 176.909 5.638 176.928L5.512 178.034L5.022 178.034L4.168 176.074L4.308 175.864L5.218 175.78C4.518 175.117 4.168 174.413 4.168 173.666C4.168 173.162 4.308 172.709 4.588 172.308C4.868 171.907 5.26933 171.589 5.792 171.356C6.30533 171.113 6.926 170.992 7.654 170.992C8.37266 170.992 8.998 171.118 9.53 171.37C10.0527 171.622 10.4587 171.967 10.748 172.406C11.0373 172.835 11.182 173.325 11.182 173.876C11.182 174.193 11.1167 174.511 10.986 174.828C10.8553 175.136 10.6173 175.439 10.272 175.738L11.378 175.738C11.7513 175.738 12.1247 175.738 12.498 175.738C12.8807 175.729 13.2633 175.719 13.646 175.71L13.856 174.436L14.346 174.436L14.346 178.034ZM4.966 174.002C4.966 174.217 5.022 174.464 5.134 174.744C5.23666 175.024 5.43733 175.341 5.736 175.696L9.67 175.696C9.922 175.435 10.104 175.178 10.216 174.926C10.328 174.674 10.384 174.417 10.384 174.156C10.384 173.633 10.174 173.185 9.754 172.812C9.334 172.439 8.67133 172.252 7.766 172.252C6.87 172.252 6.17933 172.415 5.694 172.742C5.20866 173.069 4.966 173.489 4.966 174.002ZM4.812 166.596C4.812 166.857 4.88666 167.123 5.036 167.394C5.18533 167.655 5.42333 167.884 5.75 168.08C6.07666 168.266 6.51066 168.388 7.052 168.444L7.052 165.896C7.052 165.56 6.982 165.34 6.842 165.238C6.702 165.126 6.52933 165.07 6.324 165.07C6.05333 165.07 5.806 165.14 5.582 165.28C5.34866 165.41 5.162 165.592 5.022 165.826C4.882 166.05 4.812 166.306 4.812 166.596ZM11.182 166.61C11.182 167.552 10.8787 168.308 10.272 168.878C9.656 169.447 8.81133 169.732 7.738 169.732C7.01933 169.732 6.394 169.587 5.862 169.298C5.33 168.999 4.91466 168.607 4.616 168.122C4.31733 167.627 4.168 167.09 4.168 166.512C4.168 166.026 4.27533 165.588 4.49 165.196C4.70466 164.804 5.01266 164.491 5.414 164.258C5.806 164.024 6.28666 163.908 6.856 163.908C7.01466 163.908 7.164 163.917 7.304 163.936C7.43466 163.954 7.54666 163.978 7.64 164.006L7.64 168.472C8.49866 168.453 9.152 168.238 9.6 167.828C10.048 167.417 10.272 166.876 10.272 166.204C10.272 165.756 10.1833 165.382 10.006 165.084C9.81933 164.785 9.58133 164.51 9.292 164.258L9.558 163.922C10.0527 164.183 10.4493 164.538 10.748 164.986C11.0373 165.434 11.182 165.975 11.182 166.61ZM11.14 157.538C11.14 157.874 11.042 158.154 10.846 158.378C10.65 158.602 10.3887 158.742 10.062 158.798C10.4353 159.18 10.7153 159.516 10.902 159.806C11.0887 160.095 11.182 160.445 11.182 160.856C11.182 161.369 11.0373 161.812 10.748 162.186C10.4493 162.55 10.0107 162.732 9.432 162.732C9.16133 162.732 8.90933 162.671 8.676 162.55C8.44266 162.419 8.214 162.186 7.99 161.85C7.766 161.514 7.542 161.033 7.318 160.408C7.24333 160.193 7.164 159.946 7.08 159.666C6.996 159.386 6.92133 159.106 6.856 158.826L6.506 158.826C5.82466 158.826 5.372 158.928 5.148 159.134C4.924 159.339 4.812 159.675 4.812 160.142C4.812 160.244 4.81666 160.361 4.826 160.492C4.83533 160.613 4.85866 160.748 4.896 160.898L5.806 161.164C6.254 161.294 6.478 161.537 6.478 161.892C6.478 162.284 6.28666 162.503 5.904 162.55C5.372 162.419 4.952 162.111 4.644 161.626C4.32666 161.131 4.168 160.529 4.168 159.82C4.168 159.082 4.35466 158.536 4.728 158.182C5.092 157.827 5.71733 157.65 6.604 157.65L9.586 157.65C9.88466 157.65 10.0993 157.603 10.23 157.51C10.3513 157.416 10.412 157.295 10.412 157.146C10.412 157.024 10.384 156.922 10.328 156.838C10.272 156.754 10.1973 156.674 10.104 156.6L10.412 156.32C10.6827 156.488 10.874 156.674 10.986 156.88C11.0887 157.076 11.14 157.295 11.14 157.538ZM9.222 161.486C9.59533 161.486 9.86133 161.378 10.02 161.164C10.1787 160.949 10.258 160.683 10.258 160.366C10.258 160.226 10.2393 160.095 10.202 159.974C10.1647 159.843 10.0947 159.689 9.992 159.512C9.88 159.334 9.72133 159.106 9.516 158.826L7.374 158.826C7.43933 159.068 7.514 159.306 7.598 159.54C7.67266 159.773 7.738 159.964 7.794 160.114C7.95266 160.515 8.116 160.814 8.284 161.01C8.452 161.206 8.61533 161.336 8.774 161.402C8.93266 161.458 9.082 161.486 9.222 161.486ZM11.182 152.501C11.182 153.462 10.8693 154.227 10.244 154.797C9.61866 155.366 8.76933 155.651 7.696 155.651C6.95866 155.651 6.32866 155.501 5.806 155.203C5.274 154.895 4.868 154.493 4.588 153.999C4.308 153.504 4.168 152.977 4.168 152.417C4.168 151.997 4.24733 151.609 4.406 151.255C4.56466 150.9 4.784 150.606 5.064 150.373C5.33466 150.139 5.64266 149.995 5.988 149.939C6.34266 150.004 6.52 150.219 6.52 150.583C6.52 150.816 6.45933 150.993 6.338 151.115C6.20733 151.227 6.044 151.306 5.848 151.353L4.924 151.605C4.87733 151.735 4.84933 151.866 4.84 151.997C4.82133 152.118 4.812 152.239 4.812 152.361C4.812 152.958 5.04533 153.453 5.512 153.845C5.97866 154.227 6.66 154.419 7.556 154.419C8.43333 154.419 9.10533 154.209 9.572 153.789C10.0387 153.369 10.272 152.832 10.272 152.179C10.272 151.777 10.1833 151.409 10.006 151.073C9.81933 150.737 9.55333 150.461 9.208 150.247L9.39 149.897C9.96866 150.093 10.412 150.41 10.72 150.849C11.028 151.287 11.182 151.838 11.182 152.501ZM4.812 145.637C4.812 145.898 4.88666 146.164 5.036 146.435C5.18533 146.696 5.42333 146.925 5.75 147.121C6.07666 147.307 6.51066 147.429 7.052 147.485L7.052 144.937C7.052 144.601 6.982 144.381 6.842 144.279C6.702 144.167 6.52933 144.111 6.324 144.111C6.05333 144.111 5.806 144.181 5.582 144.321C5.34866 144.451 5.162 144.633 5.022 144.867C4.882 145.091 4.812 145.347 4.812 145.637ZM11.182 145.651C11.182 146.593 10.8787 147.349 10.272 147.919C9.656 148.488 8.81133 148.773 7.738 148.773C7.01933 148.773 6.394 148.628 5.862 148.339C5.33 148.04 4.91466 147.648 4.616 147.163C4.31733 146.668 4.168 146.131 4.168 145.553C4.168 145.067 4.27533 144.629 4.49 144.237C4.70466 143.845 5.01266 143.532 5.414 143.299C5.806 143.065 6.28666 142.949 6.856 142.949C7.01466 142.949 7.164 142.958 7.304 142.977C7.43466 142.995 7.54666 143.019 7.64 143.047L7.64 147.513C8.49866 147.494 9.152 147.279 9.6 146.869C10.048 146.458 10.272 145.917 10.272 145.245C10.272 144.797 10.1833 144.423 10.006 144.125C9.81933 143.826 9.58133 143.551 9.292 143.299L9.558 142.963C10.0527 143.224 10.4493 143.579 10.748 144.027C11.0373 144.475 11.182 145.016 11.182 145.651ZM11.182 135.261C11.182 136.222 10.8693 136.987 10.244 137.557C9.61866 138.126 8.76933 138.411 7.696 138.411C6.95866 138.411 6.32866 138.261 5.806 137.963C5.274 137.655 4.868 137.253 4.588 136.759C4.308 136.264 4.168 135.737 4.168 135.177C4.168 134.757 4.24733 134.369 4.406 134.015C4.56466 133.66 4.784 133.366 5.064 133.133C5.33466 132.899 5.64266 132.755 5.988 132.699C6.34266 132.764 6.52 132.979 6.52 133.343C6.52 133.576 6.45933 133.753 6.338 133.875C6.20733 133.987 6.044 134.066 5.848 134.113L4.924 134.365C4.87733 134.495 4.84933 134.626 4.84 134.757C4.82133 134.878 4.812 134.999 4.812 135.121C4.812 135.718 5.04533 136.213 5.512 136.605C5.97866 136.987 6.66 137.179 7.556 137.179C8.43333 137.179 9.10533 136.969 9.572 136.549C10.0387 136.129 10.272 135.592 10.272 134.939C10.272 134.537 10.1833 134.169 10.006 133.833C9.81933 133.497 9.55333 133.221 9.208 133.007L9.39 132.657C9.96866 132.853 10.412 133.17 10.72 133.609C11.028 134.047 11.182 134.598 11.182 135.261ZM11 131.575L10.496 131.575L10.314 130.567C9.95933 130.557 9.57666 130.553 9.166 130.553C8.746 130.543 8.37733 130.539 8.06 130.539L7.388 130.539C7.00533 130.539 6.688 130.543 6.436 130.553C6.184 130.553 5.918 130.562 5.638 130.581L5.512 131.687L5.022 131.687L4.168 129.727L4.308 129.517L5.96 129.363C5.4 129.129 4.96133 128.831 4.644 128.467C4.32666 128.093 4.168 127.72 4.168 127.347C4.168 127.132 4.21466 126.931 4.308 126.745C4.40133 126.558 4.52733 126.423 4.686 126.339C5.36733 126.339 5.708 126.614 5.708 127.165C5.708 127.323 5.68 127.473 5.624 127.613C5.55866 127.753 5.47 127.888 5.358 128.019L5.204 128.187C5.40933 128.467 5.66133 128.7 5.96 128.887C6.25866 129.073 6.60866 129.227 7.01 129.349L8.06 129.349C8.368 129.349 8.72733 129.349 9.138 129.349C9.54866 129.339 9.93133 129.33 10.286 129.321L10.496 128.173L11 128.173L11 131.575ZM11.182 122.543C11.182 123.085 11.056 123.603 10.804 124.097C10.5427 124.583 10.1553 124.979 9.642 125.287C9.11933 125.595 8.47533 125.749 7.71 125.749C6.93533 125.749 6.28666 125.595 5.764 125.287C5.232 124.979 4.83533 124.583 4.574 124.097C4.30333 123.603 4.16799 123.085 4.16799 122.543C4.16799 122.002 4.30333 121.489 4.57399 121.003C4.83533 120.509 5.23199 120.107 5.764 119.799C6.28666 119.482 6.93533 119.323 7.70999 119.323C8.47533 119.323 9.11933 119.482 9.642 119.799C10.1553 120.107 10.5427 120.509 10.804 121.003C11.056 121.489 11.182 122.002 11.182 122.543ZM10.552 122.543C10.552 121.937 10.314 121.47 9.838 121.143C9.35266 120.817 8.64333 120.653 7.71 120.653C6.76733 120.653 6.04866 120.817 5.55399 121.143C5.05933 121.47 4.81199 121.937 4.81199 122.543C4.81199 123.15 5.05933 123.617 5.55399 123.943C6.04866 124.261 6.76733 124.419 7.71 124.419C8.64333 124.419 9.35266 124.261 9.838 123.943C10.314 123.617 10.552 123.15 10.552 122.543ZM14.346 118.343L13.856 118.343L13.66 117.223C13.2773 117.213 12.8947 117.209 12.512 117.209C12.1387 117.199 11.7653 117.195 11.392 117.195L7.38799 117.195C7.00533 117.195 6.68799 117.199 6.436 117.209C6.18399 117.209 5.91799 117.218 5.63799 117.237L5.51199 118.343L5.02199 118.343L4.16799 116.383L4.30799 116.173L5.21799 116.089C4.51799 115.426 4.16799 114.721 4.16799 113.975C4.16799 113.471 4.30799 113.018 4.58799 112.617C4.86799 112.215 5.26933 111.898 5.79199 111.665C6.30533 111.422 6.92599 111.301 7.65399 111.301C8.37266 111.301 8.99799 111.427 9.52999 111.679C10.0527 111.931 10.4587 112.276 10.748 112.715C11.0373 113.144 11.182 113.634 11.182 114.185C11.182 114.502 11.1167 114.819 10.986 115.137C10.8553 115.445 10.6173 115.748 10.272 116.047L11.378 116.047C11.7513 116.047 12.1247 116.047 12.498 116.047C12.8807 116.037 13.2633 116.028 13.646 116.019L13.856 114.745L14.346 114.745L14.346 118.343ZM4.96599 114.311C4.96599 114.525 5.02199 114.773 5.13399 115.053C5.23666 115.333 5.43733 115.65 5.73599 116.005L9.66999 116.005C9.92199 115.743 10.104 115.487 10.216 115.235C10.328 114.983 10.384 114.726 10.384 114.465C10.384 113.942 10.174 113.494 9.75399 113.121C9.33399 112.747 8.67133 112.561 7.76599 112.561C6.86999 112.561 6.17933 112.724 5.69399 113.051C5.20866 113.377 4.96599 113.797 4.96599 114.311ZM14.346 110.317L13.856 110.317L13.66 109.197C13.2773 109.188 12.8947 109.183 12.512 109.183C12.1387 109.174 11.7653 109.169 11.392 109.169L7.38799 109.169C7.00533 109.169 6.68799 109.174 6.43599 109.183C6.18399 109.183 5.91799 109.192 5.63799 109.211L5.51199 110.317L5.02199 110.317L4.16799 108.357L4.30799 108.147L5.21799 108.063C4.51799 107.4 4.16799 106.696 4.16799 105.949C4.16799 105.445 4.30799 104.992 4.58799 104.591C4.86799 104.19 5.26933 103.872 5.79199 103.639C6.30533 103.396 6.92599 103.275 7.65399 103.275C8.37266 103.275 8.99799 103.401 9.52999 103.653C10.0527 103.905 10.4587 104.25 10.748 104.689C11.0373 105.118 11.182 105.608 11.182 106.159C11.182 106.476 11.1167 106.794 10.986 107.111C10.8553 107.419 10.6173 107.722 10.272 108.021L11.378 108.021C11.7513 108.021 12.1247 108.021 12.498 108.021C12.8807 108.012 13.2633 108.002 13.646 107.993L13.856 106.719L14.346 106.719L14.346 110.317ZM4.96599 106.285C4.96599 106.5 5.02199 106.747 5.13399 107.027C5.23666 107.307 5.43733 107.624 5.73599 107.979L9.66999 107.979C9.92199 107.718 10.104 107.461 10.216 107.209C10.328 106.957 10.384 106.7 10.384 106.439C10.384 105.916 10.174 105.468 9.75399 105.095C9.33399 104.722 8.67133 104.535 7.76599 104.535C6.86999 104.535 6.17933 104.698 5.69399 105.025C5.20866 105.352 4.96599 105.772 4.96599 106.285ZM4.81199 98.879C4.81199 99.1404 4.88666 99.4064 5.03599 99.677C5.18533 99.9384 5.42333 100.167 5.74999 100.363C6.07666 100.55 6.51066 100.671 7.05199 100.727L7.05199 98.179C7.05199 97.843 6.98199 97.6237 6.84199 97.521C6.70199 97.409 6.52933 97.353 6.32399 97.353C6.05333 97.353 5.80599 97.423 5.58199 97.563C5.34866 97.6937 5.16199 97.8757 5.02199 98.109C4.88199 98.333 4.81199 98.5897 4.81199 98.879ZM11.182 98.893C11.182 99.8357 10.8787 100.592 10.272 101.161C9.65599 101.73 8.81133 102.015 7.73799 102.015C7.01933 102.015 6.39399 101.87 5.86199 101.581C5.32999 101.282 4.91466 100.89 4.61599 100.405C4.31733 99.9104 4.16799 99.3737 4.16799 98.795C4.16799 98.3097 4.27533 97.871 4.48999 97.479C4.70466 97.087 5.01266 96.7744 5.41399 96.541C5.80599 96.3077 6.28666 96.191 6.85599 96.191C7.01466 96.191 7.16399 96.2004 7.30399 96.219C7.43466 96.2377 7.54666 96.261 7.63999 96.289L7.63999 100.755C8.49866 100.736 9.15199 100.522 9.59999 100.111C10.048 99.7004 10.272 99.159 10.272 98.487C10.272 98.039 10.1833 97.6657 10.006 97.367C9.81933 97.0684 9.58133 96.793 9.29199 96.541L9.55799 96.205C10.0527 96.4664 10.4493 96.821 10.748 97.269C11.0373 97.717 11.182 98.2584 11.182 98.893ZM7.70999 93.6183C8.62466 93.6183 9.30133 93.4363 9.73999 93.0723C10.1693 92.699 10.384 92.2323 10.384 91.6723C10.384 91.3643 10.3233 91.0936 10.202 90.8603C10.0713 90.6176 9.86133 90.3656 9.57199 90.1043L5.69399 90.1043C5.41399 90.4216 5.22266 90.7063 5.11999 90.9583C5.01733 91.2103 4.96599 91.453 4.96599 91.6863C4.96599 92.0316 5.06399 92.3536 5.25999 92.6523C5.44666 92.9416 5.74533 93.175 6.15599 93.3523C6.55733 93.5296 7.07533 93.6183 7.70999 93.6183ZM11.14 89.9643L10.174 90.0623C10.4913 90.305 10.7387 90.585 10.916 90.9023C11.0933 91.2103 11.182 91.5836 11.182 92.0223C11.182 92.5916 11.0373 93.091 10.748 93.5203C10.4587 93.9496 10.0573 94.2856 9.54399 94.5283C9.02133 94.7616 8.41933 94.8783 7.73799 94.8783C7.01933 94.8783 6.39399 94.7476 5.86199 94.4863C5.32999 94.225 4.91466 93.8703 4.61599 93.4223C4.31733 92.9743 4.16799 92.4656 4.16799 91.8963C4.16799 91.5696 4.23333 91.257 4.36399 90.9583C4.49466 90.6503 4.73266 90.3516 5.07799 90.0623L1.91399 90.0623L1.77399 91.2523L1.28399 91.2523L0.653994 89.0683L0.765994 88.8723L2.75399 88.9283L10.328 88.9283L10.496 87.7943L11 87.7943L11.14 89.9643ZM11.182 81.4274C11.182 81.9127 11.0513 82.3 10.79 82.5894C10.5287 82.8787 10.1273 83.0234 9.58599 83.0234C9.40866 83.0234 9.23599 83.0234 9.06799 83.0234C8.89066 83.014 8.66666 83.0094 8.39599 83.0094L5.09199 83.0094L5.09199 84.1714L4.47599 84.1714L4.32199 82.9254L2.44599 82.5614L2.44599 81.7214L4.34999 81.8054L4.34999 79.9154L5.09199 79.9154L5.09199 81.8194L9.43199 81.8194C9.78666 81.8194 10.048 81.7494 10.216 81.6094C10.3747 81.4694 10.454 81.2827 10.454 81.0494C10.454 80.8907 10.4213 80.7414 10.356 80.6014C10.2907 80.452 10.1973 80.2887 10.076 80.1114L10.44 79.7754C10.9347 80.158 11.182 80.7087 11.182 81.4274ZM11.182 75.9086C11.182 76.45 11.056 76.968 10.804 77.4626C10.5427 77.948 10.1553 78.3446 9.64199 78.6526C9.11933 78.9606 8.47533 79.1146 7.70999 79.1146C6.93533 79.1146 6.28666 78.9606 5.76399 78.6526C5.23199 78.3446 4.83533 77.948 4.57399 77.4626C4.30333 76.968 4.16799 76.45 4.16799 75.9086C4.16799 75.3673 4.30333 74.854 4.57399 74.3686C4.83533 73.874 5.23199 73.4726 5.76399 73.1646C6.28666 72.8473 6.93533 72.6886 7.70999 72.6886C8.47533 72.6886 9.11933 72.8473 9.64199 73.1646C10.1553 73.4726 10.5427 73.874 10.804 74.3686C11.056 74.854 11.182 75.3673 11.182 75.9086ZM10.552 75.9086C10.552 75.302 10.314 74.8353 9.83799 74.5086C9.35266 74.182 8.64333 74.0186 7.70999 74.0186C6.76733 74.0186 6.04866 74.182 5.55399 74.5086C5.05933 74.8353 4.81199 75.302 4.81199 75.9086C4.81199 76.5153 5.05933 76.982 5.55399 77.3086C6.04866 77.626 6.76733 77.7846 7.70999 77.7846C8.64333 77.7846 9.35266 77.626 9.83799 77.3086C10.314 76.982 10.552 76.5153 10.552 75.9086ZM14.346 71.7078L13.856 71.7078L13.66 70.5878C13.2773 70.5784 12.8947 70.5738 12.512 70.5738C12.1387 70.5644 11.7653 70.5598 11.392 70.5598L7.38799 70.5598C7.00533 70.5598 6.68799 70.5644 6.43599 70.5738C6.18399 70.5738 5.91799 70.5831 5.63799 70.6018L5.51199 71.7078L5.02199 71.7078L4.16799 69.7478L4.30799 69.5378L5.21799 69.4538C4.51799 68.7911 4.16799 68.0864 4.16799 67.3398C4.16799 66.8358 4.30799 66.3831 4.58799 65.9818C4.86799 65.5804 5.26933 65.2631 5.79199 65.0298C6.30533 64.7871 6.92599 64.6658 7.65399 64.6658C8.37266 64.6658 8.99799 64.7918 9.52999 65.0438C10.0527 65.2958 10.4587 65.6411 10.748 66.0798C11.0373 66.5091 11.182 66.9991 11.182 67.5498C11.182 67.8671 11.1167 68.1844 10.986 68.5018C10.8553 68.8098 10.6173 69.1131 10.272 69.4118L11.378 69.4118C11.7513 69.4118 12.1247 69.4118 12.498 69.4118C12.8807 69.4024 13.2633 69.3931 13.646 69.3838L13.856 68.1098L14.346 68.1098L14.346 71.7078ZM4.96599 67.6758C4.96599 67.8904 5.02199 68.1378 5.13399 68.4178C5.23666 68.6978 5.43733 69.0151 5.73599 69.3698L9.66999 69.3698C9.92199 69.1084 10.104 68.8518 10.216 68.5998C10.328 68.3478 10.384 68.0911 10.384 67.8298C10.384 67.3071 10.174 66.8591 9.75399 66.4858C9.33399 66.1124 8.67133 65.9258 7.76599 65.9258C6.86999 65.9258 6.17933 66.0891 5.69399 66.4158C5.20866 66.7424 4.96599 67.1624 4.96599 67.6758ZM11 60.2781L10.496 60.2781L10.3 59.2281C9.94533 59.2187 9.56266 59.2141 9.15199 59.2141C8.73199 59.2047 8.36799 59.2001 8.05999 59.2001L7.40199 59.2001C7.01933 59.2001 6.70199 59.2047 6.44999 59.2141C6.18866 59.2141 5.91799 59.2234 5.63799 59.2421L5.51199 60.3621L5.02199 60.3621L4.16799 58.2061L4.30799 57.9961L6.21199 58.0381L8.05999 58.0381C8.36799 58.0381 8.73199 58.0381 9.15199 58.0381C9.56266 58.0287 9.94533 58.0194 10.3 58.0101L10.496 57.0301L11 57.0301L11 60.2781ZM2.62799 58.6261C2.62799 58.8874 2.54399 59.1114 2.37599 59.2981C2.20799 59.4754 1.99333 59.5641 1.73199 59.5641C1.46133 59.5641 1.24666 59.4754 1.08799 59.2981C0.919992 59.1114 0.835992 58.8874 0.835992 58.6261C0.835992 58.3647 0.919992 58.1454 1.08799 57.9681C1.24666 57.7814 1.46133 57.6881 1.73199 57.6881C1.99333 57.6881 2.20799 57.7814 2.37599 57.9681C2.54399 58.1454 2.62799 58.3647 2.62799 58.6261ZM11 56.0381L10.496 56.0381L10.3 55.0021C9.94533 54.9928 9.56266 54.9881 9.15199 54.9881C8.74133 54.9788 8.37733 54.9741 8.05999 54.9741L7.38799 54.9741C7.00533 54.9741 6.68799 54.9788 6.43599 54.9881C6.18399 54.9881 5.91799 54.9975 5.63799 55.0161L5.51199 56.1221L5.02199 56.1221L4.16799 54.1621L4.30799 53.9521L5.42799 53.8401C5.05466 53.4948 4.75133 53.0981 4.51799 52.6501C4.28466 52.2021 4.16799 51.7635 4.16799 51.3341C4.16799 50.7275 4.37333 50.2795 4.78399 49.9901C5.18533 49.6915 5.84333 49.5421 6.75799 49.5421L8.05999 49.5421C8.37733 49.5421 8.74133 49.5421 9.15199 49.5421C9.56266 49.5328 9.94533 49.5235 10.3 49.5141L10.496 48.5341L11 48.5341L11 51.7821L10.496 51.7821L10.3 50.7461C9.95466 50.7368 9.57666 50.7321 9.16599 50.7321C8.74599 50.7228 8.37733 50.7181 8.05999 50.7181L6.86999 50.7181C6.22599 50.7181 5.78266 50.8115 5.53999 50.9981C5.29733 51.1755 5.17599 51.4695 5.17599 51.8801C5.17599 52.1975 5.24133 52.5055 5.37199 52.8041C5.50266 53.1028 5.71733 53.4295 6.01599 53.7841L8.05999 53.7841C8.36799 53.7841 8.73199 53.7841 9.15199 53.7841C9.56266 53.7748 9.94533 53.7655 10.3 53.7561L10.496 52.7901L11 52.7901L11 56.0381ZM4.89599 40.5563L4.34999 40.5563L4.34999 37.8963L4.89599 37.8963L5.07799 38.6663L11.084 40.9343L11.084 41.5363L5.03599 44.0843L4.89599 44.8403L4.34999 44.8403L4.34999 41.4523L4.89599 41.4523L5.07799 42.6843L9.55799 40.9763L5.09199 39.4223L4.89599 40.5563ZM11 37.282L10.496 37.282L10.3 36.232C9.94532 36.2226 9.56266 36.218 9.15199 36.218C8.73199 36.2086 8.36799 36.204 8.05999 36.204L7.40199 36.204C7.01932 36.204 6.70199 36.2086 6.44999 36.218C6.18866 36.218 5.91799 36.2273 5.63799 36.246L5.51199 37.366L5.02199 37.366L4.16799 35.21L4.30799 35L6.21199 35.042L8.05999 35.042C8.36799 35.042 8.73199 35.042 9.15199 35.042C9.56266 35.0326 9.94532 35.0233 10.3 35.014L10.496 34.034L11 34.034L11 37.282ZM2.62799 35.63C2.62799 35.8913 2.54399 36.1153 2.37599 36.302C2.20799 36.4793 1.99332 36.568 1.73199 36.568C1.46132 36.568 1.24666 36.4793 1.08799 36.302C0.919991 36.1153 0.835991 35.8913 0.835991 35.63C0.835991 35.3686 0.919991 35.1493 1.08799 34.972C1.24666 34.7853 1.46132 34.692 1.73199 34.692C1.99332 34.692 2.20799 34.7853 2.37599 34.972C2.54399 35.1493 2.62799 35.3686 2.62799 35.63ZM11.182 30.8021C11.182 31.1941 11.1353 31.5534 11.042 31.8801C10.958 32.2067 10.8273 32.5427 10.65 32.8881L9.10999 32.9441L9.10999 32.1741L10.328 31.9081C10.4773 31.5814 10.552 31.2034 10.552 30.7741C10.552 30.2421 10.454 29.8501 10.258 29.5981C10.062 29.3367 9.80532 29.2061 9.48799 29.2061C9.18932 29.2061 8.95132 29.3134 8.77399 29.5281C8.58732 29.7427 8.41932 30.0694 8.26999 30.5081L8.03199 31.1521C7.84532 31.6654 7.60266 32.0761 7.30399 32.3841C7.00532 32.6921 6.61799 32.8461 6.14199 32.8461C5.79666 32.8461 5.47466 32.7527 5.17599 32.5661C4.87732 32.3794 4.63466 32.1041 4.44799 31.7401C4.26132 31.3761 4.16799 30.9327 4.16799 30.4101C4.16799 30.0274 4.21932 29.6821 4.32199 29.3741C4.41532 29.0567 4.55532 28.7487 4.74199 28.4501L6.16999 28.5061L6.16999 29.2341L5.04999 29.4581C4.89132 29.7754 4.81199 30.0974 4.81199 30.4241C4.81199 30.8534 4.90066 31.1801 5.07799 31.4041C5.24599 31.6187 5.47466 31.7261 5.76399 31.7261C6.07199 31.7261 6.30532 31.6327 6.46399 31.4461C6.62266 31.2501 6.79066 30.9141 6.96799 30.4381L7.12199 30.0041C7.38332 29.3041 7.68199 28.8094 8.01799 28.5201C8.35399 28.2214 8.74132 28.0721 9.17999 28.0721C9.53466 28.0721 9.86599 28.1747 10.174 28.38C10.4727 28.5854 10.7153 28.8887 10.902 29.29C11.0887 29.6914 11.182 30.1954 11.182 30.8021ZM11.182 23.7937C11.182 24.7551 10.8693 25.5204 10.244 26.0897C9.61866 26.6591 8.76932 26.9437 7.69599 26.9437C6.95866 26.9437 6.32866 26.7944 5.80599 26.4957C5.27399 26.1877 4.86799 25.7864 4.58799 25.2917C4.30799 24.7971 4.16799 24.2697 4.16799 23.7097C4.16799 23.2897 4.24732 22.9024 4.40599 22.5477C4.56466 22.1931 4.78399 21.8991 5.06399 21.6657C5.33466 21.4324 5.64266 21.2877 5.98799 21.2317C6.34266 21.2971 6.51999 21.5117 6.51999 21.8757C6.51999 22.1091 6.45932 22.2864 6.33799 22.4077C6.20732 22.5197 6.04399 22.5991 5.84799 22.6457L4.92399 22.8977C4.87732 23.0284 4.84932 23.1591 4.83999 23.2897C4.82132 23.4111 4.81199 23.5324 4.81199 23.6537C4.81199 24.2511 5.04532 24.7457 5.51199 25.1377C5.97866 25.5204 6.65999 25.7117 7.55599 25.7117C8.43332 25.7117 9.10532 25.5017 9.57199 25.0817C10.0387 24.6617 10.272 24.1251 10.272 23.4717C10.272 23.0704 10.1833 22.7017 10.006 22.3657C9.81932 22.0297 9.55332 21.7544 9.20799 21.5397L9.38999 21.1897C9.96866 21.3857 10.412 21.7031 10.72 22.1417C11.028 22.5804 11.182 23.1311 11.182 23.7937ZM11.182 16.8598C11.182 17.4011 11.056 17.9191 10.804 18.4138C10.5427 18.8991 10.1553 19.2958 9.64199 19.6038C9.11932 19.9118 8.47532 20.0658 7.70999 20.0658C6.93532 20.0658 6.28666 19.9118 5.76399 19.6038C5.23199 19.2958 4.83532 18.8991 4.57399 18.4138C4.30332 17.9191 4.16799 17.4011 4.16799 16.8598C4.16799 16.3185 4.30332 15.8051 4.57399 15.3198C4.83532 14.8251 5.23199 14.4238 5.76399 14.1158C6.28666 13.7985 6.93532 13.6398 7.70999 13.6398C8.47532 13.6398 9.11932 13.7985 9.64199 14.1158C10.1553 14.4238 10.5427 14.8251 10.804 15.3198C11.056 15.8051 11.182 16.3185 11.182 16.8598ZM10.552 16.8598C10.552 16.2531 10.314 15.7865 9.83799 15.4598C9.35266 15.1331 8.64332 14.9698 7.70999 14.9698C6.76732 14.9698 6.04866 15.1331 5.55399 15.4598C5.05932 15.7865 4.81199 16.2531 4.81199 16.8598C4.81199 17.4665 5.05932 17.9331 5.55399 18.2598C6.04866 18.5771 6.76732 18.7358 7.70999 18.7358C8.64332 18.7358 9.35266 18.5771 9.83799 18.2598C10.314 17.9331 10.552 17.4665 10.552 16.8598ZM11.182 10.2122C11.182 10.6042 11.1353 10.9635 11.042 11.2902C10.958 11.6169 10.8273 11.9529 10.65 12.2982L9.10999 12.3542L9.10999 11.5842L10.328 11.3182C10.4773 10.9915 10.552 10.6135 10.552 10.1842C10.552 9.65221 10.454 9.26021 10.258 9.00821C10.062 8.74687 9.80532 8.61621 9.48799 8.61621C9.18932 8.61621 8.95132 8.72354 8.77399 8.93821C8.58732 9.15287 8.41932 9.47954 8.26999 9.91821L8.03199 10.5622C7.84532 11.0755 7.60266 11.4862 7.30399 11.7942C7.00532 12.1022 6.61799 12.2562 6.14199 12.2562C5.79666 12.2562 5.47466 12.1629 5.17599 11.9762C4.87732 11.7895 4.63466 11.5142 4.44799 11.1502C4.26132 10.7862 4.16799 10.3429 4.16799 9.82021C4.16799 9.43754 4.21932 9.09221 4.32199 8.78421C4.41532 8.46687 4.55532 8.15887 4.74199 7.86021L6.16999 7.91621L6.16999 8.64421L5.04999 8.86821C4.89132 9.18554 4.81199 9.50754 4.81199 9.83421C4.81199 10.2635 4.90066 10.5902 5.07799 10.8142C5.24599 11.0289 5.47466 11.1362 5.76399 11.1362C6.07199 11.1362 6.30532 11.0429 6.46399 10.8562C6.62266 10.6602 6.79066 10.3242 6.96799 9.84821L7.12199 9.41421C7.38332 8.71421 7.68199 8.21954 8.01799 7.93021C8.35399 7.63154 8.74132 7.48221 9.17999 7.48221C9.53466 7.48221 9.86599 7.58487 10.174 7.79021C10.4727 7.99554 10.7153 8.29887 10.902 8.70021C11.0887 9.10154 11.182 9.60554 11.182 10.2122ZM4.81199 3.17589C4.81199 3.43723 4.88666 3.70323 5.03599 3.97389C5.18532 4.23523 5.42332 4.46389 5.74999 4.65989C6.07666 4.84656 6.51066 4.96789 7.05199 5.02389L7.05199 2.47589C7.05199 2.13989 6.98199 1.92056 6.84199 1.81789C6.70199 1.70589 6.52932 1.64989 6.32399 1.64989C6.05332 1.64989 5.80599 1.71989 5.58199 1.85989C5.34866 1.99056 5.16199 2.17256 5.02199 2.40589C4.88199 2.62989 4.81199 2.88656 4.81199 3.17589ZM11.182 3.18989C11.182 4.13256 10.8787 4.88856 10.272 5.45789C9.65599 6.02723 8.81132 6.31189 7.73799 6.31189C7.01932 6.31189 6.39399 6.16723 5.86199 5.87789C5.32999 5.57923 4.91466 5.18723 4.61599 4.70189C4.31732 4.20723 4.16799 3.67056 4.16799 3.09189C4.16799 2.60656 4.27532 2.16789 4.48999 1.77589C4.70466 1.38389 5.01266 1.07123 5.41399 0.837894C5.80599 0.604561 6.28666 0.487894 6.85599 0.487894C7.01466 0.487894 7.16399 0.497227 7.30399 0.515894C7.43466 0.534561 7.54666 0.557894 7.63999 0.585894L7.63999 5.05189C8.49866 5.03323 9.15199 4.81856 9.59999 4.40789C10.048 3.99723 10.272 3.45589 10.272 2.78389C10.272 2.33589 10.1833 1.96256 10.006 1.66389C9.81932 1.36523 9.58132 1.08989 9.29199 0.837894L9.55799 0.501894C10.0527 0.763227 10.4493 1.11789 10.748 1.56589C11.0373 2.01389 11.182 2.55523 11.182 3.18989Z" fill="#222222"/>
</svg>
