<svg width="1920" height="1281" viewBox="0 0 1920 1281" fill="none" xmlns="http://www.w3.org/2000/svg">
<g clip-path="url(#clip0_196_2)">
<rect width="1920" height="1280" transform="translate(0 0.5)" fill="white"/>
<g clip-path="url(#clip1_196_2)">
<path d="M483.98 730.124L480.883 728.27C481.223 728.795 481.678 729.236 482.215 729.558C482.752 729.879 483.356 730.073 483.98 730.124Z" fill="white"/>
<path d="M491.601 734.685C491.026 733.901 490.294 733.247 489.451 732.765C488.607 732.283 487.672 731.983 486.706 731.885C487.964 733.357 489.694 734.347 491.601 734.685V734.685Z" fill="white"/>
<path d="M490.247 737.095C489.357 735 487.744 734.648 486.298 734.073C486.703 734.829 487.265 735.49 487.946 736.011C488.627 736.532 489.412 736.902 490.247 737.095V737.095Z" fill="white"/>
<path d="M169.705 784.653C170.725 785.265 171.763 785.858 172.802 786.507C172.461 785.983 172.005 785.543 171.468 785.221C170.932 784.9 170.329 784.706 169.705 784.653V784.653Z" fill="white"/>
<path d="M163.438 777.7C163.817 778.47 164.369 779.142 165.051 779.663C165.733 780.184 166.526 780.54 167.369 780.704C166.964 779.954 166.404 779.298 165.726 778.78C165.048 778.262 164.268 777.894 163.438 777.7V777.7Z" fill="white"/>
<path d="M162.084 780.111C162.661 780.892 163.394 781.544 164.237 782.026C165.079 782.508 166.013 782.809 166.979 782.911C165.721 781.439 163.991 780.449 162.084 780.111V780.111Z" fill="white"/>
<path d="M-57.1608 1331.39C-38.2661 1294.46 -22.468 1259.66 -8.95058 1224.99C-6.20631 1218 -3.10971 1210.99 -0.124389 1204.22C1.72985 1199.96 3.58409 1195.67 5.43833 1191.35C8.62762 1183.82 11.7057 1176.24 14.8022 1168.66L17.3982 1162.28C18.7147 1159.02 20.0497 1155.75 21.2364 1152.43C23.4254 1146.23 27.6547 1140.95 33.2333 1137.45C44.8272 1129.86 56.9759 1123.16 69.5764 1117.39C98.608 1104.43 128.969 1094.67 160.119 1088.3C177.308 1084.59 194.552 1080.03 211.222 1075.56L221.105 1072.91C241.353 1067.52 261.898 1061.79 283.834 1055.45C293.865 1052.54 303.711 1049.27 313.056 1045.71C325.202 1041.11 337.403 1036.16 349.214 1031.36L357.577 1027.97C390.636 1014.28 422.571 998.029 453.089 979.353C463.528 973.068 474.394 967.042 484.889 961.202C489.895 958.421 494.883 955.627 499.852 952.821L500.984 952.191C502.466 951.436 503.88 950.555 505.211 949.558C506.741 948.581 507.86 947.077 508.355 945.331C508.851 943.585 508.689 941.718 507.9 940.083L507.622 939.342L505.971 938.526C504.88 937.949 503.76 937.429 502.615 936.968C501.671 936.649 500.682 936.48 499.686 936.468H499.092L476.563 934.614C459.263 933.186 441.333 931.703 423.755 930.646C400.354 929.237 375.674 931.221 343.707 937.08C316.284 941.864 289.522 949.868 263.975 960.924L245.191 969.174C226.185 977.499 206.53 986.102 187.376 994.946C170.692 1002.59 154.788 1011.84 139.889 1022.55C133.993 1026.8 128.041 1030.97 122.107 1035.13C105.827 1046.53 89.0089 1058.3 73.767 1071.73C70.689 1074.43 67.648 1077.16 64.6071 1079.88C61.1582 1082.98 57.7278 1086.06 54.2419 1089.15C56.8007 1083.81 59.4338 1078.31 62.3449 1073.1C68.5566 1061.97 74.0822 1050.29 79.4039 1039L83.9468 1029.43C100.635 994.557 121.032 960.942 138.61 932.648C148.003 917.453 158.41 902.908 169.761 889.114C187.376 867.847 209.609 848.805 237.682 830.895C257.633 818.157 279.439 809.776 296.201 803.899C320.733 795.314 348.268 789.53 380.402 786.211C425.497 781.575 466.161 777.163 507.362 770.098C554.182 762.07 591.73 750.612 625.551 734.054C635.268 729.308 644.928 724.079 654.255 719.036L658.279 716.867C660.93 715.421 665.38 713.01 664.027 707.596L663.767 706.985C661.653 703.647 658.483 703.554 655.961 703.48L552.828 700.161C520.972 699.123 489.061 703.388 461.655 707.448C441.328 710.203 421.162 714.04 401.244 718.943C376.014 725.582 351.533 734.796 328.187 746.44L320.177 750.371C314.188 753.282 308.013 756.285 302.042 759.53C280.086 771.079 259.075 784.34 239.202 799.189C242.558 794.313 245.896 789.437 249.326 784.598L250.179 783.374C251.347 781.65 274.711 752.503 279.18 748.405C295.497 733.443 310.182 719.908 324.571 706.02C344.101 686.909 365.41 669.705 388.209 654.643C398.797 647.486 408.986 639.755 418.729 631.485C439.441 614.52 461.525 599.724 486.15 583.519L489.71 581.257C492.083 579.755 494.549 578.198 496.867 576.492C508.197 568.149 522.029 562.16 540.405 557.636C548.345 555.921 556.403 554.799 564.51 554.28C577.23 553.167 588.708 552.222 600.167 552.055C618.19 551.795 631.948 552.055 644.835 552.908C679.363 555.21 714.043 553.217 748.079 546.975C763.507 544.138 778.062 538.854 794.12 532.754C815.944 524.466 837.769 515.826 858.24 507.705C864.618 505.164 870.941 502.272 877.06 499.454L878.914 498.619C880.661 497.775 882.363 496.841 884.014 495.82C884.755 495.356 885.516 494.911 886.276 494.466L887.444 493.799L886.776 486.994L885.794 486.475C885.513 486.337 885.24 486.182 884.978 486.012C884.293 485.504 883.488 485.185 882.641 485.084C862.362 483.544 842.247 480.307 822.508 475.406C797.495 469.566 770.071 467.619 738.66 469.454C729.892 470.245 721.207 471.784 712.701 474.052C701.761 476.63 690.246 479.615 676.45 483.657C660.431 488.44 644.747 494.281 629.501 501.141L638.976 495.375C653.439 486.623 668.403 477.575 682.476 467.285C700.708 453.971 717.56 438.865 732.782 422.193C756.015 396.699 778.73 367.311 804.281 329.747C835.611 283.316 862.954 234.316 886.016 183.272L886.461 182.364C887.196 180.953 887.739 179.45 888.074 177.895C888.19 176.64 888.032 175.375 887.611 174.187C886.213 173.01 884.592 172.127 882.845 171.591C881.639 171.844 880.489 172.315 879.452 172.982C867.808 181.511 854.791 188.315 842.2 194.916L841.088 195.509C834.172 199.218 827.07 202.629 820.191 206.022C815.333 208.414 810.493 210.806 805.672 213.253L801.648 215.293C795.492 218.389 789.114 221.597 783.106 225.249C768.719 233.981 755.153 243.997 742.572 255.175C729.113 267.201 716.301 279.932 704.19 293.314C686.573 312.462 670.256 332.767 655.349 354.091C630.799 389.616 608.066 426.717 589.06 458.33C574.849 482.244 558.727 504.969 540.85 526.283C530.015 539.327 516.657 550.048 501.577 557.803C450.151 584.193 402.016 616.554 358.17 654.216C347.768 663.172 337.458 672.22 327.149 681.249L323.551 684.401C335.363 671.738 347.453 658.778 359.542 646.17C395.811 608.253 424.978 572.932 448.694 538.168C470.648 505.999 490.489 469.102 509.346 425.326C526.961 384.536 540.238 339.778 551.141 284.636C552.142 279.538 552.772 274.309 553.366 269.247C553.644 266.93 553.922 264.612 554.237 262.313C554.552 260.014 555.035 256.398 550.659 254.173L549.435 253.543L548.396 254.433C548.137 254.655 547.822 254.859 547.525 255.082C546.475 255.724 545.582 256.591 544.91 257.622C522.289 297.226 493.511 332.547 465.753 364.79C441.648 392.879 417.543 421.841 394.346 449.838C386.299 459.529 378.264 469.219 370.241 478.91C361.017 490.234 352.89 502.409 345.969 515.269C329.949 544.045 312.296 578.587 302.951 616.708C300.522 626.535 298.519 636.621 296.591 646.374C295.8 650.416 294.99 654.451 294.162 658.481L293.735 660.539C292.104 668.4 290.472 676.28 288.988 684.179C286.244 698.901 280.385 712.806 275.1 724.673C273.794 727.394 272.074 729.896 270.001 732.089C261.156 742.083 252.015 752.095 244.042 760.939C214.232 793.637 186.876 828.49 162.196 865.214C159.165 869.582 156.397 874.127 153.907 878.824C148.363 889.296 142.273 899.471 135.662 909.305L132.75 913.829C128.3 920.726 123.943 927.809 119.771 934.669L117.119 938.971L137.942 885.48C154.093 843.966 164.866 809.665 171.838 777.515C186.356 710.507 188.192 644.519 177.252 581.35C173.618 560.337 170.064 539.323 166.59 518.31C164.934 508.422 163.271 498.496 161.602 488.533L161.435 487.346C161.445 486.024 161.139 484.718 160.542 483.538C159.946 482.358 159.076 481.337 158.005 480.56L157.597 480.301H157.134C152.943 479.8 151.775 483.156 151.219 484.751L151.015 485.27C149.68 488.885 148.326 492.464 146.954 496.042C143.746 504.46 140.427 513.156 137.683 521.87L135.828 527.34C127.744 552.407 119.381 578.328 112.057 604.081C101.043 643.327 92.8943 683.32 87.6738 723.746C85.3482 740.424 84.5537 757.28 85.3004 774.103C85.8937 786.563 86.7837 799.189 87.6367 811.427L88.2115 819.659C88.7307 827.372 89.3797 835.066 90.0657 842.761C91.4564 859.114 92.8842 876.024 93.0325 892.618V896.234C93.2365 919.966 93.459 944.44 89.936 968.414C89.3612 972.363 88.5638 976.368 87.8036 980.243L87.5626 981.56C86.0896 988.94 83.4347 996.033 79.7006 1002.57C51.887 1052.16 29.8772 1094.09 10.4633 1134.49C-6.87383 1170.51 -20.5025 1200.66 -32.4252 1229.32C-44.9599 1259.45 -58.1621 1289.92 -70.9378 1319.38L-75.7588 1330.5L-62.1672 1341.74L-57.1608 1331.39ZM601.409 730.661C586.965 736.428 572.094 741.452 560.746 745.179C540.946 751.653 520.682 756.612 500.131 760.012C468.256 765.259 434.027 769.728 389.136 774.474C353.331 778.182 323.162 784.301 295.997 793.201C305.537 789.162 315.322 785.731 325.294 782.929C339.09 778.961 351.569 775.716 363.455 773.046H363.696L374.914 770.673C383.369 768.986 391.101 767.651 398.555 766.613C405.101 765.704 462.842 757.657 464.381 757.546C488.09 755.713 511.612 751.955 534.712 746.31C564.547 739.246 591.174 731.978 615.965 724.061C611.255 726.416 606.397 728.696 601.409 730.661ZM319.769 777.719C322.198 776.402 324.645 775.142 327.186 774.011C337.588 769.171 348.398 764.74 358.838 760.401L364.233 758.176C367.573 756.799 371.03 755.726 374.562 754.969C378.159 754.19 381.775 753.541 385.39 752.892C389.303 752.188 393.345 751.446 397.295 750.575C405.249 748.721 413.167 746.978 421.084 745.124C427.723 743.585 434.361 742.027 440.999 740.525C457.687 736.817 474.857 735.427 491.545 734.073L497.108 733.628C505.471 732.961 513.796 732.182 522.159 731.403L535.139 730.217C537.401 730.013 539.644 729.772 541.888 729.531C546.969 728.993 552.198 728.437 557.334 728.344C566.234 728.158 575.487 727.843 584.925 726.935C573.799 729.957 562.544 732.998 551.345 735.797C520.305 743.585 445.468 752.243 441.351 753.022C432.414 753.745 424.459 754.635 417.042 755.711C398.593 758.374 380.292 761.982 362.212 766.52C361.378 766.668 332.062 774.029 319.769 777.719ZM285.132 787.156L287.116 785.933C301.82 776.847 331.135 750.908 406.677 726.601C421.641 721.762 437.995 719.741 455.629 716.681L460.302 715.866C480.439 712.343 501.262 708.69 522.011 707.763C543.501 706.799 622.659 713.326 625.514 713.177C624.137 713.561 622.738 713.858 621.324 714.067C614.426 715.087 607.027 716.218 599.851 717.664C589.452 719.659 578.913 720.836 568.329 721.187C556.592 721.706 544.706 722.633 533.229 723.542C526.646 724.061 520.064 724.654 513.5 725.247C506.936 725.841 500.835 726.378 494.494 726.879L493.288 726.972C475.043 728.418 456.204 729.92 437.884 734.017C426.758 736.483 415.781 738.894 404.73 741.323L378.047 747.182C361.563 750.89 346.655 757.49 334.25 763.498C326.388 767.317 318.564 771.452 310.98 775.457C305.899 778.127 300.818 780.815 295.719 783.429C288.513 787.138 281.293 790.766 274.062 794.313C277.733 791.853 281.423 789.468 285.132 787.156ZM690.375 495.189C756.257 478.688 796.809 484.862 811.439 485.047C817.205 485.047 822.972 485.177 828.739 485.196C832.677 485.314 836.592 485.842 840.42 486.772C820.024 489.442 802.353 491.351 783.922 491.277C770.312 491.277 756.461 491.926 743.518 492.705C733.635 493.298 723.121 494.299 711.421 495.764C700.833 497.081 690.45 498.916 682.606 500.362C673.965 501.938 665.232 503.718 656.647 505.461L657.574 505.164L662.729 503.496C671.796 500.529 681.086 497.47 690.375 495.189ZM812.069 294.278C794.695 318.122 781.122 336.125 768.049 352.664C759.223 363.788 750.045 375.061 740.792 385.927L735.229 392.379L728.332 400.537L727.979 400.852C724.086 404.709 720.21 408.59 716.353 412.496C710.401 418.485 704.449 424.474 698.386 430.37C675.408 452.576 650.493 472.687 623.938 490.461C623.938 490.461 766.529 370.315 848.56 234.093C836.823 255.1 824.233 275.218 812.069 294.222V294.278ZM665.121 356.817L666.752 354.425C674.676 342.395 683.237 330.797 692.397 319.679C715.591 292.466 741.43 267.623 769.533 245.515C775.817 240.616 782.353 236.048 789.114 231.831C783.871 236.205 778.876 240.866 774.15 245.793C764.749 255.601 756.164 264.334 747.875 272.251C731.855 287.751 696.142 330.544 695.79 331.026L686.519 344.116C680.189 353.053 673.867 361.984 667.55 370.908C662.951 377.416 658.408 383.887 653.865 390.525C642.184 407.36 630.113 424.77 617.393 441.161C609.735 451.006 601.576 460.647 593.288 470.048C617.374 429.202 640.886 392.138 665.121 356.761V356.817ZM608.418 469.918C631.874 441.123 673.316 375.951 667.624 383.442C678.972 367.2 690.283 350.946 701.557 334.679C701.686 334.495 701.792 334.296 701.872 334.086C715.878 316.058 730.955 298.889 747.022 282.671C751.398 278.221 755.886 273.846 760.354 269.47C766.622 263.351 793.731 250.651 821.841 224.304C814.548 231.844 807.267 239.409 799.998 246.998L790.374 257.01C788.52 258.957 786.833 260.811 785.275 262.665C758.995 294.148 732.739 325.668 706.507 357.225C705.895 357.948 704.078 360.544 704.078 360.544C702.465 362.509 700.87 364.456 699.109 366.495C698.879 366.704 698.662 366.927 698.46 367.163C687.705 379.759 676.994 392.385 666.326 405.042C655.658 417.7 644.792 430.135 633.728 442.347C624.952 452.359 616.194 462.378 607.454 472.402C606.786 473.07 600.575 479.466 608.418 469.807V469.918ZM572.984 517.828C576.692 514.268 580.252 510.69 583.961 507.185L592.175 499.398C626.497 466.896 693.398 383.368 714.555 357.688L718.931 352.367C719.339 351.867 724.048 345.136 726.348 342.448C747.684 317.182 769.088 291.954 790.56 266.763C793.397 263.425 796.531 260.199 799.534 257.066L801.685 254.841C806.21 250.119 810.759 245.397 815.333 240.676C821.303 234.495 827.274 228.315 833.244 222.134C840.996 213.774 849.41 206.054 858.406 199.051C853.993 205.021 849.896 210.509 845.668 215.997C831.501 234.372 762.394 337.775 727.219 377.082C700.221 406.971 672.667 435.561 645.355 461.815C639.032 467.266 631.856 473.459 624.624 479.114C610.532 490.091 595.976 500.993 581.884 511.524L573.707 517.661L572.539 518.18L572.984 517.828ZM571.649 540.504L576.822 539.039C578.398 538.594 579.993 538.168 581.569 537.704C601.594 531.882 641.943 514.732 652.03 513.36C661.471 512.069 670.835 510.274 680.084 507.983C691.342 505.199 702.809 503.339 714.369 502.42C717.484 502.161 720.618 501.846 723.64 501.53C728.35 501.067 733.245 500.603 738.048 500.288L745.799 499.769C755.682 499.083 765.899 498.378 775.93 498.36C794.24 498.431 812.536 497.322 830.704 495.041C837.787 494.021 841.552 493.465 838.752 493.891C835.952 494.318 833.411 494.689 830.704 495.041C822.675 496.209 799.683 507.056 791.765 508.984C775.926 513.105 759.816 516.104 743.555 517.958C736.806 518.625 730 519.552 723.399 520.442C718.986 521.036 714.573 521.629 710.16 522.167L705.729 522.686C695.03 523.965 683.978 525.3 673.094 526.264C647.202 528.335 621.436 531.758 595.902 536.518C592.917 537.111 589.931 537.797 586.965 538.464C582.292 539.521 577.489 540.615 572.687 541.338C572.411 540.954 572.057 540.631 571.649 540.393V540.504ZM664.806 544.435C658.242 544.231 651.696 543.934 645.132 543.619C639.365 543.359 633.524 543.081 627.665 542.877C638.79 541.82 695.475 531.548 704.857 530.417L711.143 529.657C716.242 529.064 721.323 528.359 726.403 527.655C732.559 526.802 738.919 525.931 745.168 525.244C758.393 523.883 771.501 521.553 784.385 518.273C789.59 516.938 794.8 515.702 800.017 514.565C788.502 517.791 774.057 529.008 767.363 531.122C734.16 541.243 699.49 545.705 664.806 544.323V544.435ZM514.723 336.774C511.145 344.005 507.492 351.218 503.858 358.412C499.463 367.07 494.939 376.026 490.618 384.888C480.816 404.938 469.236 424.068 456.018 442.051C448.601 452.125 441.271 462.211 434.027 472.31L421.659 489.405C404.823 512.562 387.43 536.517 371.725 561.103L358.745 581.498C352.997 590.534 347.242 599.557 341.482 608.568C346.24 597.503 351.569 586.691 357.447 576.177L361.508 569.15C381.904 533.736 403.191 497.118 428.594 464.096C429.688 462.687 430.689 461.185 431.691 459.683L432.933 457.829C437.482 451.191 442.013 444.541 446.525 437.879C456.537 423.046 466.921 407.916 477.342 393.102C493.622 370 506.583 349.864 517.579 330.489C516.633 332.602 515.706 334.66 514.723 336.663V336.774ZM315.374 612.147C324.645 578.291 340.777 546.808 355.444 520.498C360.657 510.999 366.466 501.84 372.837 493.076C372.058 494.522 413.056 442.737 416.838 438.175C437.68 413.071 458.577 388.003 479.53 362.973C476.044 368.053 472.521 373.152 468.961 378.139C464.362 384.592 459.523 391.118 454.832 397.292C451.383 401.866 447.959 406.476 444.559 411.124C441.444 415.37 438.422 419.671 435.288 423.954C432.154 428.237 429.021 432.854 425.813 437.23C418.655 447.001 411.665 457.217 405.082 467.507L404.878 467.767C396.349 480.264 388.672 491.871 381.441 503.385C365.995 527.896 311.258 629.464 310.757 631.003C312.222 624.699 313.705 618.339 315.374 612.147ZM373.523 576.77C377.844 569.354 382.164 561.937 386.392 554.521C388.476 550.94 390.779 547.49 393.289 544.194L400.706 534.237C412.926 517.55 425.553 500.474 439.2 484.547C442.056 481.191 444.652 477.575 447.136 474.052C448.805 471.735 450.456 469.399 452.199 467.137C457.143 460.771 462.088 454.436 467.032 448.132C447.73 480.449 428.891 509.985 409.662 538.075C392.974 562.401 375.637 586.838 358.838 610.478C353.337 618.216 347.848 625.947 342.372 633.673C351.754 614.242 362.824 595.311 373.523 576.77ZM162.01 557.821C166.46 582.184 172.691 639.81 172.839 636.102C174.736 658.182 175.114 680.366 173.97 702.498C172.116 743.158 133.826 864.306 132.25 871.222C129.337 883.395 125.582 895.352 121.013 907.006C128.912 878.916 134.679 854.238 138.832 830.802C142.671 809.276 146.49 785.58 150.903 756.211L151.868 749.759C154.241 734.11 156.689 717.961 157.801 701.923C160.212 667.14 162.455 630.669 162.455 593.439C162.455 580.886 162.196 568.223 161.602 555.522C161.732 556.227 161.88 557.024 162.01 557.821ZM103.027 884.553C100.468 856.5 98.0576 823.367 99.5595 789.363C101.265 750.927 103.713 718.702 110.129 686.459C111.291 680.563 112.44 674.667 113.578 668.771C115.543 658.703 117.546 648.376 119.696 638.104C121.161 631.133 122.774 624.106 124.425 617.171C123.053 627.629 121.606 638.216 120.03 648.691C115.84 676.503 111.501 705.167 110.629 734.296C110.221 748.034 109.554 761.996 108.905 775.494V776.069C108.497 784.672 108.033 793.275 107.588 801.878C107.156 809.937 106.748 817.972 106.365 825.981C105.919 834.992 105.499 844.003 105.104 853.014C104.547 865.153 103.973 877.303 103.379 889.466C103.286 887.89 103.175 886.259 103.027 884.553ZM115.766 775.383C115.932 772.064 116.136 768.745 116.359 765.426C116.748 759.141 117.156 752.651 117.212 746.218C117.453 711.397 122.533 676.966 128.003 644.964C131.193 626.201 133.158 611.776 134.326 598.204C136.644 571.838 142.281 546.289 147.807 524.336L147.158 533.032C146.045 548.106 152.313 622.252 149.976 647.004L148.771 656.386C147.399 666.917 146.045 677.467 144.617 687.906L143.264 697.677C142.04 706.076 140.779 715.18 139.426 725.489C132.621 774.215 126.057 817.601 119.418 857.928C119.205 858.659 119.075 859.411 119.029 860.171L116.396 876.302C115.617 881.048 114.838 885.795 114.004 890.504C113.985 890.751 113.985 890.999 114.004 891.246L112.891 897.198C111.334 905.374 109.795 913.533 108.2 921.709C108.126 921.635 114.672 798.133 115.766 775.438V775.383ZM101.747 1065.51C105.289 1063.09 108.849 1060.66 112.317 1058.1C131.593 1044.09 151.746 1031.33 172.654 1019.9C176.214 1018.05 179.792 1016.05 183.39 1014.14C186.171 1012.65 188.946 1011.16 191.715 1009.67L199.132 1005.66C211.073 999.137 223.423 992.388 236.217 986.992C238.386 986.065 240.463 984.971 242.466 983.915C243.745 983.247 245.024 982.561 246.322 981.931C249.438 980.447 252.534 978.908 255.594 977.388C263.307 973.68 271.262 969.675 279.254 966.263C287.69 962.555 296.554 959.533 305.213 956.529L309.329 955.083C315.133 953.044 320.844 951.375 326.296 949.966C351.996 943.391 378.33 939.599 404.841 938.656C393.215 940.603 381.663 943.328 369.963 946.183L363.232 947.796C350.345 950.874 337.032 954.045 324.516 959.422C316.172 963.019 307.828 966.542 299.446 970.064C269.259 982.765 238.053 996.022 208.589 1011.67C199.317 1016.68 189.601 1021.52 180.293 1026.21C175.546 1028.6 170.805 1031 166.071 1033.4C154.76 1039.16 143.455 1044.95 132.157 1050.76L118.232 1057.88C108.283 1062.89 98.6036 1068.43 89.2314 1074.45C93.1809 1071.39 97.5198 1068.41 101.747 1065.51ZM79.1999 1092.9C96.4443 1082.11 147.899 1049.18 162.4 1041.99L174.044 1036.18C181.461 1032.47 188.878 1028.73 196.295 1024.95C203.564 1021.24 210.814 1017.53 218.101 1013.82L225.611 1010.11C234.882 1005.4 244.579 1000.53 254.277 996.244C271.447 988.68 289.044 981.282 306.066 974.143L323.31 966.875C327.246 965.116 331.283 963.593 335.4 962.314C361.804 954.749 390.193 947.314 419.026 944.181C422.735 943.773 443.28 940.306 451.642 941.567C453.904 941.9 456.167 942.16 458.559 942.42C448.323 944.459 413.389 967.914 389.599 975.794C385.761 977.073 381.96 978.408 378.159 979.724C374.358 981.041 370.241 982.487 366.273 983.822L356.075 987.178C337.532 993.259 318.304 999.563 299.947 1007.37C295.456 1009.36 290.864 1011.12 286.189 1012.63C265.124 1019.05 243.968 1026.52 223.311 1034.88L222.755 1035.13C218.88 1036.68 214.875 1038.31 210.869 1039.59C191.641 1045.77 171.189 1053.37 148.363 1062.79L141.539 1065.66C136.57 1067.78 131.434 1069.96 126.298 1071.84C107.963 1078.61 90.2251 1086.91 73.2663 1096.63L79.1999 1092.9ZM72.0055 1105.38C86.508 1096.81 101.617 1089.31 117.212 1082.94C127.262 1078.92 137.423 1074.65 147.232 1070.52L161.454 1064.4C163.494 1063.57 165.552 1062.75 167.629 1061.97L172.616 1060.12C197.636 1050.93 222.65 1041.77 247.657 1032.62C252.794 1030.77 257.967 1028.91 263.14 1027.21L273.394 1023.8C279.569 1021.76 285.966 1019.64 292.215 1017.38C302.914 1013.54 313.576 1009.61 324.219 1005.68L351.198 995.799C356.334 993.945 361.489 992.184 366.663 990.422C370.686 989.05 374.71 987.678 378.734 986.251C382.164 985.027 385.613 983.84 389.062 982.635C398.648 979.298 408.568 975.849 418.173 972.011C432.061 966.449 445.987 960.516 459.578 954.786L477.564 947.185L478.102 946.962C479.493 946.387 480.865 945.794 482.293 945.33C483.875 944.808 485.553 944.643 487.207 944.848V944.848C483.498 946.387 480.235 947.722 477.027 949.224L473.671 950.782C463.658 955.472 453.274 960.293 443.261 965.392C436.92 968.6 430.541 972.011 424.385 975.293C417.376 979.001 410.126 982.913 402.913 986.418C381.978 996.856 359.023 1007.09 332.693 1017.7C328.057 1019.55 323.255 1021.18 318.749 1022.68C314.243 1024.19 310.127 1025.45 305.769 1026.8C296.869 1029.54 287.672 1032.36 278.901 1036.07C261.509 1043.25 243.782 1047.88 225.648 1052.39L223.664 1052.89C203.267 1057.95 182.184 1063.18 162.474 1071.58C147.64 1077.92 131.972 1083.18 116.897 1088.26C111.019 1090.27 105.141 1092.25 99.2813 1094.31C88.8789 1097.93 78.716 1102.21 68.8532 1107.12L72.0055 1105.38Z" fill="#F5F5F5"/>
</g>
<path d="M1496.76 26.8947L1496.61 27.0025C1495.33 28.0978 1495.7 29.4583 1495.93 30.3571L1496 30.6121C1496.61 33.0593 1497.19 35.5122 1497.78 37.9775C1499.17 43.7366 1500.59 49.6931 1502.28 55.4881C1504.09 61.7174 1506.21 67.9644 1508.28 73.9868C1509.07 76.3051 1509.86 78.6386 1510.63 80.9599C1511.44 83.3541 1512.26 85.7454 1513.08 88.1367C1513.78 90.1574 1514.46 92.1658 1515.15 94.1894C1520.04 108.731 1526.55 122.177 1534.48 134.138C1540.52 143.223 1548.73 154.974 1558.83 165.184C1560.95 167.325 1563.04 169.521 1565.12 171.702C1567.56 174.255 1570.08 176.872 1572.62 179.405C1574.02 180.805 1575.57 182.066 1577.05 183.293C1577.87 183.969 1578.69 184.646 1579.49 185.343C1580.34 186.093 1581.04 186.792 1581.63 187.497C1582.59 188.65 1583.53 189.806 1584.48 190.963C1585.9 192.704 1587.38 194.513 1588.88 196.238C1598.04 206.676 1607.25 217.072 1616.46 227.468C1617.38 228.518 1618.33 229.532 1619.3 230.542C1619.35 230.594 1619.4 230.649 1619.45 230.701C1615.67 228.185 1611.87 225.672 1608.08 223.157C1599.95 217.745 1591.54 212.151 1583.23 206.726C1570.18 198.198 1556.49 191.979 1542.56 188.243C1529.28 184.697 1517.02 182.672 1505.09 182.061C1500.66 181.84 1496.23 181.648 1491.79 181.475L1487.04 181.284L1486.67 181.26C1485.86 181.196 1484.74 181.111 1483.85 182.131L1483.74 182.293C1483.31 183.068 1483.37 183.717 1483.49 184.134C1483.67 184.729 1484.11 185.226 1484.74 185.532C1488.18 187.278 1491.17 189.821 1494.05 192.274C1495.78 193.752 1497.58 195.279 1499.48 196.646L1500.54 197.418C1502.69 198.972 1504.9 200.563 1507.22 201.976C1513.8 205.969 1522.48 211.228 1531.24 216.315C1542.52 222.871 1555.31 228.177 1570.37 232.561C1579.57 235.237 1588.83 238.247 1597.78 241.142C1605.71 243.713 1613.9 246.377 1622.04 248.799C1623.89 249.357 1625.75 249.881 1627.61 250.406C1630.04 251.089 1632.47 251.788 1634.88 252.538C1636.44 253.027 1638.01 253.591 1639.51 254.152C1640.7 254.586 1641.88 255.02 1643.09 255.433C1644.83 256.014 1646.36 256.963 1647.9 258.415C1658.6 268.508 1670.27 277.788 1681.56 286.781L1683.64 288.443C1684.16 288.862 1707.22 306.769 1707.22 306.769L1707.4 306.877C1708.53 307.383 1709.65 308.05 1710.71 308.822C1711.61 309.484 1712.5 310.131 1713.4 310.777C1715.97 312.644 1718.65 314.554 1721.06 316.704C1722.01 317.545 1723.12 318.166 1724.19 318.747C1724.82 319.098 1725.47 319.461 1726.07 319.866C1750.38 336.274 1774.68 352.685 1798.96 369.129C1800.97 370.491 1802.96 371.983 1804.87 373.441C1805.77 374.118 1806.66 374.798 1807.59 375.47L1815.4 380.973C1816.03 381.278 1816.58 381.598 1817.09 381.956C1820.85 384.618 1824.63 387.261 1828.4 389.888C1833.85 393.691 1839.48 397.631 1844.97 401.551C1852.35 406.854 1860.07 412.566 1867.89 418.524C1870.76 420.711 1873.59 423.064 1876.32 425.341C1877.95 426.682 1879.56 428.04 1881.2 429.363C1889.24 435.862 1898.53 443.474 1907.16 451.762C1918.34 462.49 1929.31 473.146 1939.74 483.419C1950.81 494.324 1962.49 506.716 1975.44 521.336C1984.87 531.989 1993.92 543.296 2002.68 554.218L2002.91 554.49C2008.65 561.648 2016.01 571.235 2021.94 581.801C2024.71 586.73 2028.2 591.206 2030.9 594.543C2034.42 598.887 2037.74 603.787 2040.78 609.105C2041.42 610.225 2042.07 611.358 2042.71 612.478C2043.4 613.684 2044.1 614.871 2044.78 616.077C2042.61 613.614 2040.46 611.148 2038.33 608.661C2027.66 596.201 2017.76 585.59 2008.08 576.26C1992.26 561.01 1975.93 546.913 1959.52 534.324C1945.25 523.371 1933.93 515.533 1922.83 508.881C1922.24 508.522 1921.67 508.111 1921.09 507.673C1920.43 507.186 1919.73 506.674 1918.99 506.25C1917.56 505.438 1916.11 504.663 1914.65 503.887C1912.88 502.936 1911.06 501.964 1909.3 500.931C1902.69 497.022 1894.2 491.538 1887.23 483.905C1886.54 483.157 1885.74 482.523 1884.98 481.914C1884.67 481.675 1884.37 481.433 1884.07 481.176C1883.79 480.932 1883.48 480.723 1883.18 480.496C1882.65 480.095 1882.14 479.736 1881.79 479.3L1880.95 478.266C1879.38 476.317 1877.75 474.316 1876.47 472.187C1873.2 466.773 1869.94 461.089 1866.78 455.306C1862.14 446.757 1856.39 436.768 1849 427.472C1843.33 420.347 1837.44 414.427 1831.02 409.395C1823.13 403.198 1813.97 397.544 1802.11 391.571C1801.83 391.435 1801.52 391.275 1801.16 391.187C1799.8 390.849 1798.82 391.477 1798.45 392.916L1798.35 393.282L1798.8 394.046C1799.01 394.414 1799.24 394.825 1799.51 395.23C1799.89 395.818 1800.27 396.391 1800.64 396.964C1801.33 397.997 1802 399.032 1802.63 400.092C1805.05 404.22 1807.48 408.364 1809.9 412.511C1812.12 416.332 1814.36 420.15 1816.6 423.953C1819.38 428.675 1822.73 433.208 1826.57 437.427L1839.12 451.211C1845.37 458.083 1852.21 464.875 1859.43 471.389C1863.65 475.19 1867.36 478.46 1871.38 481.277C1867.85 479.782 1864.33 478.286 1860.8 476.775C1852.37 473.197 1843.96 469.6 1835.52 466.04L1835.25 465.92C1830.94 464.087 1826.45 462.208 1821.97 460.58L1813.37 457.476C1800.21 452.713 1786.6 447.783 1773.13 443.19C1771.24 442.545 1769.37 441.896 1767.5 441.247C1766.43 439.548 1765.18 437.413 1764.07 435.501C1762.65 433.069 1761.95 431.881 1761.49 431.323L1761.35 431.037C1761.12 430.593 1760.89 430.148 1760.73 429.693L1758.49 426.235C1758.22 425.942 1757.94 425.634 1757.66 425.34L1754.75 422.232L1754.76 422.247C1750.29 417.471 1746.78 413.77 1746.78 413.77L1745.84 412.581C1745.04 411.571 1744.12 410.409 1743.23 409.226C1740.04 404.961 1736.16 399.978 1731.64 395.432C1728.47 392.234 1725.77 389.636 1723.08 387.193C1721.06 385.346 1718.97 383.435 1716.62 381.934C1708.24 376.602 1700.36 372.919 1692.55 370.685C1685.17 368.575 1679.62 366.554 1674.57 364.155C1674.24 363.998 1673.91 364.013 1673.65 364.017C1673.57 364.016 1673.48 364.034 1673.36 364.024L1672.86 364.01L1671.44 366.059L1671.74 366.567C1671.88 366.808 1672.02 367.048 1672.16 367.274C1672.47 367.798 1672.78 368.352 1673.16 368.861L1673.54 369.385C1674.8 371.095 1676.08 372.863 1677.45 374.535C1681.85 379.922 1686.53 385.633 1691.27 391.253C1694.77 395.397 1697.96 399.095 1701.79 402.248C1710.18 409.168 1719.45 415.053 1729.36 419.731C1733.01 421.47 1736.84 423.49 1741.76 426.324C1744.87 428.119 1747.88 430.138 1751.21 432.395C1753.29 433.806 1755.45 435.263 1757.29 436.987C1757.62 437.287 1757.93 437.59 1758.23 437.877C1743.37 432.433 1729.72 426.818 1716.66 420.762C1704.11 414.953 1690.7 408.585 1677.59 401.375C1674.98 399.938 1672.38 398.393 1669.86 396.893L1668.56 396.119C1668.06 395.821 1667.58 395.441 1667.18 395.014L1666.98 394.785C1665.09 392.772 1663.15 390.69 1661.3 388.59C1658.34 385.224 1655.42 381.851 1652.47 378.467C1650.19 375.836 1647.91 373.206 1645.62 370.593C1645.01 369.906 1644.37 369.243 1643.72 368.581C1643.43 368.275 1643.12 367.973 1642.82 367.652L1635.78 360.616L1635.7 360.6C1635.45 360.38 1634.94 359.833 1634.58 359.461C1634.25 359.116 1633.93 358.768 1633.66 358.49L1631.54 356.363L1630.82 355.588C1630.28 354.999 1629.75 354.409 1629.18 353.841C1613.76 338.091 1599.63 326.985 1584.71 318.893C1571.05 311.487 1557.83 305.981 1544.29 302.076C1537 299.964 1529.61 297.697 1522.47 295.493C1519.16 294.475 1515.87 293.454 1512.56 292.451C1512.31 292.373 1512.06 292.31 1511.78 292.223L1510.88 291.985L1509 293.321L1509.08 293.888C1509.1 293.994 1509.1 294.104 1509.11 294.213C1509.12 294.54 1509.15 294.992 1509.47 295.355L1509.73 295.651C1510.43 296.429 1511.17 297.232 1512.01 297.921C1518.36 303.076 1524.27 308.518 1530.28 314.085C1537.62 320.906 1545.66 327.123 1553.42 333.156L1557.39 336.249C1561.83 339.71 1566.48 343.051 1570.97 346.297C1572.32 347.265 1573.67 348.234 1575.02 349.218C1579.31 352.328 1584.11 355.31 1589.71 358.344L1591.34 359.227C1598.12 362.901 1605.12 366.704 1612.31 369.92C1614.21 370.769 1616.08 371.842 1617.88 372.881L1618.64 373.318C1624.31 376.558 1629.55 379.126 1634.7 381.177C1640.04 383.315 1645.37 385.992 1650.88 389.295L1650.05 389.012C1641.27 386.037 1632.19 382.977 1622.93 380.943C1613.21 378.809 1603.18 377.598 1593.79 376.597C1578.47 374.967 1561.87 374.92 1543.03 376.449C1534.14 377.175 1523.82 378.114 1513.77 380.115C1511.33 380.598 1508.87 381.163 1506.49 381.713C1505.12 382.022 1503.75 382.332 1502.39 382.639C1501.05 382.928 1499.7 383.202 1498.32 383.481L1495.76 384.002C1495.76 384.002 1495.83 386.993 1495.89 387.061C1496.12 387.284 1496.4 387.562 1496.84 387.65C1497.38 387.751 1497.93 387.82 1498.47 387.888C1499.38 387.998 1500.21 388.105 1501.02 388.345L1502.25 388.737C1505.3 389.68 1508.43 390.655 1511.37 391.9C1529.36 399.609 1548.73 404.568 1568.92 406.65C1575.69 407.352 1582.67 407.667 1590.23 407.62C1596.65 407.586 1602.28 407.326 1607.45 406.824C1615.67 406.037 1623.76 404.08 1631.56 402.194L1633.82 401.652C1639.16 400.363 1644.73 399.264 1650.86 398.263C1654.56 397.666 1658.55 397.972 1663.46 399.234C1664.07 399.4 1664.71 399.781 1665.25 400.133C1667.42 401.527 1669.6 402.936 1671.75 404.347C1675.94 407.085 1680.29 409.902 1684.6 412.601C1687.56 414.456 1690.71 416.024 1693.66 417.457C1700.47 420.731 1707.29 423.987 1714.1 427.228C1717.48 428.832 1720.84 430.438 1724.21 432.041C1716.56 430.503 1707.94 428.944 1699.26 428.293C1693.14 427.842 1688.47 427.637 1684.07 427.628C1676.82 427.616 1670.43 427.77 1664.52 428.13C1655.09 428.694 1646.08 430.355 1638.5 431.932C1621.73 435.393 1604.35 441.236 1583.81 450.343C1580.11 451.979 1576.28 453.529 1572.59 455.023C1571.23 455.581 1569.86 456.127 1568.5 456.686L1568.27 456.778C1567.31 457.166 1565.86 457.742 1565.95 459.834L1565.96 460.428L1566.53 460.65C1566.63 460.694 1566.73 460.752 1566.84 460.795C1567.21 460.992 1567.64 461.223 1568.19 461.182C1576.28 460.592 1584.32 461.758 1592.56 463.123C1596.39 463.758 1600.28 464.478 1604.04 465.173C1609.29 466.149 1614.72 467.155 1620.1 467.935C1626.92 468.925 1633.78 469.391 1640.16 469.726C1648.12 470.152 1655.19 470.31 1661.76 470.216C1668.82 470.108 1675.97 469.604 1683.03 469.087C1686.01 468.878 1689.01 468.509 1691.91 468.157C1693.4 467.982 1694.88 467.794 1696.37 467.633C1705.19 466.685 1714.06 464.862 1722.74 462.225C1726.47 461.102 1730.19 459.981 1733.92 458.873C1737.91 457.685 1741.89 456.5 1745.87 455.281C1746.97 454.945 1748.04 454.551 1749.12 454.172C1749.95 453.87 1750.79 453.568 1751.65 453.278C1756.06 451.851 1760.48 450.439 1764.92 449.04L1766.06 448.68C1767.71 448.16 1769.36 448.252 1771.43 448.988C1777.05 450.979 1782.52 453.503 1787.11 455.708C1791.17 457.653 1795.45 459.225 1799.59 460.743L1802.53 461.816C1810.54 464.752 1818.79 467.795 1827.03 470.545C1835.7 473.447 1844.35 476.872 1852.71 480.196L1856.38 481.647C1858.69 482.557 1860.97 483.709 1863.19 484.827C1864.2 485.342 1865.21 485.841 1866.21 486.325L1909.67 508.569C1914.05 512.969 1918.78 516.404 1923.25 519.465C1923.63 519.723 1923.98 520.002 1924.29 520.289C1929.75 525.33 1936.22 529.644 1945.26 534.3C1946.1 534.737 1946.92 535.162 1947.62 535.704C1950 537.499 1952.48 539.226 1954.89 540.873C1958.68 543.483 1962.59 546.193 1966.14 549.259C1967.36 550.314 1968.76 551.304 1970.33 552.199C1973.37 553.93 1976.2 555.92 1978.75 558.123C1979.22 558.52 1979.7 558.915 1980.21 559.259C1988.25 564.797 1995.3 571.44 2002.99 578.933C2016.97 592.522 2028.09 604.392 2037.96 616.266C2042.07 621.205 2045.63 625.761 2048.85 630.227C2053.84 637.152 2058.79 644.289 2063.57 651.206L2066.39 655.259C2070.17 660.702 2073.6 666.793 2076.61 673.36C2079.42 679.506 2081.78 685.771 2083.92 691.621L2084.19 692.356L2093.66 690.544L2092.04 687.204C2088.96 680.794 2085.77 674.154 2082.06 667.912C2080.6 665.47 2079.38 662.951 2078.46 661.019C2074.45 652.538 2069.69 644.309 2065.1 636.363C2063.6 633.772 2062.11 631.163 2060.62 628.555C2055.89 620.195 2051.25 612.731 2046.45 605.722C2044.4 602.718 2042.38 599.629 2040.42 596.622C2037.41 592.022 2034.31 587.251 2030.99 582.728C2021.41 569.635 2011.01 555.675 1999.9 542.26C1999.39 541.635 1998.89 541.007 1998.4 540.378C1997.69 539.476 1996.97 538.576 1996.22 537.712C1993.71 534.81 1992.31 531.65 1991.91 528.014C1991.66 525.719 1991.39 523.411 1991.12 521.118C1990.6 516.641 1990.06 512.025 1989.68 507.474C1988.54 493.961 1989.78 479.409 1993.47 462.957C1996.41 449.811 1999.37 435.828 2002.48 420.195C2004.03 412.427 2004.25 404.127 2003.14 394.083C2002.69 389.922 2002.09 385.727 2001.51 381.671C2001.29 380.124 2001.07 378.577 2000.85 377.03C1999.85 369.735 1998.03 362.517 1996.27 355.525L1995.72 353.318C1994.51 348.469 1993.12 343.592 1991.79 338.875L1991.1 336.442C1990.71 335.024 1990.17 333.602 1989.51 332.218C1988.69 330.472 1987.52 329.562 1985.95 329.422L1985.83 329.415L1985.7 329.438C1983.72 329.819 1983.14 331.471 1982.68 332.77C1981.61 335.743 1980.73 338.381 1979.97 340.807C1974.47 358.565 1968.39 376.764 1961.92 394.911C1959 403.098 1955.98 411.572 1954.48 420.48C1953.14 428.507 1951.88 437.053 1952.61 445.612C1953.87 460.627 1957.73 475.036 1964.06 488.453C1968.15 497.14 1973.16 505.523 1977.54 512.707C1978.53 514.311 1979.5 515.919 1980.45 517.515C1974.89 510.509 1968.6 504.131 1962.48 497.926L1960.74 496.167C1959.2 494.606 1957.66 493.06 1956.11 491.517C1951.42 486.845 1946.58 482.03 1942.24 476.868C1936.75 470.323 1930.12 462.721 1922.75 455.873C1919.75 453.097 1917.04 450.799 1914.44 448.859C1911.91 446.969 1909.84 444.786 1908.09 442.147C1903.87 435.783 1901.09 430.148 1899.38 424.42C1898.76 422.336 1898.02 420.261 1897.3 418.258C1896.52 416.064 1895.71 413.782 1895.07 411.513C1894.13 408.233 1893.38 404.649 1892.75 400.538C1892.2 396.931 1891.8 393.231 1891.42 389.64L1891.06 386.405C1889.49 372.078 1888.95 360.384 1889.39 349.62C1889.6 344.483 1889.6 339.165 1889.43 333.834C1889 320.469 1886.13 307.114 1880.67 292.995C1878.68 287.855 1876.53 282.683 1874.44 277.688C1873.53 275.502 1872.61 273.334 1871.72 271.145L1871.63 270.911C1871.3 270.078 1870.75 268.673 1868.86 268.673L1868.61 268.674L1868.4 268.793C1866.92 269.626 1866.97 271.127 1867.02 272.109L1867.03 272.406C1867.11 275.867 1866.71 279.56 1865.8 283.746C1865 287.438 1864.17 291.119 1863.34 294.803C1862.45 298.795 1861.55 302.774 1860.69 306.776L1860.14 309.335C1858.59 316.521 1856.98 323.955 1855.59 331.315C1853.91 340.067 1854.56 348.892 1855.51 357.126C1856.53 365.961 1859.69 374.21 1862.75 382.198L1863.26 383.547C1865.21 388.633 1867.37 393.835 1869.86 399.461C1872.35 405.071 1875.87 410.076 1878.98 414.231C1883.27 419.969 1887.82 425.406 1892.02 430.249C1891.58 429.876 1891.13 429.505 1890.7 429.117L1889.03 427.691C1883.6 423.068 1878.16 418.445 1872.71 413.843L1871.95 413.2C1868.33 410.15 1864.58 406.983 1860.8 403.979C1857.79 401.597 1855.28 399.813 1852.89 398.351C1846.94 394.708 1840.82 391.161 1834.6 387.586L1824.63 381.11C1824.42 381.008 1824.22 380.922 1824.01 380.835C1823.55 380.625 1823.1 380.428 1822.72 380.185L1822.08 379.774C1819.32 378.021 1816.46 376.194 1813.71 374.345L1811.78 373.047C1804.34 368.038 1796.65 362.856 1789.14 357.671C1781.19 352.178 1773.9 346.007 1767.83 340.688C1764.89 338.106 1761.81 335.251 1759.33 331.855C1756.43 327.88 1754.42 324.003 1753.22 320.033C1751.08 312.986 1748.66 305.018 1747.35 297.042C1747.09 295.395 1746.89 293.624 1746.74 291.638C1745.77 278.029 1745.44 264.455 1745.26 254.155C1745.13 246.615 1744.76 238.977 1744.42 231.572L1744.19 226.771C1743.63 214.468 1740.3 202.348 1734.3 190.724C1733 188.22 1731.72 185.697 1730.44 183.19C1727.75 177.917 1724.97 172.47 1722.12 167.181C1720.72 164.57 1719.05 162.09 1717.44 159.676C1716.85 158.799 1716.27 157.919 1715.7 157.038C1715.2 156.267 1714.27 154.842 1712.37 155.362L1711.86 155.507L1711.73 156.021C1711.7 156.12 1711.67 156.205 1711.64 156.289C1711.52 156.595 1711.37 157.017 1711.53 157.488C1712.94 161.278 1712.49 165.092 1712 169.118L1711.82 170.583C1710.38 183.239 1707.23 195.481 1703.85 207.973C1701.57 216.383 1700.89 224.74 1701.83 232.85C1702.55 239.082 1703.28 244.857 1704.04 250.484C1704.99 257.397 1707.02 263.991 1708.9 269.53C1710.16 273.237 1711.48 277.199 1712.67 281.124C1716 292.001 1721.4 301.711 1728.74 309.98C1734.29 316.247 1740.5 321.885 1746.5 327.343C1747.26 328.031 1748.01 328.722 1748.75 329.428C1747.21 328.512 1745.65 327.569 1744.13 326.617C1739.93 323.977 1735.7 321.215 1731.6 318.554L1727.51 315.893C1726.48 315.224 1725.56 314.584 1724.68 313.934C1720.52 310.845 1716.37 307.739 1712.21 304.65L1708.1 301.583L1707.79 301.375C1707.61 301.252 1707.43 301.129 1707.33 301.007C1705.19 298.538 1702.6 296.626 1700.09 294.763C1699.03 293.976 1697.96 293.188 1696.94 292.362C1694.5 290.39 1691.94 288.506 1689.47 286.682C1688.39 285.883 1687.31 285.098 1686.24 284.295C1686.12 284.21 1685.99 284.124 1685.86 284.038C1685.75 283.964 1685.65 283.906 1685.55 283.814C1681.72 280.695 1677.88 277.591 1674.04 274.456C1673.89 274.328 1673.76 274.196 1673.61 274.068C1673.32 273.793 1673.01 273.49 1672.6 273.254C1669.17 271.22 1666.52 268.44 1663.69 265.49C1662.92 264.693 1662.15 263.881 1661.38 263.102C1660.25 261.98 1659.08 260.883 1657.91 259.801C1656.95 258.899 1655.98 258 1655.05 257.092C1652.4 254.501 1649.74 251.598 1648.1 247.915C1647.64 246.887 1646.95 245.933 1646.16 245.251C1645.11 244.336 1644.38 243.106 1643.95 241.521L1643.64 240.385C1642.97 237.919 1642.28 235.377 1641.87 232.844C1640.2 222.577 1640.11 211.757 1641.59 199.74C1643.19 186.755 1643.96 176.793 1644.09 167.441C1644.18 160.833 1643.49 153.886 1641.93 145.565C1639.23 131.375 1634.59 117.099 1627.67 102.035C1626.86 100.301 1625.96 98.6031 1625.07 96.9475C1624.46 95.7911 1623.85 94.6346 1623.26 93.4724C1621.01 88.9483 1618.79 84.4184 1616.55 79.8762L1614 74.671C1613.9 74.455 1613.81 74.2361 1613.7 74.0201C1613.48 73.4971 1613.23 72.9618 1612.89 72.462C1612.56 72.02 1612.16 71.6894 1611.73 71.3465C1611.54 71.1935 1611.32 71.0311 1611.1 70.8383L1610.3 70.1561L1609.72 71.0239C1609.57 71.2408 1609.42 71.4426 1609.28 71.6262C1608.96 72.0659 1608.64 72.4723 1608.45 72.9798C1608.21 73.6565 1608.21 74.3958 1608.24 75.0808C1608.49 79.5156 1607.97 84.0046 1607.48 88.3606C1607.28 90.1769 1607.06 91.9809 1606.9 93.8036C1606.21 101.785 1604.68 109.786 1603.18 117.512C1602.81 119.439 1602.44 121.366 1602.09 123.29C1600.51 131.755 1599.75 140.081 1599.83 148.071C1599.85 149.468 1599.8 150.861 1599.77 152.252L1599.73 153.848C1599.51 162.115 1601.08 170.027 1602.69 177.394C1604.37 185.125 1606.61 191.964 1609.49 198.302C1610.72 201.009 1611.79 203.808 1612.67 206.612C1614.59 212.772 1617.46 218.547 1621.46 224.261C1623.76 227.549 1626.09 230.799 1628.43 234.063C1628.82 234.603 1629.21 235.142 1629.59 235.682C1626.74 232.925 1623.83 230.083 1621.16 227.134C1614.95 220.332 1608.75 213.309 1602.73 206.518C1598.28 201.503 1593.84 196.47 1589.36 191.491C1584.7 186.295 1581.53 180.233 1579.29 175.519C1573.99 164.373 1570.06 152.621 1566.61 141.579C1564.05 133.386 1561.29 125.201 1558.42 117.257C1556.87 112.96 1554.96 108.559 1552.6 103.804C1545.45 89.3803 1536.71 74.6008 1525.88 58.6012C1521.2 51.6937 1515.84 45.438 1510.74 39.6179C1508.69 37.2587 1506.64 34.8815 1504.62 32.5014C1503.56 31.2716 1502.51 30.0267 1501.44 28.7998L1501.28 28.6106C1500.87 28.1377 1500.46 27.6495 1499.99 27.2214C1498.98 26.4859 1497.85 26.3098 1496.76 26.8947ZM1687.37 372.211C1696.2 373.778 1704.19 378.289 1704.19 378.289C1707.84 380.043 1710.91 381.753 1713.73 383.588C1715.86 384.973 1717.93 386.668 1720.03 388.737C1719.99 388.712 1719.96 388.688 1719.92 388.663C1719.92 388.663 1723.91 392.02 1729.91 401.253C1729.05 400.537 1728.2 399.803 1727.33 399.105C1725.37 397.498 1722.78 395.383 1720.09 393.413C1717.05 391.194 1714.32 389.311 1711.72 387.638C1708.28 385.449 1704.58 383.122 1700.8 381.045C1696.19 378.514 1692 375.619 1687.37 372.211ZM1730.98 416.7C1729.14 415.778 1727.28 414.86 1725.44 413.906C1717.5 409.795 1706.83 401.693 1704.24 399.356C1699.83 395.372 1694.35 387.046 1694.35 387.046C1695.65 388.072 1704.54 395.774 1705.97 396.792C1707.58 397.93 1709.17 399.121 1710.73 400.316C1712.03 401.293 1713.34 402.271 1714.65 403.23L1716.24 404.373C1717.23 405.081 1716.22 404.331 1719.22 406.525C1728.75 413.445 1731.47 416.952 1731.47 416.952C1731.31 416.872 1731.16 416.792 1730.98 416.7ZM1747.79 424.21C1747.08 423.574 1746.36 422.941 1745.63 422.326C1739 416.705 1731.95 411.763 1725.93 407.662C1723.07 405.708 1720.21 403.645 1717.45 401.641L1716.37 400.856C1715.24 400.035 1714.12 399.196 1713 398.356C1711.33 397.103 1709.58 395.801 1707.82 394.581C1704 391.916 1700.49 388.905 1696.51 385.249C1696.51 385.249 1691.34 380.04 1689.97 377.802L1695.48 381.12C1695.44 381.095 1695.41 381.07 1695.39 381.043C1697.37 382.268 1699.44 383.491 1701.62 384.709C1704.37 386.244 1707.08 388.006 1709.71 389.721L1711.74 391.032C1713.01 391.857 1714.26 392.719 1715.51 393.581C1716.33 394.148 1717.14 394.7 1717.96 395.252C1721.21 397.445 1724 399.647 1726.51 401.998C1728.66 404.024 1731 405.968 1733.44 407.797C1735.34 409.212 1737.09 410.842 1738.77 412.707C1738.77 412.707 1744.21 417.627 1749.79 425.996C1749.1 425.391 1748.43 424.794 1747.79 424.21ZM1629.92 370.766C1631.38 372.657 1625.5 368.89 1618.41 364.035C1617.74 363.66 1617.08 363.282 1616.41 362.907C1609.16 358.805 1601.67 354.562 1594.7 349.729C1590.22 346.623 1586.24 343.972 1582.52 341.663C1569.91 333.789 1547.27 315.08 1539.32 310.309C1546.1 313.919 1552.99 317.633 1559.74 321.407C1574.73 329.784 1587.58 337.738 1599.11 345.802C1599.11 345.787 1626.54 366.442 1629.92 370.766ZM1547.22 306.942C1566.76 312.796 1584.83 321.763 1600.9 333.567C1609.41 339.804 1634.92 366.632 1634.92 366.632C1634.41 366.446 1596.34 339.741 1578.29 328.663C1567.77 322.198 1547.37 307.306 1543.7 305.87C1544.87 306.243 1546.05 306.583 1547.22 306.942ZM1630.01 374.288C1627.76 373.209 1625.51 372.145 1623.27 371.047C1621.22 370.04 1619.19 369.014 1617.15 368.003C1614.68 366.762 1612.21 365.52 1609.72 364.315C1599.17 359.192 1588.94 354.041 1579.53 347.616C1569.3 340.638 1559.25 333.329 1549.65 325.886C1543.74 321.293 1537.57 316.448 1531.69 311.125L1531.78 311.077C1532.06 310.928 1532.14 310.913 1532.78 311.467C1532.95 311.623 1533.12 311.764 1533.3 311.886C1549.59 323.601 1566.06 334.479 1582.9 345.508C1595.5 353.759 1610.57 363.365 1626.76 371.952C1628.32 372.771 1629.82 373.774 1631.15 374.636C1631.31 374.732 1631.45 374.878 1631.6 375.022L1630.01 374.288ZM1546.19 379.902C1547.67 379.808 1549.16 379.712 1550.64 379.603C1565.9 378.553 1581.21 378.783 1596.13 380.3C1612.94 382.006 1628.24 385.244 1642.78 390.185L1634.94 390.914C1634.46 390.88 1634 390.843 1633.52 390.808C1629.89 390.481 1626.26 390.091 1622.63 389.7C1619.12 389.317 1615.61 388.951 1612.1 388.631C1604.34 387.931 1598.47 386.979 1593.06 385.514C1591.55 385.11 1570.15 380.728 1563.33 380.508L1559.94 380.386C1555.41 380.215 1550.81 380.168 1546.36 380.122C1545.38 380.104 1544.39 380.105 1543.41 380.088C1544.35 380.02 1545.28 379.952 1546.19 379.902ZM1512 385.897C1510.78 385.957 1509.59 385.901 1508.44 385.713C1508.77 385.698 1509.08 385.685 1509.39 385.672C1521.23 385.31 1533.08 384.993 1544.9 384.663L1545.19 384.657C1546.8 384.616 1548.47 384.563 1550.09 384.631C1553.02 384.731 1555.94 384.864 1558.85 384.982C1561.55 385.095 1564.25 385.208 1566.94 385.322C1576.24 385.665 1585.87 386.921 1595.59 389.04C1598.49 389.664 1601.5 390.189 1604.54 390.599C1604.84 390.635 1605.13 390.673 1605.44 390.709L1629.17 393.954C1625.98 394.139 1622.73 394.337 1619.53 394.619C1610.51 395.432 1601.32 395.384 1592.42 395.325L1592.25 395.327C1586.76 395.29 1581.2 395.05 1575.81 394.824L1570.83 394.613C1566.7 394.443 1562.46 394.265 1558.32 393.846C1553.94 393.41 1549.47 392.849 1545.17 392.319C1542.05 391.927 1538.92 391.534 1535.79 391.19C1531.48 390.694 1516.24 385.684 1512 385.897ZM1597.67 403.349C1593.92 403.485 1590.01 403.525 1586.08 403.459L1584.14 403.422C1580.59 403.362 1552.07 398.597 1548.08 397.552C1544.67 396.648 1541.16 395.904 1537.77 395.2L1535.83 394.784C1533.63 394.308 1531.42 393.866 1529.22 393.423C1526.2 392.805 1523.18 392.204 1520.17 391.537C1519.35 391.348 1518.54 391.141 1517.73 390.886C1517.85 390.911 1517.98 390.934 1518.1 390.974C1521.58 391.739 1525.16 392.532 1528.75 393.071C1537.47 394.376 1546.24 395.403 1554.47 396.344C1558.99 396.863 1563.65 397.244 1568.74 397.498C1571.34 397.629 1574 397.687 1576.55 397.733C1579.61 397.792 1582.79 397.86 1585.88 398.055C1591.85 398.438 1597.92 398.331 1603.77 398.234C1604.89 398.207 1606.04 398.192 1607.17 398.18L1623.97 399.589C1614.46 401.834 1605.93 403.042 1597.67 403.349ZM1657.15 438.995C1651.91 439.321 1637.91 437.675 1628.56 439.291C1624.97 439.916 1621.37 440.637 1617.83 441.378C1635.03 435.915 1651.26 432.698 1667.21 431.548C1679.05 430.698 1690.83 430.85 1702.23 432.002C1713.38 433.124 1724.18 435.35 1733.72 437.598L1743.99 441.877C1743.53 441.824 1743.06 441.772 1742.57 441.725C1739.52 441.428 1728.55 440.082 1726.11 439.826L1723.69 439.566C1718.96 439.055 1714.1 438.524 1709.28 438.25C1706.09 438.057 1702.86 438.015 1699.74 437.968C1697.23 437.929 1694.64 437.89 1692.1 437.778C1682.13 437.344 1673.34 437.468 1665.24 438.171C1664.06 438.27 1662.87 438.403 1661.71 438.547C1660.2 438.726 1658.66 438.91 1657.15 438.995ZM1597.79 453.392C1600.88 452.503 1612.62 448.791 1615.76 448.002C1622.48 446.291 1630.46 444.418 1638.75 443.539C1640.05 443.401 1641.34 443.248 1642.63 443.11C1645.01 442.845 1647.36 442.583 1649.74 442.348L1654.66 441.861C1660.16 441.313 1665.85 440.742 1671.44 440.349C1674.33 440.143 1677.31 440.17 1680.17 440.203C1681.51 440.214 1682.85 440.225 1684.19 440.221C1684.63 440.216 1685.07 440.21 1685.51 440.205C1686.32 440.19 1687.12 440.164 1687.93 440.198L1691.84 440.315C1696.93 440.472 1702.22 440.64 1707.39 440.877C1712.14 441.101 1716.3 441.405 1720.09 441.797C1723.09 442.104 1726.15 442.508 1729.11 442.902C1731.19 443.18 1733.29 443.454 1735.38 443.699C1737.45 443.946 1739.52 444.164 1741.61 444.378C1742.14 444.434 1742.69 444.487 1743.21 444.543C1743.21 444.543 1719.64 448.992 1710.35 449.34C1698.19 449.778 1686.06 450.229 1673.9 450.668L1651.57 451.483C1650.65 451.518 1649.74 451.534 1648.81 451.554C1647.89 451.574 1646.96 451.593 1646.04 451.628C1634.89 452.048 1623.76 452.465 1612.61 452.885L1597.79 453.392ZM1707.99 461.509C1708.13 461.498 1708.28 461.484 1708.42 461.458C1708.19 461.502 1707.96 461.53 1707.72 461.577L1707.51 461.633L1707.28 461.646C1706.27 461.837 1705.26 462.047 1704.26 462.19C1694.52 463.616 1684.79 464.581 1677.42 465.253C1665.64 466.328 1653.83 466.009 1641.74 465.554C1634.93 465.301 1626.95 464.877 1619.09 463.74C1615.46 463.601 1602.37 459.341 1602.37 459.341C1603.15 459.351 1603.94 459.372 1604.71 459.382C1609.68 459.484 1614.81 459.572 1619.9 459.102C1627.89 458.344 1637.18 457.493 1646.28 456.884C1655.71 456.259 1665.08 455.864 1673.88 455.501C1677.74 455.345 1681.59 455.252 1685.44 455.16C1688.77 455.09 1692.1 455.003 1695.43 454.885C1699.07 454.754 1702.76 454.488 1706.34 454.227L1708.65 454.052C1713.76 453.688 1719.05 453.305 1724.23 452.833L1724.88 452.771C1727.94 452.485 1731.09 452.196 1734.13 451.503C1738.97 450.404 1743.99 449.979 1748.93 449.726C1747.87 450.068 1746.81 450.414 1745.75 450.711C1745.18 450.867 1744.59 451.011 1744.01 451.139L1707.99 461.509ZM1828.08 433.616C1826.32 431.672 1824.06 429.068 1822.24 426.208C1818.67 420.616 1815.14 414.857 1811.73 409.281L1810.38 407.055L1804.09 397.61C1806.33 399.62 1809.32 403.074 1809.32 403.074C1811.51 405.107 1813.5 407.369 1815.63 409.841C1817.56 412.099 1819.63 414.328 1821.96 416.698C1825.61 420.388 1828.43 423.969 1830.61 427.641C1831.61 429.337 1832.69 431.003 1833.74 432.642C1837.2 437.328 1840.81 447.459 1840.81 447.459C1836.57 442.922 1832.27 438.256 1828.08 433.616ZM1874.91 479.201C1872.69 477.849 1870.72 476.088 1868.9 473.825C1867.85 472.516 1866.77 471.228 1865.7 469.938C1864.41 468.391 1863.13 466.86 1861.88 465.289L1860.89 464.032C1859.21 461.931 1857.46 459.75 1856.01 457.462C1851.35 450.098 1846.49 442.14 1842.45 433.838C1840.71 430.285 1838.86 426.991 1836.83 423.966C1837.02 424.198 1832.48 416.131 1832.48 416.131C1836.07 418.999 1839.81 423.333 1839.81 423.333C1842.17 425.87 1844.43 428.504 1846.54 431.245C1851.29 437.368 1855.89 444.415 1860.61 452.792C1862.95 456.953 1865.33 461.091 1867.71 465.213C1868.2 466.093 1868.72 466.969 1869.21 467.834C1869.21 467.834 1871.34 472.918 1877.01 480.467C1876.31 480.067 1875.61 479.634 1874.91 479.201ZM1968.96 488.836C1968.36 487.676 1964.37 480.262 1960.27 465.946C1959.13 461.934 1958.15 457.811 1957.55 453.616L1957.36 452.314C1956.48 446.287 1955.57 440.059 1956.23 433.892C1956.3 433.138 1956.38 432.369 1956.45 431.616C1957.31 421.148 1959.01 415.303 1959.01 415.303L1959.03 415.394C1959.17 414.328 1959.38 413.312 1959.69 412.342C1960.24 410.568 1960.8 408.794 1961.34 407.008C1962.6 402.928 1963.9 398.715 1965.29 394.612C1966.27 391.702 1967.48 388.813 1968.66 386.008L1969.08 384.999C1967.14 390.813 1965.55 396.953 1964.26 403.539C1962.98 410.076 1962.35 416 1962.33 421.62C1962.33 423.256 1962.29 424.883 1962.26 426.525C1962.21 429.209 1962.16 431.987 1962.21 434.729C1962.33 440.054 1962.47 446.1 1962.97 451.933C1963.37 456.466 1963.99 461.05 1964.61 465.494C1964.83 467.15 1965.07 468.803 1965.27 470.447C1965.66 473.377 1966.09 476.126 1966.59 478.736C1967.31 482.483 1968.16 485.939 1969.15 489.21C1969.07 489.082 1969.02 488.966 1968.96 488.836ZM1970.98 485.177C1968.4 475.793 1967.23 466.076 1966.25 456.921C1964.85 443.771 1964.59 430.216 1965.46 416.632C1966.08 406.98 1968.11 397.186 1971.64 386.726C1973.36 381.647 1975.36 376.546 1977.29 371.614C1978.52 368.501 1979.75 365.372 1980.91 362.239C1981.87 359.681 1982.7 357.052 1983.5 354.492C1983.68 353.891 1983.89 353.302 1984.07 352.7C1983.66 356.254 1983.19 359.853 1982.66 363.43C1981.74 369.724 1980.4 377.139 1977.29 384.276C1975.32 388.838 1973.99 393.623 1972.94 397.693C1971.81 402.141 1970.94 406.854 1970.29 412.121C1970.07 413.988 1969.81 415.846 1969.57 417.717C1968.62 424.978 1967.62 432.499 1967.66 440.025C1967.71 450.885 1967.87 461.503 1969.27 472.104C1969.92 477.091 1970.63 481.611 1971.44 485.845C1971.65 486.907 1971.86 487.951 1972.07 488.98C1971.72 487.71 1971.33 486.431 1970.98 485.177ZM1971.24 463.609C1970.76 456.812 1970.67 449.846 1970.58 443.116C1970.55 441.14 1970.53 439.161 1970.49 437.17C1970.45 434.976 1970.6 432.542 1970.91 429.745C1971.57 424.051 1972.34 417.91 1973.29 410.997C1974.57 401.582 1977.01 392.415 1980.56 383.746C1981.87 380.569 1982.9 377.242 1983.64 373.876C1985.25 366.52 1986.33 359.739 1986.92 353.351C1986.94 356.917 1986.79 360.5 1986.37 364.042L1986.02 366.987C1985.35 372.541 1984.67 378.271 1983.52 383.825C1981.6 393.047 1979.67 402.996 1978.48 413.164C1977.92 418.007 1977.3 422.844 1976.67 427.683C1975.9 433.619 1975.12 439.745 1974.46 445.802C1973.89 450.96 1973.64 455.979 1973.73 460.727C1973.89 469.191 1974.37 477.812 1974.83 485.212C1974.93 486.813 1975.08 488.389 1975.24 489.93C1973.19 481.105 1971.85 472.271 1971.24 463.609ZM1980.33 497.198C1980.33 497.198 1977.74 481.682 1976.53 469.046C1976.52 469.001 1976.52 468.971 1976.52 468.922C1976.44 467.067 1976.35 465.212 1976.25 463.375C1975.93 457.537 1976.43 451.684 1976.94 446.665C1977.46 441.294 1978.17 435.607 1979.23 428.247L1980.07 422.282C1981.23 414.038 1982.43 405.519 1983.94 397.208C1984.25 395.466 1984.58 393.735 1984.91 391.99C1986.44 383.737 1988.02 375.209 1988.74 366.67L1988.97 364.142C1989.13 362.365 1989.29 360.573 1989.42 358.771C1989.61 356.17 1989.55 349.119 1989.55 349.119C1990.64 352.276 1992.19 361.26 1992.19 361.26C1992.7 364.812 1993.05 368.645 1993.28 372.895C1993.68 379.913 1992.98 386.842 1992.16 393.919C1991.58 398.908 1990.74 403.961 1989.91 408.853C1989.62 410.56 1989.34 412.281 1989.05 413.988C1988.57 416.959 1988.08 419.915 1987.58 422.874C1986.89 426.986 1986.2 431.113 1985.54 435.235C1985.23 437.244 1984.98 439.29 1984.73 441.273C1984.36 444.299 1983.97 447.441 1983.35 450.454C1981.95 457.314 1979.3 478.474 1980.17 495.955C1980.22 496.385 1980.29 496.813 1980.36 497.256L1980.33 497.198ZM1984.41 496.244C1983.93 490.581 1983.65 484.546 1983.59 478.282C1983.51 471.249 1983.89 465.484 1984.79 460.168C1984.99 458.933 1985.21 457.696 1985.43 456.443C1985.88 453.808 1986.37 451.073 1986.75 448.373C1986.98 446.787 1987.2 445.22 1987.41 443.637C1988.24 437.738 1989.08 431.631 1990.24 425.699C1991.15 421.074 1991.93 416.348 1992.67 411.785C1993.07 409.334 1993.47 406.898 1993.9 404.441C1995.61 394.439 1996.45 385.077 1996.41 375.978C1996.52 376.491 1996.62 377.022 1996.73 377.568C1997.34 380.691 1999.95 401.568 1999.95 401.568C2000.05 405.622 1999.72 409.871 1998.94 414.533C1998.01 420.185 1996.87 425.924 1995.78 431.45L1995.29 433.934C1994.97 435.601 1994.57 437.282 1994.17 438.9C1993.86 440.17 1993.56 441.421 1993.29 442.686C1992.19 447.803 1989.84 461.403 1989.84 461.403C1989.66 462.38 1989.5 463.355 1989.35 464.329C1989.2 465.285 1989.05 466.226 1988.9 467.182C1988.9 467.182 1984.97 480.03 1984.64 498.34C1984.54 497.636 1984.47 496.942 1984.41 496.244ZM1879.67 303.63C1879.75 303.883 1879.84 304.165 1879.93 304.493C1882.76 314.082 1884.43 323.482 1884.43 323.482C1885.37 329.562 1885.76 335.089 1885.6 340.435L1885.55 341.971C1885.37 347.966 1885.19 354.151 1885.21 360.251C1885.24 368.55 1885.86 376.799 1886.63 384.753C1885.94 381.723 1885.32 378.931 1884.82 376.227L1884.83 376.257C1879.61 355.156 1880.05 348.246 1880.05 348.246C1879.74 342.28 1879.61 336.329 1879.46 330.489C1879.33 324.994 1879.2 319.309 1878.93 313.714C1878.87 312.577 1878.84 311.435 1878.8 310.31C1878.65 306.452 1878.51 302.469 1877.85 298.552C1877.76 298.003 1877.67 297.469 1877.6 296.917C1878.43 299.103 1879.11 301.362 1879.67 303.63ZM1872.48 395.986C1869.44 388.325 1866.39 380.668 1863.3 373.016C1860.72 366.605 1859.13 359.532 1858.15 350.061C1857.37 342.426 1857.85 334.437 1859.59 326.334C1861.68 316.559 1863.87 306.639 1866.02 297.043L1866.23 296.041L1868.21 291.48C1868.53 293.918 1867.97 306.185 1867.97 306.185C1867.91 307.345 1867.85 308.505 1867.79 309.665C1867.65 312.475 1867.49 315.274 1867.35 318.084L1867.16 321.912C1866.94 326.171 1866.72 330.411 1866.57 334.672L1866.44 337.653C1866.27 341.839 1866.09 346.182 1866.23 350.449C1866.41 356.141 1867.25 361.738 1868.28 367.109C1868.66 369.127 1869.07 371.109 1869.49 373.058C1870.5 377.82 1871.82 383.403 1873.72 389.221L1877.19 404.978C1875.4 402.127 1873.73 399.144 1872.48 395.986ZM1889.88 417.918C1883.78 406.423 1880 397.315 1880 397.315C1878.71 394.195 1877.31 390.642 1876.11 387.002C1873.65 379.498 1872.18 371.756 1870.9 364.468C1869.34 355.644 1868.81 346.747 1869.35 338.025C1869.94 328.08 1870.41 318.097 1870.8 309.529C1870.9 307.276 1870.94 305.019 1871 302.759C1871.05 299.932 1871.1 296.997 1871.29 294.129C1871.41 292.124 1871.47 290.179 1871.43 288.283C1875.81 302.765 1875.77 311.503 1875.77 311.503C1875.84 313.628 1875.9 315.74 1875.98 317.849C1876.18 324.023 1876.37 330.184 1876.53 336.352C1876.93 352.271 1878.22 365.489 1880.59 377.855C1880.65 378.159 1880.7 378.447 1880.76 378.751C1881.1 380.511 1881.43 382.271 1881.77 384.046C1882.93 390.194 1884.12 396.573 1885.91 402.726C1887.29 407.464 1888.78 412.261 1890.21 416.893C1890.63 418.245 1891.05 419.597 1891.46 420.949C1890.89 419.926 1890.36 418.894 1889.85 417.845L1889.88 417.918ZM1730.77 193.334C1732.03 195.768 1732.85 198.49 1733.33 201.905C1733.86 205.673 1734.5 209.484 1735.12 213.17L1735.6 216.004C1735.81 217.254 1736.03 218.501 1736.27 219.746C1736.66 221.888 1737.07 224.106 1737.35 226.287C1738.03 231.552 1738.59 236.935 1739.14 242.13L1739.45 245.044C1739.55 246.015 1739.57 246.987 1739.58 248.024L1739.59 248.745C1739.6 249.702 1739.61 250.66 1739.62 251.617C1739.63 253.378 1739.65 255.135 1739.72 256.899C1739.76 257.96 1739.88 259.007 1739.99 260.025C1740.08 260.92 1740.19 261.812 1740.23 262.7C1740.46 266.777 1740.68 270.872 1740.89 274.952C1741.11 279.111 1741.33 283.252 1741.56 287.408C1741.65 288.917 1742.98 303.102 1742.98 303.102C1742.98 303.102 1737.08 284.365 1735.33 279.257C1733.58 274.134 1730.18 255.218 1730.18 255.218L1730.17 255.236C1730.04 253.371 1729.89 251.498 1729.66 249.638C1729.01 244.697 1728.77 239.302 1728.9 232.655C1728.92 231.126 1728.97 229.59 1729.01 228.057C1729.16 222.114 1729.33 215.961 1728.67 209.875C1728.24 205.805 1728.36 191.232 1727.51 188.547C1727.2 187.569 1726.9 186.588 1726.61 185.606C1726.48 185.205 1726.36 184.82 1726.24 184.419C1727.75 187.416 1729.27 190.382 1730.77 193.334ZM1732.56 302.437C1731.82 301.51 1731.03 300.513 1730.38 299.489C1724.69 290.401 1720.41 281.673 1717.25 272.808C1715.91 269.037 1714.66 265.297 1713.52 261.803C1710.27 251.871 1708.56 243.625 1708.16 235.902C1708.03 233.455 1707.94 231.003 1707.87 228.549L1707.61 221.723L1709.23 199.203L1709.2 199.288C1710.41 194.589 1711.64 189.776 1712.69 184.982C1714.12 178.386 1715.51 171.371 1715.44 164.181C1717.11 167.149 1717.83 170.236 1717.62 173.579L1717.57 174.233C1717.51 174.999 1717.47 175.762 1717.46 176.535C1717.42 181.686 1716.78 187.095 1715.46 193.056C1714.17 198.95 1713.04 204.986 1711.94 210.812L1711.3 214.206C1710.97 216 1710.79 217.717 1710.78 219.292C1710.76 228.215 1711.8 237.122 1712.82 244.636C1712.98 245.925 1713.2 247.221 1713.44 248.495C1714.36 253.26 1715.7 257.894 1717.01 262.299C1719.45 270.421 1721.6 277.135 1725.17 283.639C1726.84 286.686 1728.54 289.712 1730.23 292.737C1732.76 297.239 1735.37 301.915 1737.86 306.535C1738.99 308.647 1740.05 310.834 1741.08 312.997C1738.25 309.495 1735.41 305.966 1732.56 302.437ZM1730.14 287.377C1727.37 282.354 1724.69 277.157 1722.9 271.664C1721.09 266.111 1719.02 259.555 1717.41 253.021C1715.05 243.485 1713.77 233.191 1713.41 220.629C1713.39 219.783 1713.44 218.893 1713.58 217.876C1714.86 208.57 1716.32 200.977 1718.17 193.984C1719.51 188.962 1720.22 184.39 1720.34 179.995C1720.37 179.156 1720.44 178.308 1720.53 177.457L1722.85 186.53C1723.5 189.362 1724.03 192.218 1724.29 195.11C1724.55 198.221 1724.88 201.32 1725.19 204.423C1725.47 207.215 1725.77 209.99 1726.01 212.792C1726.21 215.19 1726.42 218.013 1726.35 220.827C1726.18 227.197 1726.01 233.774 1726.54 240.42C1726.75 242.991 1726.94 245.55 1727.15 248.121C1727.44 251.841 1727.73 255.576 1728.05 259.29C1728.05 259.29 1729.55 272.625 1737.11 293.843L1745.09 313.424L1730.14 287.377ZM1614.44 86.9184L1614.92 87.9586C1616.14 90.5259 1617.33 93.0506 1618.48 95.5992C1622.66 104.881 1634.02 125.578 1638.68 149.962C1639.45 153.968 1639.71 158.148 1639.92 162.498L1638.55 177.2L1638.54 177.154C1638.54 177.5 1638.55 177.86 1638.55 178.206C1638.51 181.596 1638.31 185.094 1637.97 188.572C1637.85 189.68 1637.62 190.763 1637.37 191.928C1637.08 193.273 1636.78 194.653 1636.69 196.07C1636.33 201.863 1636.09 207.76 1635.86 213.452L1635.69 217.431C1634.58 214.138 1634.11 210.971 1634.29 207.806C1634.62 202.034 1634.77 197.175 1634.43 192.27C1634.3 190.236 1634.28 188.193 1634.29 185.927C1634.29 181.743 1634.32 177.568 1634.34 173.381L1634.39 165.27C1634.41 163.316 1634.43 161.377 1634.39 159.419C1634.34 157.337 1634.29 154.955 1633.96 152.629C1633.34 148.342 1632.62 144.185 1631.84 140.246C1629.86 130.352 1627.78 122.445 1625.28 115.374C1625.21 115.137 1625.1 114.936 1625 114.72L1625.02 114.717L1614.44 86.9184ZM1630.06 208.271C1629.42 206.363 1628.79 204.455 1628.15 202.532C1625.71 194.994 1624.29 188.186 1623.82 181.717C1623.59 178.427 1623.2 175.088 1622.82 171.873C1622.59 169.935 1622.37 168.013 1622.18 166.066C1622.1 165.202 1622.01 164.322 1621.9 163.461C1621.58 160.534 1621.25 157.514 1621.19 154.553C1621.08 149.792 1621.11 144.957 1621.14 140.264C1621.15 138.343 1621.18 136.419 1621.17 134.486C1621.18 133.526 1621.18 132.565 1621.22 131.614C1621.33 128.84 1622.7 115.837 1622.7 115.837C1624.74 121.738 1626.5 128.291 1628.22 136.393L1628.56 137.995C1629.46 142.226 1630.39 146.579 1630.85 150.894C1631.37 155.64 1631.44 160.534 1631.51 165.27L1631.54 166.807C1631.69 175.24 1631.77 184.176 1631.78 194.163C1631.77 194.887 1631.78 195.593 1631.79 196.314C1631.81 197.238 1630.05 208.256 1630.06 208.271C1630.06 208.271 1630.05 208.256 1630.06 208.271ZM1615.59 190.608L1614.78 188.371C1612.41 181.84 1611.07 176.372 1610.54 171.126C1610.36 169.368 1610.16 167.596 1609.95 165.828C1609.57 162.644 1609.19 159.35 1608.97 156.106L1608.78 153.657C1608.42 149.069 1608.07 144.34 1608.48 139.698C1608.62 138.179 1608.8 136.665 1609 135.164C1609.14 134.083 1609.26 133.006 1609.39 131.928C1609.58 130.145 1609.74 128.368 1609.92 126.588C1610.24 123.318 1610.57 119.936 1610.99 116.631C1611.49 112.697 1612.78 109.729 1615.33 103.799C1615.78 105.742 1616.21 107.688 1616.62 109.624C1617.56 114.083 1618.53 119.372 1618.46 124.701C1618.45 125.883 1618.43 127.067 1618.39 128.255C1618.36 129.975 1618.31 131.714 1618.31 133.444C1618.29 138.655 1618.3 142.9 1618.35 146.855C1618.36 148.079 1618.36 149.306 1618.37 150.515C1618.38 154.1 1618.4 157.793 1618.68 161.434C1619.23 168.408 1620 175.48 1620.75 182.321L1621.13 185.788C1621.28 187.237 1621.52 188.669 1621.8 190.096C1621.95 190.885 1622.11 191.671 1622.26 192.46C1623.58 198.782 1625.7 204.935 1627.76 210.897L1628.54 213.17C1630.18 217.968 1631.88 222.739 1633.6 227.522L1634.73 230.719C1630.72 223.559 1616.92 194.316 1615.59 190.608ZM1601.75 237.96C1598.03 236.72 1594.32 235.465 1590.59 234.244C1589.1 233.743 1587.32 233.171 1585.51 232.699C1580.53 231.403 1575.39 229.712 1569.33 227.35C1567.63 226.685 1565.91 226.037 1564.2 225.405C1561.43 224.364 1558.56 223.277 1555.76 222.145C1551.02 220.191 1545.98 218.104 1541.14 215.773C1534.23 212.456 1527.25 208.947 1520.51 205.549L1517.43 204C1509.88 200.192 1502.93 195.529 1496.73 190.094C1497.01 190.245 1497.29 190.395 1497.56 190.564C1500.02 192.075 1534.81 205.125 1546.11 210.763C1549.76 212.581 1553.05 214.123 1556.15 215.479C1566.01 219.775 1575.9 224.314 1586.15 229.226C1586.15 229.226 1608.76 240.251 1613.98 242.067C1609.9 240.694 1605.83 239.333 1601.75 237.96ZM1619.51 240.443C1619.04 240.281 1618.57 240.12 1618.11 239.956C1612.64 238.092 1607.06 235.81 1601.51 233.192C1591.55 228.507 1581.29 223.708 1570.14 218.528C1564.6 215.955 1559.05 213.416 1553.5 210.876C1550.41 209.469 1547.32 208.047 1544.24 206.624C1543.03 206.069 1541.83 205.495 1540.64 204.922C1538.28 203.8 1535.83 202.634 1533.37 201.626C1525.5 198.398 1517.62 195.218 1509.73 192.041C1507.55 191.168 1505.37 190.28 1503.19 189.408C1505.51 189.97 1507.85 190.577 1510.13 191.226C1516.51 193.072 1522.95 195.189 1528.64 197.042C1531.25 197.894 1533.85 198.812 1536.45 199.73C1538.14 200.32 1539.83 200.925 1541.51 201.499C1541.81 201.599 1542.11 201.668 1542.4 201.737C1557.23 205.741 1588.6 223.159 1588.6 223.159C1592.64 225.468 1596.71 227.741 1600.79 229.995L1610.66 235.482C1613.59 237.155 1616.55 238.806 1619.51 240.443ZM1612.35 233.13C1605.2 229.229 1598.07 225.325 1590.92 221.424C1570.02 208.516 1542.75 199.17 1542.75 199.17C1540.43 198.245 1538.03 197.304 1535.61 196.509L1533.57 195.846C1527.53 193.857 1521.28 191.812 1515.09 189.946C1511.38 188.83 1507.6 187.824 1503.93 186.845C1503.64 186.773 1503.38 186.698 1503.1 186.626C1503.24 186.645 1503.38 186.649 1503.53 186.669C1504.71 186.772 1505.89 186.861 1507.08 186.965C1510.37 187.216 1513.77 187.478 1517.03 188.095C1535.29 191.507 1554.08 198.134 1574.51 208.347C1590.97 216.586 1605.93 227.029 1618.75 236.64L1612.35 233.13ZM1538.8 86.4378C1544.07 95.8256 1548.8 105.491 1553.57 115.383C1556.93 122.338 1568.61 160.166 1570.47 164.435C1570.84 165.308 1571.22 166.177 1571.61 167.032C1568.94 163.28 1566.77 158.914 1564.69 153.146C1563.6 150.113 1562.21 146.966 1560.18 142.935C1557.04 136.679 1553.83 130.45 1550.63 124.222C1549.22 121.471 1547.8 118.723 1546.39 115.988C1545.91 115.041 1545.46 114.089 1545.01 113.137L1541.36 105.405C1536.65 95.437 1524.83 64.416 1524.83 64.416C1529.64 71.0458 1534.24 78.3284 1538.8 86.4378ZM1524.53 76.5543C1525.64 78.9844 1526.79 81.3906 1527.95 83.8119C1529.18 86.3915 1530.41 88.971 1531.6 91.5593C1540.34 110.775 1549.7 128.992 1557.69 144.262C1560.29 149.238 1562.59 154.759 1564.71 161.133L1564.21 160.52C1559.52 154.733 1554.66 148.743 1551.16 141.957C1548.26 136.346 1545.23 130.697 1542.28 125.237C1540.76 122.413 1539.24 119.607 1537.73 116.779C1536.87 115.151 1535.96 113.408 1535.16 111.625C1532.27 105.227 1528.71 98.7041 1523.98 91.0841C1520.35 85.267 1517.9 80.3716 1516.24 75.6707C1514.18 69.8362 1510.36 50.7011 1509.25 48.2559C1514.98 57.902 1520.13 66.9828 1524.53 76.5543ZM1510.28 68.0981C1513.11 76.884 1516.95 85.4146 1521.69 93.4255C1524.39 97.9896 1526.96 102.735 1529.46 107.321L1531.43 110.94C1532.3 112.535 1533.13 114.169 1533.96 115.788C1534.66 117.178 1535.39 118.581 1536.13 119.966C1537.98 123.417 1539.85 126.865 1541.71 130.301C1542.95 132.611 1544.21 134.934 1545.46 137.244C1545.46 137.244 1559.35 160.034 1558.88 159.528C1553.67 153.87 1549.02 147.793 1544.98 142.415C1537.99 133.088 1519.39 105.505 1503.24 47.0154C1505.62 53.9371 1508.02 61.0591 1510.28 68.0981Z" fill="#F5F5F5"/>
</g>
<defs>
<clipPath id="clip0_196_2">
<rect width="1920" height="1280" fill="white" transform="translate(0 0.5)"/>
</clipPath>
<clipPath id="clip1_196_2">
<rect width="964" height="1170" fill="white" transform="translate(-76 171.61)"/>
</clipPath>
</defs>
</svg>
