<svg width="814" height="185" viewBox="0 0 814 185" fill="none" xmlns="http://www.w3.org/2000/svg">
<g clip-path="url(#clip0_11_17)">
<path d="M112.072 157.215C98.9151 164.448 72.2777 168.069 60.7653 168.069H41.0312V21.3784C41.3572 19.0759 42.3475 16.7734 43.9918 14.801L51.5574 5.26507C51.8864 4.30561 51.8864 3.2639 51.5574 2.30444H0.576806C0.247841 3.2639 0.247841 4.30561 0.576806 5.26507L8.14242 14.801C9.78676 16.4453 10.7709 18.7478 11.103 21.3784V165.436C11.103 167.739 8.47453 171.357 7.1562 172.67L0.228398 178.919C-0.097617 180.235 -0.097617 181.221 0.228398 182.538H110.095L116.345 157.21C114.939 156.882 113.476 156.882 112.07 157.21L112.072 157.215Z" fill="#F5F5F5"/>
<path d="M296.586 88.4723C295.27 41.1105 258.762 0 208.77 0C195.285 0 181.8 2.96062 169.648 8.87983C137.725 24.6671 114.374 59.8604 114.374 95.3594C114.374 145.352 155.487 184.82 202.191 184.82C214.359 184.82 226.2 183.176 237.034 178.571C271.239 164.1 295.908 132.525 296.564 88.452L296.586 88.4723ZM174.891 21.0483C231.133 9.86603 267.312 49.9924 267.312 98.0123C267.312 123.686 256.13 150.307 234.093 166.753C181.14 174.318 144.961 138.139 144.961 87.4902C144.961 61.5068 153.512 36.8397 174.913 21.0524L174.891 21.0483ZM424.199 160.155C413.344 165.418 381.77 168.049 370.26 168.049H353.156V103.934H384.402L394.269 109.855C395.585 110.181 396.571 110.181 397.887 109.855V79.5966C396.571 79.2705 395.585 79.2705 394.269 79.5966L384.072 83.8714H353.488V16.7735H397.908L421.588 22.0366C422.884 22.3624 424.24 22.3624 425.535 22.0366L421.236 2.30248H313.028C312.699 3.26194 312.699 4.30365 313.028 5.26311L320.593 14.799C322.237 16.4434 323.242 18.7459 323.554 21.3764V165.434C323.554 167.737 320.905 171.356 319.279 172.668L312.351 178.917C312.025 180.233 312.025 181.22 312.351 182.536H422.204L428.453 160.171C427.047 159.843 425.584 159.843 424.178 160.171L424.199 160.155ZM809.015 160.155C798.16 165.418 766.586 168.049 755.075 168.049H737.972V103.934H769.218L779.084 109.855C780.401 110.181 781.387 110.181 782.703 109.855V79.5966C781.387 79.2705 780.401 79.2705 779.084 79.5966L768.888 83.8714H738.3V16.7735H782.719L806.4 22.0366C807.717 22.3626 809.049 22.3626 810.675 22.0366L806.4 2.30248H698.192C697.863 3.26194 697.863 4.30365 698.192 5.26311L705.757 14.799C707.402 16.4434 708.406 18.7459 708.718 21.3764V165.434C708.718 167.737 706.069 171.356 704.771 172.668L697.844 178.917C697.518 180.233 697.518 181.22 697.844 182.536H807.696L813.946 160.171C811.643 159.845 810.327 159.845 809.015 160.171V160.155ZM685.349 2.30248H642.592C642.263 3.26194 642.263 4.30365 642.592 5.26311L650.486 12.8287C652.13 14.473 654.104 16.7755 653.446 19.078L615.623 136.494L577.797 2.64887C571.219 1.99073 564.64 1.99073 558.391 2.64887L513.003 136.183L481.757 20.4065C481.099 18.7622 481.431 16.7877 482.415 15.1434L491.295 5.60746C491.624 4.648 491.624 3.60629 491.295 2.64683H438.67C438.341 3.60629 438.341 4.648 438.67 5.60746L447.55 15.1434C448.866 16.7877 449.852 18.4321 450.51 20.4065L495.57 182.554C497.872 183.212 511.357 183.212 514.315 182.554L559.703 47.3761L599.171 182.554C605.42 183.212 611.67 183.212 617.591 182.554L670.218 23.0248C670.876 20.7223 672.19 18.4198 674.165 16.4475L685.347 5.59319C685.673 4.27691 685.673 3.29071 685.347 2.30452L685.349 2.30248Z" fill="#F5F5F5"/>
</g>
<defs>
<clipPath id="clip0_11_17">
<rect width="813.946" height="184.842" fill="white"/>
</clipPath>
</defs>
</svg>
